<svg xmlns="http://www.w3.org/2000/svg" width="26" height="24" viewBox="0 0 26 24">
  <g id="battery_1_" data-name="battery (1)" transform="translate(-3 -6)">
    <path id="Path_2584" data-name="Path 2584" d="M28.333,9.333H25.667V6.667A.63.63,0,0,0,25,6H20.333a.63.63,0,0,0-.667.667V9.333H12.333V6.667A.63.63,0,0,0,11.667,6H7a.63.63,0,0,0-.667.667V9.333H3.667A.63.63,0,0,0,3,10v3.333A.63.63,0,0,0,3.667,14h.667V29.333A.63.63,0,0,0,5,30H27a.63.63,0,0,0,.667-.667V14h.667A.63.63,0,0,0,29,13.333V10A.63.63,0,0,0,28.333,9.333ZM21,7.333h3.333v2H21Zm-13.333,0H11v2H7.667ZM26.333,28.667H5.667V14H26.333Zm1.333-16H4.333v-2H27.667Z" transform="translate(0 0)" fill="#fff"/>
    <path id="Path_2585" data-name="Path 2585" d="M15.867,31.548a.644.644,0,0,0,.933-.067l4-4.667a.661.661,0,0,0-.467-1.133H17.8l3.067-3.533a.662.662,0,1,0-1-.867l-4,4.667a.6.6,0,0,0-.067.733.5.5,0,0,0,.533.333h2.533L15.8,30.548a.8.8,0,0,0,.067,1Z" transform="translate(-2.333 -5.015)" fill="#fff"/>
  </g>
</svg>
