<svg xmlns="http://www.w3.org/2000/svg" width="24.5" height="24.5" viewBox="0 0 24.5 24.5">
  <g id="_2-brake" data-name="2-brake" transform="translate(-1.75 -1.75)">
    <path id="Path_2575" data-name="Path 2575" d="M16,22a6,6,0,1,1,6-6,6,6,0,0,1-6,6Zm0-10.286A4.286,4.286,0,1,0,20.286,16,4.286,4.286,0,0,0,16,11.714Z" transform="translate(-1.143 -1.143)" fill="#fff" stroke="#222" stroke-width="0.5"/>
    <path id="Path_2576" data-name="Path 2576" d="M13.786,17.643A1.286,1.286,0,1,0,12.5,16.357a1.286,1.286,0,0,0,1.286,1.286Zm5.143,0a1.286,1.286,0,1,0-1.286-1.286A1.286,1.286,0,0,0,18.929,17.643Zm-2.571-2.571a1.286,1.286,0,1,0-1.286-1.286,1.286,1.286,0,0,0,1.286,1.286Zm0,5.143a1.286,1.286,0,1,0-1.286-1.286A1.286,1.286,0,0,0,16.357,20.214Z" transform="translate(-1.5 -1.5)" fill="#fff" stroke="#222" stroke-width="0.5"/>
    <path id="Path_2577" data-name="Path 2577" d="M9.791,14.857H2.857A.857.857,0,0,1,2,14,12,12,0,0,1,14,2a.857.857,0,0,1,.857.857V9.791a.857.857,0,0,1-.711.857,4.286,4.286,0,0,0-3.506,3.506A.857.857,0,0,1,9.791,14.857ZM3.714,13.143h5.4a6,6,0,0,1,4.029-4.029v-5.4a10.286,10.286,0,0,0-9.429,9.429ZM14,9.791Z" fill="#fff" stroke="#222" stroke-width="0.5"/>
    <path id="Path_2578" data-name="Path 2578" d="M15.143,26.286A11.143,11.143,0,0,1,4,15.143a6.633,6.633,0,0,1,.043-.926.857.857,0,0,1,.857-.789H9.4A6,6,0,0,1,13.429,9.4V4.9a.857.857,0,0,1,.789-.857A6.633,6.633,0,0,1,15.143,4a11.143,11.143,0,1,1,0,22.286ZM5.714,15.143a9.429,9.429,0,1,0,9.429-9.429v4.363a.857.857,0,0,1-.711.857,4.286,4.286,0,0,0-3.506,3.506.857.857,0,0,1-.857.711ZM14.286,10.077Z" transform="translate(-0.286 -0.286)" fill="#fff" stroke="#222" stroke-width="0.5"/>
  </g>
</svg>
