<svg xmlns="http://www.w3.org/2000/svg" xmlns:xlink="http://www.w3.org/1999/xlink" width="25" height="25" viewBox="0 0 25 25">
  <defs>
    <clipPath id="clip-path">
      <rect id="Rectangle_217" data-name="Rectangle 217" width="25" height="25" transform="translate(6583 2038.819)"/>
    </clipPath>
  </defs>
  <g id="Mask_Group_1" data-name="Mask Group 1" transform="translate(-6583 -2038.819)" clip-path="url(#clip-path)">
    <path id="bike" d="M54.794,2.355a3.273,3.273,0,1,0,3.273,3.273A3.277,3.277,0,0,0,54.794,2.355Zm0,5.771a2.5,2.5,0,1,1,2.5-2.5A2.5,2.5,0,0,1,54.794,8.126Zm-3.01-4.578c1.3-1.908,4.29-2.221,4.32-2.223a.388.388,0,0,0,.347-.44,7.04,7.04,0,0,0-3.488-4.715.388.388,0,0,0-.457.068c-.3.3-.674.658-.778.736a.388.388,0,0,0-.2.387l.134,1.161a24.075,24.075,0,0,0-4.276-.956c-1.156,0-2.214,1.449-2.507,1.887a2.025,2.025,0,0,1-.422.034,9.27,9.27,0,0,1-1.4-.138A1.912,1.912,0,0,1,41.293-2.1a.39.39,0,0,0-.163-.266.386.386,0,0,0-.307-.059,29.7,29.7,0,0,1-3.407.192.389.389,0,0,0-.284.129.386.386,0,0,0-.1.3c.034.361.353.7.972,1.1a.379.379,0,0,0-.143.029,13.2,13.2,0,0,1-1.8.151.388.388,0,0,0-.388.388.388.388,0,0,0,.388.388c.144,0,.292,0,.44-.011a2.926,2.926,0,0,0-.916,1.414.388.388,0,1,0,.754.181c.2-.819,1.249-1.507,1.742-1.759.442-.066.8-.134.983-.171.449.24.975.506,1.581.811s1.258.633,1.89.97a4.811,4.811,0,0,1,1.491,1.128L41.954,3.2h0l-.536.1a3.273,3.273,0,1,0,.8,3.394l1.054.913a.389.389,0,0,0,.254.095h7.512a.388.388,0,0,0,.373-.493A4.225,4.225,0,0,1,51.783,3.549ZM42.9,1C42.264.66,41.613.332,41,.022a29.742,29.742,0,0,1-2.748-1.494c.725-.019,1.748-.058,2.382-.136a2.733,2.733,0,0,0,2.3,1.723c1.366.22,2.21.2,2.482-.075a.392.392,0,0,0,.054-.067c.266-.423,1.19-1.63,1.919-1.63a21.577,21.577,0,0,1,3.708.823L46.95,1.372,44.787,2.525A5.235,5.235,0,0,0,42.9,1ZM39.124,8.126a2.5,2.5,0,1,1,2.131-3.793l.009.016a2.465,2.465,0,0,1,.188.386l.01.026a2.49,2.49,0,0,1,.114.406c0,.012,0,.024.005.036a2.3,2.3,0,0,1,.019.729h0A2.5,2.5,0,0,1,39.124,8.126Zm3.267-2.31c0-.062.007-.124.007-.188a3.255,3.255,0,0,0-.026-.4c0-.032-.01-.064-.015-.1-.016-.106-.037-.21-.063-.312-.007-.026-.013-.052-.02-.078a3.27,3.27,0,0,0-.283-.695l3.847,2.873H43.669Zm8.15,1.107H47.133L42.951,3.8l1.616-.3a.391.391,0,0,0,.112-.039L52.291-.6a.374.374,0,0,0,.093-.069.4.4,0,0,0,.03-.041.357.357,0,0,0,.037-.05.4.4,0,0,0,.019-.054.375.375,0,0,0,.019-.053.376.376,0,0,0,0-.059.359.359,0,0,0,0-.054.009.009,0,0,0,0,0,.013.013,0,0,0,0,0L52.318-2.51c.114-.1.278-.251.52-.489A6.366,6.366,0,0,1,55.612.612a6.966,6.966,0,0,0-4.467,2.5A4.759,4.759,0,0,0,50.541,6.923Zm4.253-3.217a1.922,1.922,0,1,0,1.922,1.922A1.924,1.924,0,0,0,54.794,3.706Zm0,3.069a1.147,1.147,0,1,1,1.147-1.147A1.148,1.148,0,0,1,54.794,6.775ZM39.124,3.706a1.922,1.922,0,1,0,1.922,1.922A1.925,1.925,0,0,0,39.124,3.706Zm0,3.069a1.147,1.147,0,1,1,1.147-1.147A1.148,1.148,0,0,1,39.124,6.775ZM53.385-.253V-1.618a.388.388,0,0,1,.388-.388.388.388,0,0,1,.388.388V-.253a.388.388,0,0,1-.388.388A.388.388,0,0,1,53.385-.253ZM47.141,2.519a1.576,1.576,0,1,0,1.576,1.576A1.577,1.577,0,0,0,47.141,2.519Zm0,2.376a.8.8,0,1,1,.8-.8A.8.8,0,0,1,47.141,4.894Zm-24.4-.979a2.752,2.752,0,1,0,2.752,2.753A2.755,2.755,0,0,0,22.74,3.915Zm0,4.729a1.977,1.977,0,1,1,1.976-1.976A1.978,1.978,0,0,1,22.74,8.644Zm0-3.136a1.16,1.16,0,1,0,1.16,1.16A1.162,1.162,0,0,0,22.74,5.507Zm0,1.545a.385.385,0,1,1,.385-.385A.385.385,0,0,1,22.74,7.052ZM21.463,2.9a.388.388,0,0,0-.024-.395c-.3-.441-1.193-1.937-1.913-3.139-.3-.5-.573-.957-.774-1.29a8.777,8.777,0,0,0-.657-1.01A.388.388,0,0,0,17.552-3a.388.388,0,0,0-.066.544s.032.041.081.11l-.7,1.044a.388.388,0,0,0,.107.538.388.388,0,0,0,.215.065.388.388,0,0,0,.323-.173l.508-.761a6.953,6.953,0,0,1,1.053,3.943c-.215,2.206-1.109,3.178-1.648,3.432H13.662c-1,0-1.179-.724-1.179-2.149,0-.408.413-.737.851-1.085.512-.408,1.092-.869,1.092-1.592a.774.774,0,0,0-.276-.59c-.776-.686-3.433-.464-4.386-.358l-.205-.3A.384.384,0,0,0,9.2-.5c-1.341.14-2.753,1.75-3.046,2.1A6.621,6.621,0,0,0,3.005,6.069a.388.388,0,0,0,.383.451H4.62c0,.05-.009.1-.009.149A2.752,2.752,0,0,0,9.9,7.731h3.563a.388.388,0,0,0,0-.776H10.1a2.712,2.712,0,0,0,.016-.288c0-.049-.006-.1-.009-.149h7.4a.388.388,0,0,0,.141-.026A3.727,3.727,0,0,0,19.532,4c0-.007.007-.011.01-.018.283-.82,1.574-.868,1.586-.869A.389.389,0,0,0,21.463,2.9ZM9.339,6.668a1.976,1.976,0,0,1-3.952,0c0-.049,0-.1.006-.149h.824a1.181,1.181,0,0,0-.014.149,1.16,1.16,0,1,0,2.321,0,1.182,1.182,0,0,0-.014-.149h.824C9.337,6.569,9.339,6.619,9.339,6.668Zm-1.592,0a.385.385,0,0,1-.769,0,.379.379,0,0,1,.03-.149h.709A.379.379,0,0,1,7.748,6.668Zm1.916-.924H4.983A5.835,5.835,0,0,1,9.576,2.316a.933.933,0,0,1,.833.36c.486.7.122,2.271-.137,3.067Zm2.453,0H11.084c.259-.865.629-2.545-.037-3.508a1.678,1.678,0,0,0-1.472-.695c-2.183,0-5.03,2.291-5.387,4.2H3.882a5.726,5.726,0,0,1,2.7-3.49.384.384,0,0,0,.125-.1A5.986,5.986,0,0,1,9.06.314L9.255.6a.389.389,0,0,0,.368.167C11.546.528,13.467.6,13.65.918c0,.349-.389.658-.8.985a2.283,2.283,0,0,0-1.144,1.692A4.211,4.211,0,0,0,12.117,5.744Zm7.7-3.089c.011-.089.024-.176.033-.268a5.5,5.5,0,0,0,.005-.971c.23.381.443.731.616,1.01A3.226,3.226,0,0,0,19.814,2.655ZM19.75-1.809a.388.388,0,0,0,.388-.388V-4.005a.388.388,0,0,0-.388-.388A1.293,1.293,0,0,0,18.458-3.1,1.293,1.293,0,0,0,19.75-1.809Zm-.388-1.632v.681a.514.514,0,0,1-.128-.34A.514.514,0,0,1,19.362-3.441ZM9.547,5.023a.388.388,0,0,1-.388.388H6.574a.388.388,0,0,1,0-.776H9.159A.388.388,0,0,1,9.547,5.023Zm8.876-.813V.878a.388.388,0,0,0-.776,0V4.21a.388.388,0,0,0,.776,0ZM22.4,3.743h.679a.388.388,0,0,0,0-.776H22.4a.388.388,0,0,0,0,.776ZM119.9-29.6a3.288,3.288,0,0,0-1.075.182l-.973-2.025.8.089.043,0a.388.388,0,0,0,.385-.343l.206-1.762a.388.388,0,0,0-.3-.424l-.59-.129-.691-.935a.369.369,0,0,0-.322-.157.387.387,0,0,0-.313.174l-.561.848-.183-.311-.877-1.917.185-.212a.388.388,0,0,0-.038-.547.388.388,0,0,0-.547.038l-.7.8a.388.388,0,0,0,.038.547.387.387,0,0,0,.255.1.381.381,0,0,0,.24-.095l.526,1.15-.764.1a.387.387,0,0,0-.337.433.388.388,0,0,0,.384.34.343.343,0,0,0,.048,0l1.035-.13.365.618h0l.71,1.443,0,0,1.271,2.649a3.313,3.313,0,0,0-1.544,2.8,3.321,3.321,0,0,0,3.318,3.317,3.321,3.321,0,0,0,3.317-3.317A3.32,3.32,0,0,0,119.9-29.6Zm-2.487-4.438.449.607a.388.388,0,0,0,.229.149l.389.085-.121,1.03-.9-.1-.512-1.066Zm2.487,10.3a2.545,2.545,0,0,1-2.542-2.542,2.539,2.539,0,0,1,1.106-2.095l.261.544a1.944,1.944,0,0,0-.779,1.55,1.956,1.956,0,0,0,1.953,1.953,1.955,1.955,0,0,0,1.953-1.953,1.955,1.955,0,0,0-1.953-1.953,1.936,1.936,0,0,0-.477.066l-.261-.544a2.533,2.533,0,0,1,.737-.11,2.544,2.544,0,0,1,2.541,2.541A2.544,2.544,0,0,1,119.9-23.738Zm-.35-2.373a.388.388,0,0,0,.35.22.382.382,0,0,0,.168-.038.388.388,0,0,0,.182-.517l-.479-1a1.191,1.191,0,0,1,.13-.013,1.178,1.178,0,0,1,1.177,1.177A1.178,1.178,0,0,1,119.9-25.1a1.179,1.179,0,0,1-1.178-1.178,1.173,1.173,0,0,1,.347-.834ZM104.041-29.6a3.321,3.321,0,0,0-3.317,3.317,3.321,3.321,0,0,0,3.317,3.317,3.321,3.321,0,0,0,3.317-3.317A3.321,3.321,0,0,0,104.041-29.6Zm0,5.858A2.545,2.545,0,0,1,101.5-26.28a2.544,2.544,0,0,1,2.542-2.541,2.544,2.544,0,0,1,2.541,2.541A2.545,2.545,0,0,1,104.041-23.738Zm0-4.494a1.955,1.955,0,0,0-1.953,1.953,1.955,1.955,0,0,0,1.953,1.953,1.955,1.955,0,0,0,1.953-1.953A1.955,1.955,0,0,0,104.041-28.232Zm0,3.13a1.179,1.179,0,0,1-1.177-1.177,1.179,1.179,0,0,1,1.177-1.177,1.179,1.179,0,0,1,1.177,1.177A1.179,1.179,0,0,1,104.041-25.1ZM101.358-29.6a.386.386,0,0,0,.2.056.387.387,0,0,0,.332-.187,3.047,3.047,0,0,1,1.286-1.13c.01,0,.018.007.028.009l3.312.458a.4.4,0,0,0,.053,0h.006c.074,0,7.424-.114,8.439-.114a1.237,1.237,0,0,0,1.02-.41,1.141,1.141,0,0,0,.2-.918,2.408,2.408,0,0,0-2.367-1.782,6.491,6.491,0,0,0-3.392,1.269c-.31.024-.643.037-.99.037a20.929,20.929,0,0,1-3.671-.365l-2.723-.343a.382.382,0,0,0-.326.114.387.387,0,0,0-.105.329l.154,1.019a3.835,3.835,0,0,0-1.591,1.422A.388.388,0,0,0,101.358-29.6Zm4.334-2.309a21.127,21.127,0,0,0,3.8.376c.411,0,.8-.017,1.167-.049a.385.385,0,0,0,.2-.079,5.949,5.949,0,0,1,3.013-1.177,1.64,1.64,0,0,1,1.611,1.176.374.374,0,0,1-.052.264.555.555,0,0,1-.415.119c-.988,0-7.907.106-8.421.114l-3-.414-.092-.6Zm10.655,2.017-1.631,4.523a.387.387,0,0,1-.348.256l-4.485.191h-.017a.389.389,0,0,1-.344-.209l-1.533-2.952a.388.388,0,0,1,.166-.523.388.388,0,0,1,.523.166L110.1-25.7l3.979-.169,1.543-4.279a.389.389,0,0,1,.5-.233A.388.388,0,0,1,116.347-29.888Zm-1.723.363a.388.388,0,0,0-.388-.379h-.009l-6.136.137-4.42-.884a.388.388,0,0,0-.456.3.388.388,0,0,0,.3.456l4.462.892a.386.386,0,0,0,.076.008h.009l6.179-.137A.389.389,0,0,0,114.625-29.525Zm-2.676.941h-1.14a1.172,1.172,0,0,0-1.171,1.171,1.172,1.172,0,0,0,1.171,1.171h1.139a1.409,1.409,0,0,0,.792.247,1.419,1.419,0,0,0,1.417-1.417,1.419,1.419,0,0,0-1.417-1.417A1.4,1.4,0,0,0,111.949-28.584Zm1.434,1.17a.642.642,0,0,1-.642.642.637.637,0,0,1-.412-.155.389.389,0,0,0-.251-.092h-1.269a.4.4,0,0,1-.4-.4.4.4,0,0,1,.4-.4h1.269a.386.386,0,0,0,.25-.092.637.637,0,0,1,.412-.156A.643.643,0,0,1,113.383-27.414ZM87.292-30.547a3.291,3.291,0,0,0-1.437.332l-.112-.175a3.492,3.492,0,0,1,1.548-.364,3.492,3.492,0,0,1,2.081.681.388.388,0,0,0,.542-.083.388.388,0,0,0-.083-.542,4.262,4.262,0,0,0-2.54-.832,4.26,4.26,0,0,0-1.967.482l-1.481-2.326c.042-.167.119-.573.3-1.7a.386.386,0,0,0-.085-.312l-.56-.669a.388.388,0,0,0-.546-.048.388.388,0,0,0-.048.546l.446.532c-.054.325-.111.654-.157.92l-.105-.105a.387.387,0,0,0-.548,0,.387.387,0,0,0,0,.548l.54.539,1.589,2.5A4.283,4.283,0,0,0,83-27.237a4.25,4.25,0,0,0,.432,1.879.388.388,0,0,0,.349.218.388.388,0,0,0,.17-.039.388.388,0,0,0,.178-.518,3.485,3.485,0,0,1-.353-1.539,3.51,3.51,0,0,1,1.314-2.737l.111.175a3.305,3.305,0,0,0-1.219,2.563,3.315,3.315,0,0,0,3.311,3.311,3.314,3.314,0,0,0,3.31-3.311A3.314,3.314,0,0,0,87.292-30.547Zm0,5.845a2.538,2.538,0,0,1-2.535-2.535,2.526,2.526,0,0,1,.864-1.9l.754,1.185a1.158,1.158,0,0,0-.252.717,1.17,1.17,0,0,0,1.169,1.169,1.17,1.17,0,0,0,1.169-1.169,1.17,1.17,0,0,0-1.169-1.169,1.164,1.164,0,0,0-.264.033l-.753-1.184a2.518,2.518,0,0,1,1.018-.215,2.537,2.537,0,0,1,2.535,2.535A2.538,2.538,0,0,1,87.292-24.7Zm.393-2.535a.373.373,0,0,1-.014.072.384.384,0,0,0,0-.126A.413.413,0,0,1,87.685-27.237Zm-.064-.2a.371.371,0,0,1,.048.124A.386.386,0,0,0,87.621-27.438Zm.045.294a.386.386,0,0,1-.051.118A.384.384,0,0,0,87.666-27.144Zm-.062.133a.38.38,0,0,1-.1.095A.387.387,0,0,0,87.6-27.011Zm-.113.1a.379.379,0,0,1-.088.04A.361.361,0,0,0,87.492-26.906Zm-.112.045a.37.37,0,0,1-.088.018.36.36,0,0,1-.07-.014.386.386,0,0,0,.07.009A.359.359,0,0,0,87.38-26.862Zm-.194,0a.362.362,0,0,1-.078-.03A.35.35,0,0,0,87.186-26.865ZM87.1-26.9a.386.386,0,0,1-.125-.114A.392.392,0,0,0,87.1-26.9Zm-1.52-5.246a.388.388,0,0,0,.153.031.4.4,0,0,0,.13-.022,1.335,1.335,0,0,0,.854-1.258,1.359,1.359,0,0,0-.836-1.327.389.389,0,0,0-.4.064l-1.121.957a.389.389,0,0,0-.136.277.387.387,0,0,0,.109.288A5.441,5.441,0,0,0,85.582-32.146Zm.189-1.738a.658.658,0,0,1,.173.47.639.639,0,0,1-.206.47,4.834,4.834,0,0,1-.548-.445ZM72.329-31.978,75.7-30.694a.39.39,0,0,0,.138.025h7.371a.467.467,0,0,0,.4-.21.561.561,0,0,0,.087-.315c0-.6-.881-2.112-1.989-2.112h-.043a21.773,21.773,0,0,0-3.372.653c-.231.013-.443.019-.638.019h0c-1.521,0-1.853-.361-1.889-.406a.388.388,0,0,0-.368-.266H72.468a.388.388,0,0,0-.388.388v.579A.387.387,0,0,0,72.329-31.978Zm2.839-.553c.252.3.887.672,2.479.672h0q.329,0,.721-.022a.376.376,0,0,0,.078-.013,22.167,22.167,0,0,1,3.253-.638c.456,0,.952.673,1.138,1.086H75.906l-2.85-1.086h2.112ZM68.543-27.19a.387.387,0,0,1-.353-.42,4.318,4.318,0,0,1,2.957-3.7v-.692H69.42a.388.388,0,0,1-.388-.388.388.388,0,0,1,.388-.388h1.726v-.651a.388.388,0,0,1,.388-.388.388.388,0,0,1,.388.388v1.942a4.225,4.225,0,0,1,.545-.04A4.318,4.318,0,0,1,76.336-29.1a.388.388,0,0,1-.181.518.388.388,0,0,1-.518-.181,3.537,3.537,0,0,0-3.17-1.992,3.537,3.537,0,0,0-3.5,3.211.388.388,0,0,1-.386.354Zm.345-2.972a.391.391,0,0,0,.391-.391.391.391,0,0,0-.391-.391.391.391,0,0,0-.391.391A.391.391,0,0,0,68.888-30.162Zm8.9-.321-1.208.8a.388.388,0,0,0-.109.537.387.387,0,0,0,.324.174.386.386,0,0,0,.214-.065l1.208-.8a.388.388,0,0,0,.109-.537A.387.387,0,0,0,77.785-30.483Zm4.09,1.589c-.01-.046-.027-.089-.041-.133l1.355-.8a.388.388,0,0,0,.137-.531.388.388,0,0,0-.531-.137l-1.38.816a1.506,1.506,0,0,0-1.017-.4c-1.2,0-3.406.828-3.406,2.18a1.051,1.051,0,0,0,1.051,1.05l.1,0c.081,0,.193,0,.327,0h0a7.619,7.619,0,0,0,1.992-.221,2.033,2.033,0,0,0,1.268-.814,1.306,1.306,0,0,1,.176.858c-.072.276-.378.416-.892.416l-5.254-.251a3.255,3.255,0,0,0,.024-.381,3.314,3.314,0,0,0-3.31-3.31,3.314,3.314,0,0,0-3.311,3.31c0,.022,0,.044,0,.066l-.252-.012a.389.389,0,0,0-.406.369.388.388,0,0,0,.369.406l.4.019a3.314,3.314,0,0,0,3.2,2.462,3.313,3.313,0,0,0,3.1-2.162l5.421.259a1.906,1.906,0,0,0,1.291-.391A1.254,1.254,0,0,0,82.7-27.2,2.312,2.312,0,0,0,81.874-28.894Zm-1.627,1.081a6.859,6.859,0,0,1-1.785.193c-.128,0-.235,0-.313,0l-.11,0a.275.275,0,0,1-.275-.275c0-.664,1.568-1.4,2.63-1.4a.742.742,0,0,1,.741.741C81.137-28.438,81.137-28.06,80.248-27.813Zm-10.316.575a2.538,2.538,0,0,1,2.535-2.535A2.537,2.537,0,0,1,75-27.237a2.52,2.52,0,0,1-.026.344L73.6-26.959a1.155,1.155,0,0,0,.037-.278,1.17,1.17,0,0,0-1.168-1.169A1.17,1.17,0,0,0,71.3-27.237a1.161,1.161,0,0,0,.017.169l-1.378-.066C69.935-27.168,69.932-27.2,69.932-27.237Zm2.21.208a.378.378,0,0,1-.069-.208.394.394,0,0,1,.394-.393.393.393,0,0,1,.393.393.386.386,0,0,1-.089.238Zm.325,2.326A2.536,2.536,0,0,1,70.1-26.35l1.719.082a1.163,1.163,0,0,0,.653.2,1.156,1.156,0,0,0,.547-.142l1.728.082A2.536,2.536,0,0,1,72.467-24.7ZM54.709-31.067a3.341,3.341,0,0,0-1.167.213l-.1-.2a3.563,3.563,0,0,1,1.037-.23.388.388,0,0,0,.363-.412.39.39,0,0,0-.412-.363,4.338,4.338,0,0,0-1.341.311l-.208-.409a1.44,1.44,0,0,0,.621-1.163,1.478,1.478,0,0,0-.316-1,1.942,1.942,0,0,0-.211-1.268.388.388,0,0,0-.532-.135.388.388,0,0,0-.135.532,1.079,1.079,0,0,1,.127.611c-.01.005-.021.006-.031.012l-.555.382-.122-.239a.387.387,0,0,0-.522-.169.388.388,0,0,0-.169.522l.331.65c.047.092.364.725.633,1.242l.4.776a4.361,4.361,0,0,0-1.458,1.512.388.388,0,0,0,.142.53.387.387,0,0,0,.194.052.389.389,0,0,0,.336-.194,3.584,3.584,0,0,1,1.142-1.2l.1.2a3.356,3.356,0,0,0-1.5,2.794,3.362,3.362,0,0,0,3.358,3.358,3.362,3.362,0,0,0,3.358-3.358A3.362,3.362,0,0,0,54.709-31.067Zm-2.084-2.707a.789.789,0,0,1,.1.43.7.7,0,0,1-.2.488l-.32-.627Zm2.084,8.648a2.586,2.586,0,0,1-2.583-2.583,2.579,2.579,0,0,1,1.079-2.1l.451.885a1.6,1.6,0,0,0-.56,1.211A1.614,1.614,0,0,0,54.709-26.1a1.613,1.613,0,0,0,1.612-1.612,1.613,1.613,0,0,0-1.612-1.612,1.583,1.583,0,0,0-.363.045l-.45-.882a2.566,2.566,0,0,1,.813-.133,2.585,2.585,0,0,1,2.583,2.582A2.585,2.585,0,0,1,54.709-25.126Zm-.681-3.065.335.658a.388.388,0,0,0,.346.212.387.387,0,0,0,.176-.042.388.388,0,0,0,.169-.522l-.336-.659a.837.837,0,0,1,.827.835.837.837,0,0,1-.836.836.837.837,0,0,1-.836-.836A.83.83,0,0,1,54.027-28.191ZM39.117-29.58a1.69,1.69,0,0,0-1.688,1.688A1.69,1.69,0,0,0,39.117-26.2,1.689,1.689,0,0,0,40.8-27.892,1.689,1.689,0,0,0,39.117-29.58Zm0,2.6a.913.913,0,0,1-.912-.912.913.913,0,0,1,.912-.912.913.913,0,0,1,.912.912A.913.913,0,0,1,39.117-26.981Zm-2.243-3.852a.387.387,0,0,0,.306-.149,3.215,3.215,0,0,1,2.687-1.049,8.153,8.153,0,0,1,1.578.168l1.711,3.508a.342.342,0,0,0,.031.046,1.342,1.342,0,0,0,1.081.914.408.408,0,0,0,.054.012c3.015.415,3.036.415,3.071.415a.389.389,0,0,0,.379-.3,1.19,1.19,0,0,0-.323-1,6.288,6.288,0,0,0-2.981-1.81,1.344,1.344,0,0,0-1.045.505l-1-2.044a.393.393,0,0,0,.053.009h7.21a.385.385,0,0,0,.119-.019,1.948,1.948,0,0,0,1.045-1.16,1.224,1.224,0,0,0-.06-1.087c-.184-.289-.568-.418-1.246-.418a17.58,17.58,0,0,0-2.409.261c-.259.04-.485.075-.655.1a1.888,1.888,0,0,0-1.28.6c-.478-.018-1.635-.059-2.416-.059H42.6l-.247-.077a7.064,7.064,0,0,0-2.149-.428c-1.479,0-2.678.812-3.668,2.482a.388.388,0,0,0,.115.518A.384.384,0,0,0,36.874-30.833Zm7.586,1.527a6.294,6.294,0,0,1,2.353,1.479l-2.324-.318a.4.4,0,0,0-.074-.015.573.573,0,0,1-.522-.57A.576.576,0,0,1,44.46-29.306Zm-4.251-3.819a6.458,6.458,0,0,1,1.915.392l.31.1a.388.388,0,0,0,.118.017l.237,0c.984,0,2.586.067,2.6.067a.359.359,0,0,0,.373-.237c.006-.012.152-.3.815-.377.176-.022.411-.058.68-.1a17.054,17.054,0,0,1,2.29-.252,2.214,2.214,0,0,1,.593.061.5.5,0,0,1-.017.406,1.4,1.4,0,0,1-.512.667H42.542a9.5,9.5,0,0,0-2.674-.421,5.973,5.973,0,0,0-1.153.1A2.744,2.744,0,0,1,40.208-33.125Zm5.782,2.018a.388.388,0,0,1,.388.388.388.388,0,0,1-.388.388H44.279a.388.388,0,0,1-.388-.388.388.388,0,0,1,.388-.388Zm5.429-.627a.388.388,0,0,0-.21-.507.387.387,0,0,0-.507.21l-.664,1.6a3.444,3.444,0,0,0-1.053-.227,1.313,1.313,0,0,0-1.161-.708,1.318,1.318,0,0,0-1.317,1.317,1.318,1.318,0,0,0,1.317,1.317,1.315,1.315,0,0,0,1.3-1.133,1.52,1.52,0,0,1,.838.285c.014.017.026.033.013.089-.2.856-1.071,2.643-1.748,2.84a22.182,22.182,0,0,1-3.885-.462c-.579-.094-1.165-.189-1.724-.273a3.5,3.5,0,0,0,.041-.509,3.546,3.546,0,0,0-3.542-3.542,3.546,3.546,0,0,0-3.542,3.542,3.546,3.546,0,0,0,3.542,3.542,3.544,3.544,0,0,0,3.3-2.278c.579.087,1.191.186,1.8.283a30.667,30.667,0,0,0,3.765.489,1.734,1.734,0,0,0,.461-.047c1.146-.333,2.087-2.545,2.287-3.411a.863.863,0,0,0-.067-.6Zm-12.3,6.608a2.77,2.77,0,0,1-2.767-2.767,2.769,2.769,0,0,1,2.767-2.766,2.769,2.769,0,0,1,2.766,2.766A2.769,2.769,0,0,1,39.117-25.126Zm8.708-4.38a.542.542,0,0,1-.541-.541.542.542,0,0,1,.541-.541.542.542,0,0,1,.541.541A.542.542,0,0,1,47.825-29.506ZM21.88-31.233a3.6,3.6,0,0,0-1.077.164l-1.871-4.3a.385.385,0,0,0-.156-.178l-.854-.512a.383.383,0,0,0-.244-.053l-2.1.242a.388.388,0,0,0-.341.43.389.389,0,0,0,.43.341l1.966-.226.634.38,1.823,4.19a3.612,3.612,0,0,0-1.826,3.135,3.617,3.617,0,0,0,3.613,3.613,3.616,3.616,0,0,0,3.612-3.613A3.617,3.617,0,0,0,21.88-31.233Zm0,6.449a2.84,2.84,0,0,1-2.837-2.837A2.834,2.834,0,0,1,20.4-30.039l.455,1.046a1.71,1.71,0,0,0-.7,1.373A1.719,1.719,0,0,0,21.88-25.9,1.719,1.719,0,0,0,23.6-27.621a1.719,1.719,0,0,0-1.716-1.716,1.711,1.711,0,0,0-.311.031l-.454-1.044a2.828,2.828,0,0,1,.765-.107,2.84,2.84,0,0,1,2.837,2.837A2.84,2.84,0,0,1,21.88-24.784Zm-.7-3.465.34.783a.388.388,0,0,0,.356.233.388.388,0,0,0,.154-.032.388.388,0,0,0,.2-.51l-.341-.785a.941.941,0,0,1,.927.94.942.942,0,0,1-.941.941.942.942,0,0,1-.942-.941A.935.935,0,0,1,21.183-28.248Zm-9.359.6a.388.388,0,0,1-.094.541.387.387,0,0,1-.223.071.388.388,0,0,1-.318-.164,3.167,3.167,0,0,1-.4-1.577v-1.8a.388.388,0,0,1,.388-.388.388.388,0,0,1,.388.388v1.8A2.415,2.415,0,0,0,11.824-27.652Zm6.066-2.78a4.259,4.259,0,0,0,.488-2.981s0-.005-.005-.008-.005-.023-.01-.035a1.438,1.438,0,0,0-1.561-.976,6.912,6.912,0,0,0-.783.054c-.8.093-3.009.528-3.662,1.365-.686-.043-2.64-.168-3.189-.216-.081-.007-.2-.022-.345-.04a14.258,14.258,0,0,0-1.742-.14,2.206,2.206,0,0,0-1.738.51.947.947,0,0,0-.207.785.388.388,0,0,0,.32.323l1.421.235v.338c-.088-.007-.177-.014-.265-.014A3.617,3.617,0,0,0,3-27.621a3.617,3.617,0,0,0,3.613,3.613A3.613,3.613,0,0,0,9.832-25.99a15.179,15.179,0,0,0,1.58.08c.138,0,.257,0,.351.005h.016c.541.021,1.132.037,1.718.037a10.866,10.866,0,0,0,3.073-.3.388.388,0,0,0,.192-.156,13.573,13.573,0,0,0,1.431-3.372.769.769,0,0,0-.2-.656A.826.826,0,0,0,17.89-30.432Zm-10.809-2.2a13.675,13.675,0,0,1,1.645.134c.157.02.286.036.375.044.675.059,3.335.226,3.448.233a.393.393,0,0,0,.4-.277c.1-.328,1.679-.935,3.163-1.106,1.194-.138,1.36-.006,1.534.435.071.18-.428.738-1.01,1.142H8.776l-2.723-.45A2.422,2.422,0,0,1,7.082-32.635ZM9.835-29.17H7.654v-2.085H9.835v2.085ZM8.163-27.621A1.553,1.553,0,0,1,6.613-26.07a1.553,1.553,0,0,1-1.551-1.551,1.553,1.553,0,0,1,1.551-1.551,1.39,1.39,0,0,1,.265.026v.363a.388.388,0,0,0,.388.388H7.95A1.52,1.52,0,0,1,8.163-27.621ZM6.613-24.784a2.84,2.84,0,0,1-2.837-2.837,2.84,2.84,0,0,1,2.837-2.837c.088,0,.177,0,.265.012v.519a2.312,2.312,0,0,0-2.592,2.305,2.329,2.329,0,0,0,2.327,2.327,2.329,2.329,0,0,0,2.326-2.327,2.268,2.268,0,0,0-.138-.774h.54a2.791,2.791,0,0,1,.109.774A2.84,2.84,0,0,1,6.613-24.784ZM10.167-27l.042.035.3.251c-.13-.007-.262-.016-.4-.029C10.133-26.823,10.152-26.909,10.167-27Zm6.01.143a17.831,17.831,0,0,1-4.305.176,8.926,8.926,0,0,1-1.167-.881c-.174-.145-.34-.281-.5-.4a3.546,3.546,0,0,0-.072-.432h.086a.388.388,0,0,0,.388-.388v-2.473h6.14a.388.388,0,0,0,.212-.063,5.771,5.771,0,0,0,.631-.479,5.952,5.952,0,0,1-.425,1.075,4.268,4.268,0,0,0-.9-.052,1.611,1.611,0,0,0-1.067-.41,1.626,1.626,0,0,0-1.624,1.591,1.186,1.186,0,0,1-.459.192,1.276,1.276,0,0,0-.467.106v-.9h.21a.388.388,0,0,0,.388-.388.388.388,0,0,0-.388-.388h-.6a.388.388,0,0,0-.388.388v2.468a1.286,1.286,0,0,0,1.285,1.285H15.2a1.286,1.286,0,0,0,1.285-1.285,1.274,1.274,0,0,0-.06-.384,1.6,1.6,0,0,0,.4-1.06,1.6,1.6,0,0,0-.066-.431,1.147,1.147,0,0,1,.67.179A13.251,13.251,0,0,1,16.177-26.852Zm-.55-1.531a.5.5,0,0,1,.079.268.51.51,0,0,1-.509.509H13.158a.51.51,0,0,1-.509-.509.51.51,0,0,1,.509-.509.4.4,0,0,0,.072-.007c.187-.035,1.12-.246,1.12-.928a.849.849,0,0,1,.848-.848.849.849,0,0,1,.848.848.843.843,0,0,1-.329.664A.388.388,0,0,0,15.628-28.384ZM120.01-55.908a3.21,3.21,0,0,1-3.207-3.207,3.208,3.208,0,0,1,1.624-2.787l-.083-.2a3.427,3.427,0,0,0-1.063.93.388.388,0,0,1-.543.076.388.388,0,0,1-.076-.543,4.2,4.2,0,0,1,1.382-1.183l-1.381-3.311L115.6-66.77a.388.388,0,0,1-.133-.532.388.388,0,0,1,.532-.133l1.172.7a.386.386,0,0,1,.158.183l1.43,3.429a4.27,4.27,0,0,1,2.841.125.388.388,0,0,1,.211.506.388.388,0,0,1-.506.211,3.48,3.48,0,0,0-2.246-.122l.083.2a3.188,3.188,0,0,1,.868-.119,3.21,3.21,0,0,1,3.206,3.206A3.21,3.21,0,0,1,120.01-55.908Zm-1.281-5.271a2.431,2.431,0,0,0-1.149,2.065,2.434,2.434,0,0,0,2.431,2.431,2.433,2.433,0,0,0,2.43-2.431,2.434,2.434,0,0,0-2.431-2.431,2.456,2.456,0,0,0-.566.066l.118.282a2.143,2.143,0,0,1,.449-.048,2.132,2.132,0,0,1,2.13,2.13,2.133,2.133,0,0,1-2.13,2.131,2.133,2.133,0,0,1-2.13-2.131,2.13,2.13,0,0,1,.966-1.783Zm.424,1.017a1.352,1.352,0,0,0-.5,1.048,1.356,1.356,0,0,0,1.355,1.355,1.356,1.356,0,0,0,1.355-1.355,1.356,1.356,0,0,0-1.355-1.355,1.316,1.316,0,0,0-.142.007l.5,1.2a.388.388,0,0,1-.209.507.388.388,0,0,1-.507-.209Zm-15.187,4.254a3.21,3.21,0,0,1-3.207-3.207,3.21,3.21,0,0,1,3.207-3.206,3.2,3.2,0,0,1,1.056.178l.73-1.484h-1.218a7.561,7.561,0,0,0-1.374.111.434.434,0,0,1-.067.012,2.577,2.577,0,0,0-1.656.793.388.388,0,0,1-.538.109.388.388,0,0,1-.109-.537,2.445,2.445,0,0,1,1.2-.867l-.728-.375a.388.388,0,0,1-.167-.522.387.387,0,0,1,.523-.167l1.5.774c.171-.028.336-.048.49-.063l-.5-.464a.388.388,0,0,1-.028-.537c.1-.118,1-1.149,1.905-1.091a1.1,1.1,0,0,1,.865.53c.426.643,2.741.724,4.344.576,1.068-1.105,3.29-1.317,4.722-1.226a1.649,1.649,0,0,1,1.242.614,2.838,2.838,0,0,1,.372,2.015.387.387,0,0,1-.381.316h-9.534l-.9,1.827a3.224,3.224,0,0,1,1.244,1.54l2.264,1.232c.5.016,2.968.093,4.36.093,1.258,0,1.9-2.393,1.961-3.036a.832.832,0,0,0,0-.332,3.252,3.252,0,0,0-.763-.051l-1.57,2.719a.4.4,0,0,1-.672,0l-1.852-3.208a.387.387,0,0,1,0-.388.388.388,0,0,1,.336-.194h3.7a.387.387,0,0,1,.336.194.371.371,0,0,1,.041.105,1.343,1.343,0,0,1,1.021.311,1.14,1.14,0,0,1,.193.914c-.07.742-.774,3.739-2.734,3.739-1.561,0-4.449-.1-4.477-.1a.386.386,0,0,1-.172-.047l-1.767-.961c0,.049,0,.1,0,.148A3.21,3.21,0,0,1,103.965-55.908Zm0-5.637a2.434,2.434,0,0,0-2.431,2.431,2.434,2.434,0,0,0,2.431,2.431,2.434,2.434,0,0,0,2.431-2.431,2.429,2.429,0,0,0-1.025-1.982l-.309.629a1.741,1.741,0,0,1,.645,1.353,1.745,1.745,0,0,1-1.742,1.744,1.745,1.745,0,0,1-1.743-1.744,1.745,1.745,0,0,1,1.743-1.743,1.757,1.757,0,0,1,.4.047l.309-.629A2.43,2.43,0,0,0,103.965-61.545Zm0,1.464a.968.968,0,0,0-.967.967.969.969,0,0,0,.967.968.968.968,0,0,0,.967-.968.963.963,0,0,0-.228-.624l-.391.795a.387.387,0,0,1-.519.177.388.388,0,0,1-.177-.519l.391-.8Zm7.729-2.564,1.18,2.044,1.18-2.044ZM110.568-64.4H115.8a1.742,1.742,0,0,0-.255-1.082.875.875,0,0,0-.678-.315c-1.382-.087-3.345.15-4.147,1.039Zm-4.185,0h3.273q.017-.066.038-.129c-1.331.077-3.806.071-4.491-.963a.334.334,0,0,0-.268-.184,1.735,1.735,0,0,0-1.008.558l.767.718h1.687Zm4.415,5.069a.944.944,0,0,1-.944-.943.944.944,0,0,1,.944-.943.944.944,0,0,1,.944.943A.945.945,0,0,1,110.8-59.333Zm0-1.111a.168.168,0,0,0-.168.168.168.168,0,0,0,.168.168.168.168,0,0,0,.168-.168A.168.168,0,0,0,110.8-60.444Zm-2.089,0c-1.31,0-1.659-1.628-1.659-2.59a.388.388,0,0,1,.388-.388h2.543a.388.388,0,0,1,.388.388C110.367-62.072,110.018-60.444,108.708-60.444Zm-.856-2.2c.061.533.252,1.427.856,1.427s.795-.893.855-1.427Zm11.611-1.434a1.248,1.248,0,0,1-1.246-1.246,1.248,1.248,0,0,1,1.246-1.246.388.388,0,0,1,.388.388v1.718A.387.387,0,0,1,119.463-64.08Zm-.388-1.513a.468.468,0,0,0-.083.267.469.469,0,0,0,.083.267Zm-1.17-.477a.386.386,0,0,1-.285-.125.388.388,0,0,1,.022-.548l.7-.645a.387.387,0,0,1,.548.022.388.388,0,0,1-.022.548l-.7.645A.388.388,0,0,1,117.905-66.07ZM87.431-63.562a3.192,3.192,0,0,0-1.236.248l-2.5-4.4a.388.388,0,0,0-.337-.2h-.591a.388.388,0,0,0-.388.388.388.388,0,0,0,.388.388h.365l2.388,4.2a3.2,3.2,0,0,0-1.3,2.576,3.215,3.215,0,0,0,3.211,3.211,3.215,3.215,0,0,0,3.211-3.211A3.214,3.214,0,0,0,87.431-63.562Zm0,5.646A2.438,2.438,0,0,1,85-60.351a2.429,2.429,0,0,1,.912-1.9l.349.615a1.736,1.736,0,0,0-.571,1.282,1.747,1.747,0,0,0,1.745,1.745,1.747,1.747,0,0,0,1.745-1.745A1.747,1.747,0,0,0,87.431-62.1a1.718,1.718,0,0,0-.5.081l-.349-.616a2.419,2.419,0,0,1,.848-.156,2.438,2.438,0,0,1,2.435,2.435A2.438,2.438,0,0,1,87.431-57.916Zm-.774-3.014.437.769a.386.386,0,0,0,.337.2.389.389,0,0,0,.191-.05.388.388,0,0,0,.145-.529l-.436-.768a.937.937,0,0,1,.1-.01.971.971,0,0,1,.969.969.971.971,0,0,1-.969.969.971.971,0,0,1-.969-.969A.96.96,0,0,1,86.657-60.929ZM86-65.557a.388.388,0,0,0,.388-.388v-1.8A.388.388,0,0,0,86-68.132a1.289,1.289,0,0,0-1.287,1.287A1.289,1.289,0,0,0,86-65.557Zm-.388-1.621v.667a.51.51,0,0,1-.124-.334A.51.51,0,0,1,85.611-67.178Zm-3.33.247H77.554a1.071,1.071,0,0,0-.8.341,2.33,2.33,0,0,0-.486,1.406c-.815-.057-2.735-.2-4.211-.311l-.167-.724a.388.388,0,0,0-.336-.3l-1.644-.18a.384.384,0,0,0-.317.112.388.388,0,0,0-.11.318,2.431,2.431,0,0,1-.875,2.079.388.388,0,0,0-.078.543.387.387,0,0,0,.311.155.386.386,0,0,0,.232-.078,3.073,3.073,0,0,0,1.186-2.312l.938.1.169.733a.387.387,0,0,0,.349.3l1.242.093L72.37-63.4a3.194,3.194,0,0,0-1.009-.165,3.215,3.215,0,0,0-3.211,3.211,3.215,3.215,0,0,0,3.211,3.211,3.215,3.215,0,0,0,3.132-2.514c.637.019,2.112.057,3.6.057,1.095,0,2.193-.021,2.963-.085,1.861-.155,2.223-3.57,2.293-4.737a.385.385,0,0,0,.228-.351.4.4,0,0,0-.011-.094C83.522-65.453,83.118-66.931,82.281-66.931Zm-4.958.873a.292.292,0,0,1,.232-.1l4.7,0a1.985,1.985,0,0,1,.484,1H77.047A1.618,1.618,0,0,1,77.323-66.058ZM71.36-57.916a2.438,2.438,0,0,1-2.435-2.435,2.438,2.438,0,0,1,2.435-2.435,2.423,2.423,0,0,1,.675.1l-.385.816a1.551,1.551,0,0,0-.29-.029,1.553,1.553,0,0,0-1.551,1.551A1.553,1.553,0,0,0,71.36-58.8a1.553,1.553,0,0,0,1.551-1.551,1.542,1.542,0,0,0-.563-1.185l.388-.822A2.434,2.434,0,0,1,73.8-60.352,2.438,2.438,0,0,1,71.36-57.916Zm.776-2.435a.776.776,0,0,1-.776.776.776.776,0,0,1-.776-.776.774.774,0,0,1,.71-.769l-.285.6A.388.388,0,0,0,71.2-60a.387.387,0,0,0,.165.037.388.388,0,0,0,.351-.222L72-60.792A.772.772,0,0,1,72.136-60.351Zm8.854-.1c-1.722.143-5.271.06-6.423.027a3.209,3.209,0,0,0-1.5-2.636l.719-1.524c1.379.1,2.783.206,2.866.206h5.911C82.475-63.077,82.077-60.546,80.99-60.456ZM81.9-63.9a.389.389,0,0,0-.339-.2H77.75a.388.388,0,0,0-.388.388v.576a1.266,1.266,0,0,0-.5.292,7.682,7.682,0,0,0-1.026-.058c-.124,0-.231,0-.311,0h-.105a.971.971,0,0,0-.969.969.971.971,0,0,0,.969.969h.1l.275,0a7.949,7.949,0,0,0,1.065-.06,1.272,1.272,0,0,0,.889.362,1.275,1.275,0,0,0,1.274-1.274,1.272,1.272,0,0,0-.886-1.207v-.189h1.043l.346.554a1.272,1.272,0,0,0-.322.842,1.275,1.275,0,0,0,1.274,1.274,1.276,1.276,0,0,0,1.274-1.274,1.272,1.272,0,0,0-.322-.842l.461-.736A.388.388,0,0,0,81.9-63.9Zm-4.152,2.47a.5.5,0,0,1-.414-.221.387.387,0,0,0-.321-.171.4.4,0,0,0-.074.007,6.271,6.271,0,0,1-1.145.084l-.373,0a.194.194,0,0,1-.194-.194.194.194,0,0,1,.194-.194l.119,0c.077,0,.179,0,.3,0a6.1,6.1,0,0,1,1.1.081.388.388,0,0,0,.394-.162.5.5,0,0,1,.412-.218.5.5,0,0,1,.5.5A.5.5,0,0,1,77.749-61.434Zm2.729,0a.5.5,0,0,1-.5-.5.493.493,0,0,1,.25-.428.389.389,0,0,0,.181-.242.388.388,0,0,0-.048-.3l-.267-.428h.767L80.6-62.9a.387.387,0,0,0-.048.3.387.387,0,0,0,.181.242.493.493,0,0,1,.249.427A.5.5,0,0,1,80.479-61.434ZM54.856-64.044a3.186,3.186,0,0,0-1.391.321l-2.194-3.425a.388.388,0,0,0-.182-.151l-.809-.324a.388.388,0,0,0-.5.216.387.387,0,0,0,.216.5l.694.278,2.125,3.318a3.206,3.206,0,0,0-1.166,2.473,3.214,3.214,0,0,0,3.211,3.211,3.215,3.215,0,0,0,3.211-3.211A3.215,3.215,0,0,0,54.856-64.044Zm0,5.646a2.438,2.438,0,0,1-2.435-2.435,2.427,2.427,0,0,1,.814-1.812l.487.761a1.541,1.541,0,0,0-.417,1.051,1.553,1.553,0,0,0,1.551,1.551,1.553,1.553,0,0,0,1.551-1.551,1.553,1.553,0,0,0-1.551-1.551,1.525,1.525,0,0,0-.48.084l-.49-.765a2.423,2.423,0,0,1,.97-.2,2.438,2.438,0,0,1,2.435,2.435A2.438,2.438,0,0,1,54.856-58.4Zm-.687-2.789.36.562a.387.387,0,0,0,.327.178.386.386,0,0,0,.209-.061.387.387,0,0,0,.117-.536l-.361-.563c.012,0,.022,0,.034,0a.776.776,0,0,1,.776.776.776.776,0,0,1-.776.776.776.776,0,0,1-.776-.776A.77.77,0,0,1,54.169-61.187Zm-1.845-5.06a1.119,1.119,0,0,1,1.118-1.118.388.388,0,0,1,.388.388v1.46a.388.388,0,0,1-.388.388A1.119,1.119,0,0,1,52.324-66.247ZM43.3-63.33a8.242,8.242,0,0,0,2.659-.645l3.5-.167a.388.388,0,0,0,.37-.387v-1.89a.388.388,0,0,0-.388-.388,5.3,5.3,0,0,0-3.805,2.127c-1.265.5-2.581.733-2.8.486a.388.388,0,0,0-.547-.038.388.388,0,0,0-.038.547A1.343,1.343,0,0,0,43.3-63.33Zm5.752-2.675V-64.9l-2.267.108A4.291,4.291,0,0,1,49.051-66.005Zm1.933.38a.387.387,0,0,0-.491.245l-.767,2.3-.742-.591a.385.385,0,0,0-.287-.081c-.006,0-.01,0-.016,0H46.329a.378.378,0,0,0-.062.012.367.367,0,0,0-.061.008l-3.52,1.182a4.27,4.27,0,0,0-3.9-2.547.388.388,0,0,0-.388.388.388.388,0,0,0,.388.388,3.492,3.492,0,0,1,3.161,2.02l-.266.089a3.212,3.212,0,0,0-2.894-1.83,3.214,3.214,0,0,0-3.211,3.211,3.214,3.214,0,0,0,3.211,3.211,3.209,3.209,0,0,0,2.7-1.486l.9.43a.392.392,0,0,0,.168.038h6.229a.388.388,0,0,0,.368-.265l2.077-6.23A.388.388,0,0,0,50.984-65.625Zm-2.7,2.647.012.785h-.012a.388.388,0,0,0-.388.388v.864h-.776v-.864a.388.388,0,0,0-.388-.388l-.012-.785ZM45.94-60.941a.982.982,0,0,0-.757-.579l-.349-.935,1.108-.372v1.022a.388.388,0,0,0,.388.388l.007.476Zm-.9.182a.206.206,0,0,1,.206.206.206.206,0,0,1-.206.206.206.206,0,0,1-.206-.206A.206.206,0,0,1,45.04-60.759ZM38.786-58.4a2.438,2.438,0,0,1-2.435-2.435,2.438,2.438,0,0,1,2.435-2.435,2.437,2.437,0,0,1,2.154,1.3l-.485.163a1.932,1.932,0,0,0-1.669-.969,1.941,1.941,0,0,0-1.939,1.939,1.941,1.941,0,0,0,1.939,1.939,1.93,1.93,0,0,0,1.538-.772l.46.221A2.434,2.434,0,0,1,38.786-58.4Zm2.435-2.436a2.421,2.421,0,0,1-.1.689l-.46-.22a1.907,1.907,0,0,0,.064-.468,1.933,1.933,0,0,0-.024-.234l.485-.162A2.425,2.425,0,0,1,41.221-60.834Zm-2.6.35.988.473a1.159,1.159,0,0,1-.821.34,1.165,1.165,0,0,1-1.163-1.163A1.165,1.165,0,0,1,38.786-62a1.158,1.158,0,0,1,.911.448l-1.034.347a.388.388,0,0,0-.264.344A.387.387,0,0,0,38.618-60.484Zm1.2-.286.132-.044c0,.035-.007.068-.01.1ZM48.5-59.415H42.643l-.817-.392A3.193,3.193,0,0,0,42-60.833a3.2,3.2,0,0,0-.066-.647l.265-.089a3.484,3.484,0,0,1,.079.736.388.388,0,0,0,.388.388.388.388,0,0,0,.388-.388,4.238,4.238,0,0,0-.119-.983l1.166-.391.332.89a.975.975,0,0,0-.373.764.983.983,0,0,0,.982.982.982.982,0,0,0,.9-.594h2.341a.388.388,0,0,0,.388-.388v-.864h.012a.388.388,0,0,0,.388-.388v-.805l.4.315ZM22.281-62.321a3.192,3.192,0,0,0-1.834.579l-1.54-1.721L16.774-67.3l-.423-1.269a.387.387,0,0,0-.219-.235.387.387,0,0,0-.322.011l-1.737.869a.388.388,0,0,0-.173.52.388.388,0,0,0,.52.173l1.338-.669.293.879a.366.366,0,0,0,.029.066l2.172,3.909a.385.385,0,0,0,.05.07l1.569,1.754a3.193,3.193,0,0,0-.8,2.113A3.214,3.214,0,0,0,22.281-55.9a3.215,3.215,0,0,0,3.211-3.211A3.214,3.214,0,0,0,22.281-62.321Zm0,5.646a2.438,2.438,0,0,1-2.435-2.435,2.424,2.424,0,0,1,.544-1.532l.506.566a1.678,1.678,0,0,0-.307.966,1.693,1.693,0,0,0,1.691,1.691,1.693,1.693,0,0,0,1.691-1.691,1.692,1.692,0,0,0-1.691-1.69,1.671,1.671,0,0,0-.8.212l-.51-.569a2.418,2.418,0,0,1,1.312-.387,2.438,2.438,0,0,1,2.435,2.435A2.437,2.437,0,0,1,22.281-56.675Zm-.289-2.177a.386.386,0,0,0,.289.129.387.387,0,0,0,.259-.1.388.388,0,0,0,.03-.548l-.55-.614a.9.9,0,0,1,.26-.042.916.916,0,0,1,.915.915.916.916,0,0,1-.915.915.916.916,0,0,1-.915-.915.909.909,0,0,1,.074-.359Zm-3.075-5.625h.991a.388.388,0,0,0,.388-.388v-1.559a.388.388,0,0,0-.388-.388h-1a.387.387,0,0,0-.275.114.391.391,0,0,0-.113.275l.007,1.559A.388.388,0,0,0,18.917-64.477Zm.6-1.559v.783H19.3l0-.783ZM17.939-60.4l-1.124-.688a1.529,1.529,0,0,0-1.5-1.253,1.5,1.5,0,0,0-.634.143l-.037.013L9.465-60.029a.388.388,0,0,0-.231.434.388.388,0,0,0,.38.312h5.7c.022,0,.043,0,.045,0a.38.38,0,0,0,.07-.007,1.524,1.524,0,0,0,1.3-.941l.621.38v1.1l-2.461,1.291h-5.7l-.41-.331c.024-.062.048-.124.069-.188h5.989a.388.388,0,0,0,.388-.388.388.388,0,0,0-.388-.388H8.981c0-.046.007-.091.007-.137a3,3,0,0,0-2.994-2.994c-.089,0-.176.006-.264.013l-.642-5.862a.39.39,0,0,0-.066-.178l-.89-1.293a.388.388,0,0,0-.539-.1.388.388,0,0,0-.1.539l.835,1.212L4.969-61.7A3,3,0,0,0,3-58.893,3,3,0,0,0,5.994-55.9a2.988,2.988,0,0,0,2.4-1.207l.414.334a.387.387,0,0,0,.244.086h5.935a.387.387,0,0,0,.18-.044l2.754-1.445a.388.388,0,0,0,.207-.344v-1.551A.388.388,0,0,0,17.939-60.4Zm-2.6.338-.033,0H11.556l3.327-1.385a.386.386,0,0,0,.088-.033.752.752,0,0,1,1.1.665A.75.75,0,0,1,15.342-60.062ZM5.994-56.675a2.221,2.221,0,0,1-2.218-2.218,2.221,2.221,0,0,1,2.218-2.218,2.221,2.221,0,0,1,2.218,2.218,2.215,2.215,0,0,1-.08.582L7.893-58.5a1.946,1.946,0,0,0,.04-.389,1.941,1.941,0,0,0-1.939-1.939,1.941,1.941,0,0,0-1.939,1.939,1.941,1.941,0,0,0,1.939,1.939,1.934,1.934,0,0,0,1.574-.816l.219.177A2.215,2.215,0,0,1,5.994-56.675Zm-.147-2.484,1.119.9a1.162,1.162,0,0,1-.971.527A1.165,1.165,0,0,1,4.83-58.892a1.165,1.165,0,0,1,1.163-1.163,1.164,1.164,0,0,1,1.141.94l-.8-.646a.388.388,0,0,0-.545.058A.388.388,0,0,0,5.846-59.158Zm.475-3.24a2.914,2.914,0,0,1,1.561.532,2.951,2.951,0,0,0,1.882.615,6.636,6.636,0,0,0,3.057-.931l3.719-.961a.388.388,0,0,0,.28-.283,2.39,2.39,0,0,0-.2-1.78,1.024,1.024,0,0,0-.844-.387,1.664,1.664,0,0,0-.3.028c-1.381.25-2.774,2.255-3.089,2.734-.408.235-2.662,1.444-4.032.358a3.66,3.66,0,0,0-1.972-.7.386.386,0,0,0-.422.351A.389.389,0,0,0,6.322-62.4Zm9.3-2.4a.9.9,0,0,1,.157-.016.259.259,0,0,1,.233.09,1.4,1.4,0,0,1,.1.9l-2.489.643A4.378,4.378,0,0,1,15.623-64.8Z" transform="translate(6581.164 2081.228)"/>
  </g>
</svg>
