<svg xmlns="http://www.w3.org/2000/svg" width="28.303" height="16.6" viewBox="0 0 28.303 16.6">
  <path id="Union_8" data-name="Union 8" d="M13563.539,17319.1a4.522,4.522,0,0,1,1.347-3.252l-.472-.689a4.969,4.969,0,0,0-1.549,3.594h-1.01l-.742,1.66a.668.668,0,0,1-.607.414h-8.086a4.511,4.511,0,1,1,.339-1.727c0,.1-.034.24-.034.344h3.4a1.643,1.643,0,0,1-1.346-.691h-1.011a1.037,1.037,0,0,1,0-2.074h1.011a1.7,1.7,0,1,1,1.346,2.766h3.944l1.212-2.8a.12.12,0,0,1-.1.035h-.336v.691a.686.686,0,0,1-.675.691v.346a.323.323,0,0,1-.337.346h-.675a.321.321,0,0,1-.335-.346v-.346a.686.686,0,0,1-.676-.691v-.691h-.337a.346.346,0,0,1,0-.691h.337v-.691h-.337a.347.347,0,0,1,0-.693h.337a.684.684,0,0,1,.676-.689h-3.705a.325.325,0,0,1-.339-.35c0-2.072,2.663-3.768,5.962-3.8l-.943-1.383h-1.685a.692.692,0,0,1,0-1.383h2.022a.741.741,0,0,1,.539.311l1.986,2.941a2.521,2.521,0,0,1,2.191-1.037c.37,0,.673.725.673,1.66,0,.9-.3,1.658-.673,1.658a3.76,3.76,0,0,1-.641-.07l.539.795a6.1,6.1,0,0,1,2.829-.725v1.385a4.492,4.492,0,0,0-2.021.48l.438.66a4.486,4.486,0,0,1,1.92-.451h0a4.5,4.5,0,1,1-4.38,4.5Zm-18.194,0a3.022,3.022,0,0,0,5.561,1.727h-4.886v-1.383h.708a1.251,1.251,0,0,1-.032-.344,1.684,1.684,0,1,1,3.366,0,1.216,1.216,0,0,1-.033.344h1.348a1.151,1.151,0,0,0,.035-.344,3.034,3.034,0,1,0-6.066,0Zm19.541,0a3.093,3.093,0,1,0,1.887-2.869l.808,1.172a1.169,1.169,0,0,1,.337-.033,1.729,1.729,0,1,1-1.684,1.73,1.976,1.976,0,0,1,.237-.9l-.811-1.176A3.207,3.207,0,0,0,13564.886,17319.1Zm-4.041-3.113h.336a.347.347,0,0,1,.3.205l1.412-3.25-.2-.311a1.988,1.988,0,0,1-1.852,1.281h-.675a.685.685,0,0,1,.675.689h.336a.347.347,0,0,1,0,.693h-.336Zm-1.687-4.15a1.348,1.348,0,1,0,1.348-1.385A1.369,1.369,0,0,0,13559.158,17311.84Zm-6.4,4.15a.693.693,0,0,1,0-1.385h1.347a.693.693,0,0,1,0,1.385Zm-5.057-2.074a1.384,1.384,0,0,1,0-2.768h5.394a1.384,1.384,0,0,1,0,2.768Zm12.131-2.076a.674.674,0,1,1,.673.691A.682.682,0,0,1,13559.833,17311.84Z" transform="translate(-13543.997 -17306.998)" fill="#da291c"/>
</svg>
