<svg xmlns="http://www.w3.org/2000/svg" width="19.513" height="20.871" viewBox="0 0 19.513 20.871">
  <g id="Group_14595" data-name="Group 14595" transform="translate(-234.022 -624.815)">
    <path id="map" d="M21.971,3l-.173.025-5.789,1.7L9.5,3,3.39,4.559c-.228.057-.39.205-.39.394V17.361c0,.23.238.41.542.41l.173-.025,5.789-1.7,6.5,1.723,6.114-1.559c.228-.057.39-.205.39-.394V3.41C22.513,3.181,22.275,3,21.971,3ZM16.009,16.13,9.5,14.4V4.641l6.5,1.732Z" transform="translate(231.022 627.915)" fill="#da291c"/>
    <path id="location_on" d="M9.27,2A4.267,4.267,0,0,0,5,6.27c0,3.2,4.27,7.93,4.27,7.93s4.27-4.727,4.27-7.93A4.267,4.267,0,0,0,9.27,2Zm0,5.795A1.525,1.525,0,1,1,10.795,6.27,1.525,1.525,0,0,1,9.27,7.795Z" transform="translate(234.509 622.815)" fill="#da291c"/>
  </g>
</svg>
