<svg xmlns="http://www.w3.org/2000/svg" width="24" height="24" viewBox="0 0 24 24">
  <path id="_41_Setting_Construction_Engine_Engineering" data-name="41 Setting, Construction, Engine, Engineering" d="M18.794,16.977,17.817,16l.857-.857a2.571,2.571,0,0,0,2.469-.66,2.833,2.833,0,0,0,.7-2.88.428.428,0,0,0-.7-.15l-.6.609a.43.43,0,1,1-.609-.609l.617-.6a.429.429,0,0,0-.15-.7,2.824,2.824,0,0,0-3.176,1.05,2.6,2.6,0,0,0-.373,2.143l-.857.857-.857-.857a2.571,2.571,0,0,0-.651-2.49,2.833,2.833,0,0,0-2.88-.7.429.429,0,0,0-.15.7l.609.6a.43.43,0,1,1-.609.609l-.6-.617a.428.428,0,0,0-.7.15,2.82,2.82,0,0,0,1.054,3.176,2.571,2.571,0,0,0,2.143.369l.857.857-.977.973a2.571,2.571,0,0,0-3.06,3.429.428.428,0,0,0,.7.15l.48-.484a.43.43,0,1,1,.609.609l-.51.463a.429.429,0,0,0,.15.7,2.636,2.636,0,0,0,.934.176,2.571,2.571,0,0,0,2.486-3.236L16,17.817l.973.977a2.571,2.571,0,0,0,2.49,3.236,2.636,2.636,0,0,0,.934-.176.429.429,0,0,0,.15-.7l-.484-.48a.43.43,0,1,1,.609-.609l.471.484a.428.428,0,0,0,.7-.15,2.571,2.571,0,0,0-3.06-3.429ZM13.75,14.359a.429.429,0,0,0-.459-.1,1.714,1.714,0,0,1-1.577-.18,2.079,2.079,0,0,1-.857-1.4,1.316,1.316,0,0,0,1.8,0,1.286,1.286,0,0,0,.034-1.826,2.186,2.186,0,0,1,1.187.579,1.714,1.714,0,0,1,.381,1.839.429.429,0,0,0,.094.459L15.4,14.77l-.609.609Zm.48,4.016a.429.429,0,0,0-.094.459,1.714,1.714,0,0,1-.381,1.839,1.744,1.744,0,0,1-1.114.5,1.289,1.289,0,0,0-1.809-1.813,1.714,1.714,0,0,1,2.336-1.5.429.429,0,0,0,.459-.1l4.016-4.016a.429.429,0,0,0,.1-.459,1.714,1.714,0,0,1,.18-1.573,2.07,2.07,0,0,1,1.4-.857,1.286,1.286,0,0,0,0,1.8,1.316,1.316,0,0,0,1.791.026,2.186,2.186,0,0,1-.579,1.187,1.714,1.714,0,0,1-1.839.381.429.429,0,0,0-.459.094Zm5.229,1.084a1.286,1.286,0,0,0-.1,1.714,1.707,1.707,0,0,1-1.5-2.336.429.429,0,0,0-.1-.459L16.6,17.217l.609-.609,1.161,1.166a.429.429,0,0,0,.459.094,1.714,1.714,0,0,1,1.839.381,1.744,1.744,0,0,1,.5,1.114,1.32,1.32,0,0,0-1.71.094Zm7.256-6.03H24.927a.429.429,0,0,1-.4-.283,9.4,9.4,0,0,0-.48-1.157.429.429,0,0,1,.094-.484l1.286-1.286a1.26,1.26,0,0,0,.377-.909,1.286,1.286,0,0,0-.377-.909L23.611,6.584a1.286,1.286,0,0,0-1.817,0L20.5,7.857a.429.429,0,0,1-.484.081,9.4,9.4,0,0,0-1.157-.48.429.429,0,0,1-.283-.4V5.286A1.286,1.286,0,0,0,17.286,4H14.714a1.286,1.286,0,0,0-1.286,1.286V7.073a.429.429,0,0,1-.283.4,9.4,9.4,0,0,0-1.157.48.429.429,0,0,1-.484-.094L10.219,6.593a1.286,1.286,0,0,0-1.817,0L6.584,8.41a1.286,1.286,0,0,0-.377.909,1.26,1.26,0,0,0,.377.909l1.264,1.286A.429.429,0,0,1,7.93,12a9.4,9.4,0,0,0-.48,1.157.429.429,0,0,1-.4.283H5.286A1.286,1.286,0,0,0,4,14.723v2.571A1.286,1.286,0,0,0,5.286,18.58H7.073a.429.429,0,0,1,.4.283,9.4,9.4,0,0,0,.48,1.157.429.429,0,0,1-.094.476L6.593,21.76a1.26,1.26,0,0,0-.377.909,1.286,1.286,0,0,0,.377.909L8.41,25.394a1.286,1.286,0,0,0,1.817,0l1.286-1.286A.429.429,0,0,1,12,24.027a9.4,9.4,0,0,0,1.157.48.429.429,0,0,1,.283.4v1.809A1.286,1.286,0,0,0,14.723,28h2.571a1.286,1.286,0,0,0,1.286-1.286V24.927a.429.429,0,0,1,.283-.4,9.4,9.4,0,0,0,1.157-.48.429.429,0,0,1,.484.081l1.264,1.286a1.286,1.286,0,0,0,1.817,0L25.4,23.6a1.286,1.286,0,0,0,.377-.909,1.26,1.26,0,0,0-.377-.909l-1.286-1.264a.429.429,0,0,1-.081-.484,9.4,9.4,0,0,0,.48-1.157.429.429,0,0,1,.4-.283h1.8A1.286,1.286,0,0,0,28,17.307V14.714A1.286,1.286,0,0,0,26.714,13.429Zm.429,3.857a.429.429,0,0,1-.429.429H24.927a1.286,1.286,0,0,0-1.213.857,8.318,8.318,0,0,1-.429,1.05,1.286,1.286,0,0,0,.244,1.47l1.264,1.286a.429.429,0,0,1,0,.6L22.973,24.8a.429.429,0,0,1-.6,0l-1.286-1.264a1.286,1.286,0,0,0-1.453-.253,8.318,8.318,0,0,1-1.059.429,1.286,1.286,0,0,0-.857,1.213v1.787a.429.429,0,0,1-.429.429H14.714a.429.429,0,0,1-.429-.429V24.927a1.286,1.286,0,0,0-.857-1.213,8.529,8.529,0,0,1-1.046-.429,1.26,1.26,0,0,0-.566-.133,1.286,1.286,0,0,0-.9.377L9.627,24.794a.429.429,0,0,1-.6,0L7.2,22.973a.429.429,0,0,1,0-.6l1.264-1.286a1.286,1.286,0,0,0,.249-1.453,8.529,8.529,0,0,1-.429-1.059,1.286,1.286,0,0,0-1.213-.857H5.286a.429.429,0,0,1-.429-.429V14.714a.429.429,0,0,1,.429-.429H7.073a1.286,1.286,0,0,0,1.213-.857,8.319,8.319,0,0,1,.429-1.05,1.286,1.286,0,0,0-.244-1.47L7.206,9.623a.429.429,0,0,1,0-.6L9.027,7.2a.429.429,0,0,1,.6,0l1.286,1.264a1.286,1.286,0,0,0,1.47.244,8.319,8.319,0,0,1,1.041-.42,1.286,1.286,0,0,0,.857-1.213V5.286a.429.429,0,0,1,.429-.429h2.571a.429.429,0,0,1,.429.429V7.073a1.286,1.286,0,0,0,.857,1.213,8.528,8.528,0,0,1,1.046.429,1.286,1.286,0,0,0,1.47-.244l1.286-1.264a.429.429,0,0,1,.6,0L24.8,9.027a.429.429,0,0,1,0,.6l-1.264,1.286a1.286,1.286,0,0,0-.249,1.453,8.529,8.529,0,0,1,.429,1.059,1.286,1.286,0,0,0,1.213.857h1.787a.429.429,0,0,1,.429.429Z" transform="translate(-4 -4)" fill="#fff"/>
</svg>
