<svg xmlns="http://www.w3.org/2000/svg" xmlns:xlink="http://www.w3.org/1999/xlink" width="1366" height="415" viewBox="0 0 1366 415">
  <defs>
    <clipPath id="clip-path">
      <rect id="Rectangle_5331" data-name="Rectangle 5331" width="1366" height="415" transform="translate(0 352)" fill="none" stroke="#707070" stroke-width="1"/>
    </clipPath>
  </defs>
  <g id="Mask_Group_37" data-name="Mask Group 37" transform="translate(0 -352)" clip-path="url(#clip-path)">
    <g id="Group_17808" data-name="Group 17808">
      <path id="Union_13" data-name="Union 13" d="M-18635,19940v-254h999v-21a5,5,0,0,1,5-5h27a5,5,0,0,1,5,5v21h6.082a6.194,6.194,0,0,1-.082-1v-29a6,6,0,0,1,6-6h1a6,6,0,0,1,6,6v29a5.979,5.979,0,0,1-.084,1H-17269v254Z" transform="translate(18635 -19173)" fill="#0d0d0d"/>
      <path id="Subtraction_7" data-name="Subtraction 7" d="M-18349,19782h-265a133.215,133.215,0,0,1,2.777-26.615,131.6,131.6,0,0,1,7.771-24.785,132.431,132.431,0,0,1,12.24-22.422,133.348,133.348,0,0,1,16.182-19.531,133.26,133.26,0,0,1,19.59-16.113,132.245,132.245,0,0,1,22.471-12.164,131.472,131.472,0,0,1,24.822-7.686,133.3,133.3,0,0,1,26.645-2.682,133.333,133.333,0,0,1,26.645,2.682,131.56,131.56,0,0,1,24.822,7.686,132.393,132.393,0,0,1,22.471,12.164,133.349,133.349,0,0,1,19.59,16.113,133.3,133.3,0,0,1,16.18,19.531,132.4,132.4,0,0,1,12.242,22.422,131.6,131.6,0,0,1,7.771,24.785A133.113,133.113,0,0,1-18349,19782v0h0Z" transform="translate(19129 -19269)" fill="#d65950" opacity="0.2"/>
      <path id="Subtraction_6" data-name="Subtraction 6" d="M-18463.02,19679h-59.965a29.814,29.814,0,0,1,9.1-20.537A29.849,29.849,0,0,1-18493,19650a29.838,29.838,0,0,1,20.879,8.461,29.81,29.81,0,0,1,9.1,20.535v0h0Z" transform="translate(19141 -19166)" fill="#da291c" opacity="0.7"/>
      <rect id="Rectangle_4721" data-name="Rectangle 4721" width="59" height="4" rx="2" transform="translate(520 454)" fill="#fff"/>
      <rect id="Rectangle_4724" data-name="Rectangle 4724" width="32" height="4" rx="2" transform="translate(745 467)" fill="#fff"/>
      <rect id="Rectangle_4725" data-name="Rectangle 4725" width="77" height="4" rx="2" transform="translate(703 484)" fill="#fff"/>
      <rect id="Rectangle_4722" data-name="Rectangle 4722" width="14" height="4" rx="2" transform="translate(589 454)" fill="#fff"/>
      <rect id="Rectangle_4723" data-name="Rectangle 4723" width="11" height="4" rx="2" transform="translate(727 467)" fill="#fff"/>
      <path id="Rectangle_4731" data-name="Rectangle 4731" d="M12,0h0A12,12,0,0,1,24,12V118a0,0,0,0,1,0,0H0a0,0,0,0,1,0,0V12A12,12,0,0,1,12,0Z" transform="translate(1172 428)" fill="#13b21f"/>
      <path id="Union_10" data-name="Union 10" d="M7.5,45.5A7.5,7.5,0,0,1,.047,38.847,3.778,3.778,0,0,1,0,38.25V7.5a7.5,7.5,0,0,1,15,0v23H32v15Z" transform="translate(1148 470)" fill="#13b21f"/>
      <path id="Rectangle_4738" data-name="Rectangle 4738" d="M0,0H1A11,11,0,0,1,12,11V118a0,0,0,0,1,0,0H0a0,0,0,0,1,0,0V0A0,0,0,0,1,0,0Z" transform="translate(1184 428)" fill="#069b3d"/>
      <rect id="Rectangle_4740" data-name="Rectangle 4740" width="6" height="17" transform="translate(1177 500)" fill="#13b21f"/>
      <path id="Rectangle_4735" data-name="Rectangle 4735" d="M14.5,0h0A14.5,14.5,0,0,1,29,14.5V194a0,0,0,0,1,0,0H0a0,0,0,0,1,0,0V14.5A14.5,14.5,0,0,1,14.5,0Z" transform="translate(1247 352)" fill="#13b21f"/>
      <path id="Union_11" data-name="Union 11" d="M7.5,61.5A7.5,7.5,0,0,1,0,54q0-.38.037-.75Q0,52.88,0,52.5V7.5a7.5,7.5,0,0,1,15,0v39H36v15Z" transform="translate(1217 378)" fill="#13b21f"/>
      <path id="Rectangle_4739" data-name="Rectangle 4739" d="M0,0H0A15,15,0,0,1,15,15V192a0,0,0,0,1,0,0H0a0,0,0,0,1,0,0V0A0,0,0,0,1,0,0Z" transform="translate(1261 352)" fill="#069b3d"/>
      <path id="Union_12" data-name="Union 12" d="M2,49.5a9,9,0,0,1-9-9V7.5q0-.248.013-.493Q-7,6.755-7,6.5A9.5,9.5,0,0,1,2.5-3H32V16H12V40.5a9,9,0,0,1-9,9Z" transform="translate(1301 473) rotate(180)" fill="#069b3d"/>
      <rect id="Rectangle_4741" data-name="Rectangle 4741" width="7" height="17" transform="translate(1250 423)" fill="#13b21f"/>
      <rect id="Rectangle_4742" data-name="Rectangle 4742" width="6" height="23" transform="translate(1266 456)" fill="#069b3d"/>
      <path id="Path_4641" data-name="Path 4641" d="M4.27,0H5.337C7.7,0,9.607,1.589,9.607,3.55V33.968c0,4.411-4.2,7.782-9.5,7.782L0,3.55C0,1.589,1.912,0,4.27,0Z" transform="translate(1298.615 465.25) rotate(180)" fill="#13b21f"/>
      <path id="Rectangle_4744" data-name="Rectangle 4744" d="M4,0h.615a4,4,0,0,1,4,4V40a0,0,0,0,1,0,0H0a0,0,0,0,1,0,0V4A4,4,0,0,1,4,0Z" transform="translate(1298.615 456.635) rotate(90)" fill="#13b21f"/>
      <path id="Rectangle_4745" data-name="Rectangle 4745" d="M1.5,0H9A0,0,0,0,1,9,0V3A0,0,0,0,1,9,3H1.5A1.5,1.5,0,0,1,0,1.5v0A1.5,1.5,0,0,1,1.5,0Z" transform="translate(1267 433)" fill="#006e29"/>
      <path id="Rectangle_4746" data-name="Rectangle 4746" d="M1.5,0H9A0,0,0,0,1,9,0V3A0,0,0,0,1,9,3H1.5A1.5,1.5,0,0,1,0,1.5v0A1.5,1.5,0,0,1,1.5,0Z" transform="translate(1267 440)" fill="#006e29"/>
      <path id="Rectangle_4747" data-name="Rectangle 4747" d="M1.5,0H9A0,0,0,0,1,9,0V3A0,0,0,0,1,9,3H1.5A1.5,1.5,0,0,1,0,1.5v0A1.5,1.5,0,0,1,1.5,0Z" transform="translate(1267 447)" fill="#006e29"/>
      <path id="Rectangle_4748" data-name="Rectangle 4748" d="M1.5,0H7A0,0,0,0,1,7,0V3A0,0,0,0,1,7,3H1.5A1.5,1.5,0,0,1,0,1.5v0A1.5,1.5,0,0,1,1.5,0Z" transform="translate(1189 521)" fill="#006e29"/>
      <path id="Rectangle_4749" data-name="Rectangle 4749" d="M1.5,0H7A0,0,0,0,1,7,0V3A0,0,0,0,1,7,3H1.5A1.5,1.5,0,0,1,0,1.5v0A1.5,1.5,0,0,1,1.5,0Z" transform="translate(1189 528)" fill="#006e29"/>
      <path id="Rectangle_4750" data-name="Rectangle 4750" d="M1.5,0H7A0,0,0,0,1,7,0V3A0,0,0,0,1,7,3H1.5A1.5,1.5,0,0,1,0,1.5v0A1.5,1.5,0,0,1,1.5,0Z" transform="translate(1189 535)" fill="#006e29"/>
      <rect id="Rectangle_4751" data-name="Rectangle 4751" width="55" height="4" rx="2" transform="translate(1074 553)" fill="#6e6e6e" opacity="0.5"/>
      <rect id="Rectangle_4753" data-name="Rectangle 4753" width="38" height="4" rx="2" transform="translate(1164 544)" fill="#6e6e6e" opacity="0.5"/>
      <rect id="Rectangle_4752" data-name="Rectangle 4752" width="7" height="4" rx="2" transform="translate(1062 553)" fill="#6e6e6e" opacity="0.5"/>
      <rect id="Rectangle_4754" data-name="Rectangle 4754" width="21" height="4" rx="2" transform="translate(1206 544)" fill="#6e6e6e" opacity="0.5"/>
      <rect id="Rectangle_4755" data-name="Rectangle 4755" width="67" height="4" rx="2" transform="translate(1235 544)" fill="#6e6e6e" opacity="0.5"/>
      <path id="Rectangle_4756" data-name="Rectangle 4756" d="M2,0H96a0,0,0,0,1,0,0V4a0,0,0,0,1,0,0H2A2,2,0,0,1,0,2V2A2,2,0,0,1,2,0Z" transform="translate(1279 553)" fill="#6e6e6e" opacity="0.5"/>
      <g id="RE_Motorcycle" data-name="RE Motorcycle" transform="translate(169.99 455.996)">
        <g id="Layer_2" data-name="Layer 2" transform="translate(0.01)">
          <g id="Layer_1" data-name="Layer 1" transform="translate(0)">
            <path id="Path_4642" data-name="Path 4642" d="M131.543,258.024,96.223,259.4l-.033-.844,35.322-1.379Z" transform="translate(-79.247 -212.273)"/>
            <path id="Path_4643" data-name="Path 4643" d="M381.279,48.614h-5.4V47.058l5.4-.338Z" transform="translate(-309.776 -38.49)"/>
            <path id="Path_4644" data-name="Path 4644" d="M380.515,42.287l-5.461.333a.136.136,0,0,1-.144-.139V41.8a.137.137,0,0,1,.127-.137l5.461-.333a.136.136,0,0,1,.144.139v.683A.139.139,0,0,1,380.515,42.287Z" transform="translate(-308.977 -34.048)"/>
            <path id="Path_4645" data-name="Path 4645" d="M297.106,262.71H290.12v.784h1.8v.465h.682v-.465h.932v.465h.682v-.465h2.894v.465h2.35V262.71Z" transform="translate(-239.102 -216.831)"/>
            <path id="Path_4646" data-name="Path 4646" d="M211.529,204.228a5.164,5.164,0,0,0-2.29-3.934,6.656,6.656,0,0,0-2.581-.666l-2.45-.148.458,2.2a10.214,10.214,0,0,1,2.729.3,3.171,3.171,0,0,1,1.455,1.585,3.659,3.659,0,0,1-.613,3.812l-5.526,5.845c-2.056,2.667-5.868,2.042-5.868,2.042l-20.526-2.23a9.854,9.854,0,0,1-5.688-2.29l-6.553-6.694a5.992,5.992,0,0,0-2.516-1.8,1.309,1.309,0,0,0-1.524.766c-.606,1.536,1.351,3.3,1.351,3.3l6.055,5.767a9.416,9.416,0,0,0,5.947,3.282s18.849,2.494,22.936,2.778a12.278,12.278,0,0,0,4.429-.417,8.37,8.37,0,0,0,3.277-2.114,51.928,51.928,0,0,0,4.527-5.346C211.934,206.116,211.529,204.228,211.529,204.228Z" transform="translate(-131.829 -164.843)"/>
            <path id="Path_4647" data-name="Path 4647" d="M95.449,270.759l-.236-.019-.023.3-.217-.09-.409,1-.639-.634-.176.176.7.7-.528,1.312-1.749-1.955-.176.16,1.834,2.031-1.51,3.7.222.092L94,273.957l.893.988-.208,2.8.236.018.194-2.57,1.575,1.747.176-.159-1.728-1.917.137-1.85,3.454,3.43.176-.176-3.6-3.569Zm-.259.3-.106,1.42-.34-.333Zm-.27,3.555-.807-.9.541-1.326.414.405Z" transform="translate(-75.795 -223.55)"/>
            <path id="Path_4648" data-name="Path 4648" d="M33.994,239.612l.018-.236-.3-.021.086-.22-1-.41.631-.638-.167-.176-.7.7-1.311-.537,1.938-1.762-.159-.176-2.035,1.832-3.682-1.5-.09.218,3.587,1.474-.985.893-2.8-.211-.021.236,2.567.2-1.749,1.573.159.176L29.9,239.3l1.846.141-3.432,3.451.176.176,3.569-3.6Zm-.3-.261-1.423-.109.336-.335Zm-3.557-.271.914-.816,1.326.543-.41.412Z" transform="translate(-22.245 -194.94)"/>
            <path id="Path_4649" data-name="Path 4649" d="M67.593,176.185l.528-1.334,1.707,1.855.176-.16-1.786-1.938,1.459-3.627-.22-.088-1.418,3.523-.881-.964.2-3.007-.236-.016-.185,2.776-1.677-1.821-.176.162,1.83,1.989-.122,1.83-3.157-3.238-.176.176,3.308,3.391-.118,1.735.24.018v-.021l.176.069.426-1.057.87.89.176-.164Zm-.453-2.41.809.881-.541,1.335-.393-.4Zm-.238,3.479.09-1.339.319.324Z" transform="translate(-52.283 -140.695)"/>
            <path id="Path_4650" data-name="Path 4650" d="M35.913,198.2l.176-.157h0l.123-.053-.469-1.127h1.12v-.24H35.646l-.528-1.26,2.642.122.012-.24-2.75-.116-1.5-3.608-.222.092,1.46,3.5-1.288-.06-2-2.29-.176.159,1.851,2.114-2.369-.109-.019.236,2.6.118,1.171,1.337H29.85v.24h4.892Zm-.035-.4-.823-.935h.432Zm-2.19-2.491,1.17.053.528,1.272h-.539Z" transform="translate(-24.593 -158.103)"/>
            <path id="Path_4651" data-name="Path 4651" d="M107.389,179.574h0l.049.125,1.142-.44-.032,1.119h.241l.033-1.217,1.27-.493-.19,2.642.238.016.2-2.736,3.645-1.409-.088-.224-3.536,1.363.09-1.286,2.336-1.938-.148-.176-2.163,1.785.176-2.364-.238-.018-.187,2.593-1.372,1.134.129-4.681h-.238l-.146,4.885-1.369,1.136Zm2.808-2.331-.083,1.17-1.282.5.011-.541Zm-1.61,1.762-.948.365.96-.8Z" transform="translate(-88.374 -143.127)"/>
            <path id="Path_4652" data-name="Path 4652" d="M134.8,210.178l.012-.24-2.662-.167,1.705-1.531-.159-.176-1.88,1.686-1.843-.115,3.319-3.259-.176-.176-3.47,3.409-1.844-.115-.016.236,1.629.1-.558.546-.927-.352-.086.222.83.322-.562.55.167.176.639-.625,1.311.509-1.762,1.585.159.176,1.858-1.67,3.907,1.515.086-.222L130.69,211.1l1.219-1.1Zm-4.363.816-1.326-.513.636-.62,1.825.111Z" transform="translate(-105.318 -170.222)"/>
            <path id="Path_4653" data-name="Path 4653" d="M54.4,261.753l-.06-.143-1.4.59-.014-1.543h-.241l.019,1.64-1.223.528.115-3.157-.24-.009-.118,3.27L47.7,264.423l.093.218,3.433-1.455-.046,1.289-1.714,1.452.153.176,1.552-1.311-.1,2.693.236.011.106-2.912,1.3-1.1.044,4.189H53l-.049-4.386,1.6-1.349Zm-2.968,2.512.041-1.182,1.233-.528v.617Zm1.517-1.806,1.233-.529-1.233,1.045Z" transform="translate(-39.299 -214.422)"/>
            <path id="Path_4654" data-name="Path 4654" d="M118.452,251l-.188.144h0l-.144.055.528,1.42-1.545-.049v.238l1.638.053.469,1.247-3.151-.254-.018.238,3.259.262,1.348,3.6.222-.085-1.312-3.493,1.282.1,1.374,1.777.187-.146-1.242-1.6,2.69.215.016-.24-2.9-.231-1.045-1.346,4.191.137v-.24l-4.379-.143Zm-.019.365.992,1.281-.518-.018Zm2.209,2.856-1.177-.093-.469-1.26.615.023Z" transform="translate(-95.635 -207.287)"/>
            <path id="Path_4655" data-name="Path 4655" d="M16.96,145.32a16.952,16.952,0,1,0,16.954,16.953A16.951,16.951,0,0,0,16.96,145.32Zm0,28.767a11.8,11.8,0,1,1,8.358-3.457A11.813,11.813,0,0,1,16.96,174.087Z" transform="translate(-0.01 -120.224)"/>
            <path id="Path_4656" data-name="Path 4656" d="M17,145.32a16.952,16.952,0,1,0,16.952,16.952A16.952,16.952,0,0,0,17,145.32Zm0,33.021a16.068,16.068,0,1,1,16.069-16.068A16.067,16.067,0,0,1,17,178.341Z" transform="translate(-0.043 -120.224)"/>
            <path id="Path_4657" data-name="Path 4657" d="M35.316,167.61a13.036,13.036,0,1,0,13.036,13.027A13.036,13.036,0,0,0,35.316,167.61Zm0,24.839a11.813,11.813,0,1,1,11.817-11.814,11.813,11.813,0,0,1-11.817,11.814Z" transform="translate(-18.357 -138.587)"/>
            <path id="Path_4658" data-name="Path 4658" d="M26.13,221.494a14.96,14.96,0,0,0,7.492-2l-.31-.312a14.577,14.577,0,0,1-19.864-19.866L13.134,199a15,15,0,0,0,13,22.494Z" transform="translate(-9.171 -164.447)"/>
            <path id="Path_4659" data-name="Path 4659" d="M568.393,267.588l-.211-.018-.021.271-.2-.078-.366.9-.574-.567-.148.153.634.629-.481,1.175-1.573-1.74-.157.143,1.644,1.816-1.355,3.31.2.079,1.312-3.211.8.881-.183,2.509.215.016.176-2.3,1.409,1.564.159-.144-1.548-1.714.125-1.656,3.093,3.07.15-.151-3.224-3.2Zm-.233.266-.1,1.27-.3-.3Zm-.24,3.181-.736-.809.486-1.189.368.366Z" transform="translate(-465.904 -220.938)"/>
            <path id="Path_4660" data-name="Path 4660" d="M513.405,239.767l.018-.213-.275-.021.081-.2-.895-.366.564-.573-.148-.148-.632.631-1.173-.481,1.746-1.57-.141-.16-1.821,1.644-3.308-1.358-.081.2,3.211,1.319-.881.8-2.505-.19-.014.213,2.3.176-1.568,1.409.141.159,1.719-1.547,1.652.127-3.072,3.09.151.151,3.2-3.22Zm-.266-.234-1.27-.1.3-.3Zm-3.183-.243.812-.731,1.187.488-.368.366Z" transform="translate(-417.961 -195.372)"/>
            <path id="Path_4661" data-name="Path 4661" d="M543.428,182.886l.479-1.194,1.885,2.026.157-.146L544,181.477l1.3-3.25-.2-.078-1.268,3.151-.793-.861.176-2.7-.211-.014-.176,2.493-1.5-1.631-.16.144,1.642,1.781-.109,1.64-2.829-2.9-.155.148,2.961,3.037-.1,1.554.213.016v-.021l.153.063.386-.948.777.8.153-.15Zm-.407-2.156.726.787-.484,1.2-.352-.361Zm-.211,3.113.085-1.2.285.291Z" transform="translate(-444.83 -146.717)"/>
            <path id="Path_4662" data-name="Path 4662" d="M515.109,202.6l.16-.141h0l.109-.044-.423-1.013h1v-.211H514.87l-.474-1.129,2.376.109.011-.213-2.479-.113-1.342-3.229-.2.083,1.309,3.134-1.154-.051-1.8-2.042-.157.141,1.654,1.892-2.114-.1-.011.213,2.327.106,1.046,1.2H509.68v.211h4.379Zm-.032-.352-.735-.842h.384Zm-1.961-2.239,1.045.048.476,1.138h-.483Z" transform="translate(-420.048 -162.309)"/>
            <path id="Path_4663" data-name="Path 4663" d="M578.807,185.989l.065-.055.042.115,1.023-.395-.026,1h.213l.028-1.089,1.138-.439-.176,2.491.213.016.19-2.593,3.262-1.256-.076-.2-3.171,1.223.083-1.152,2.093-1.735-.137-.164-1.938,1.6.153-2.114-.211-.016-.176,2.32-1.224,1.015.116-4.187h-.217l-.106,4.374-1.289,1.073Zm2.572-2.139-.07,1.043-1.149.442.014-.483Zm-1.434,1.571-.856.328.861-.7Z" transform="translate(-476.927 -148.91)"/>
            <path id="Path_4664" data-name="Path 4664" d="M603.095,213.367l.014-.21L600.724,213l1.522-1.369-.137-.16-1.681,1.511-1.652-.1,2.972-2.919-.15-.155-3.109,3.053-1.774-.116-.014.215,1.585.1-.5.491-.83-.322-.081.2.745.287-.5.491.148.155.574-.562,1.177.454-1.821,1.638.139.16,1.9-1.712,3.509,1.356.076-.2-3.4-1.319,1.09-.981Zm-3.909.733L598,213.64l.564-.557,1.635.1Z" transform="translate(-491.772 -173.199)"/>
            <path id="Path_4665" data-name="Path 4665" d="M531.63,259.508l-.053-.129-1.249.528-.018-1.385H530.1l.012,1.473-1.092.463.1-2.829h-.211l-.107,2.926L525.63,261.9l.083.2,3.074-1.3-.041,1.149-1.536,1.3.139.166,1.388-1.175-.088,2.412h.213l.093-2.607,1.166-.985.039,3.752h.215l-.042-3.928,1.429-1.208Zm-2.66,2.248.039-1.057,1.108-.472v.553Zm1.358-1.615,1.112-.472-1.1.935Z" transform="translate(-433.191 -212.749)"/>
            <path id="Path_4666" data-name="Path 4666" d="M588.975,249.91l-.176.13h0l-.132.049.476,1.27-1.383-.046v.213l1.467.049.417,1.115-2.819-.225-.016.211,2.921.243,1.2,3.224.2-.076-1.17-3.129,1.147.088,1.233,1.6.166-.132-1.11-1.437,2.4.19.018-.211-2.6-.208-.934-1.207,3.749.123v-.213l-3.921-.13Zm-.016.328.881,1.145-.46-.014Zm1.977,2.556-1.057-.085-.419-1.126.548.018Z" transform="translate(-483.624 -206.302)"/>
            <path id="Path_4667" data-name="Path 4667" d="M513.753,174.5a11.813,11.813,0,1,0,11.813,11.813A11.813,11.813,0,0,0,513.753,174.5Zm0,22.2a10.381,10.381,0,1,1,10.379-10.381A10.381,10.381,0,0,1,513.753,196.7Z" transform="translate(-413.705 -144.263)"/>
            <path id="Path_4668" data-name="Path 4668" d="M489.722,145.32a16.952,16.952,0,1,0,16.952,16.952,16.952,16.952,0,0,0-16.952-16.952Zm0,28.767a11.813,11.813,0,1,1,11.813-11.813,11.813,11.813,0,0,1-11.813,11.813Z" transform="translate(-389.674 -120.224)"/>
            <path id="Path_4669" data-name="Path 4669" d="M489.722,145.32a16.952,16.952,0,1,0,16.952,16.952,16.952,16.952,0,0,0-16.952-16.952Zm0,33.021a16.068,16.068,0,1,1,16.068-16.068,16.068,16.068,0,0,1-16.068,16.068Z" transform="translate(-389.674 -120.224)"/>
            <path id="Path_4670" data-name="Path 4670" d="M508.036,167.61a13.036,13.036,0,1,0,13.036,13.027,13.036,13.036,0,0,0-13.036-13.027Zm0,24.839a11.813,11.813,0,1,1,11.813-11.813,11.813,11.813,0,0,1-11.813,11.813Z" transform="translate(-407.988 -138.587)"/>
            <rect id="Rectangle_4757" data-name="Rectangle 4757" width="4.034" height="2.072" transform="translate(43.451 20.495)"/>
            <path id="Path_4671" data-name="Path 4671" d="M40.992,174.5a11.8,11.8,0,1,0,8.358,3.457A11.813,11.813,0,0,0,40.992,174.5Zm0,22.2a10.381,10.381,0,1,1,10.381-10.381A10.381,10.381,0,0,1,40.992,196.7Z" transform="translate(-24.041 -144.263)"/>
            <path id="Path_4672" data-name="Path 4672" d="M128.757,198.53H125.07v.55h3.687a.89.89,0,0,1,.881.881v1.762h.548V199.96A1.439,1.439,0,0,0,128.757,198.53Z" transform="translate(-103.076 -163.87)"/>
            <path id="Path_4673" data-name="Path 4673" d="M467.552,33.187l-3.372,1.49.227.506,3.365-1.492a.893.893,0,0,1,1.175.453l.713,1.614.5-.222-.7-1.615A1.443,1.443,0,0,0,467.552,33.187Z" transform="translate(-382.548 -27.238)"/>
            <path id="Path_4674" data-name="Path 4674" d="M131.128,213.231,95.81,211.85l-.03.844,35.315,1.381Z" transform="translate(-78.909 -174.858)"/>
            <path id="Path_4675" data-name="Path 4675" d="M71.383,211.39a5.315,5.315,0,1,0,5.316,5.315A5.315,5.315,0,0,0,71.383,211.39Zm.856,4.106a1.5,1.5,0,0,0-.61-.25v-.528a2,2,0,0,1,.99.409Zm-1.147-.243a1.438,1.438,0,0,0-.588.262l-.377-.379a2.008,2.008,0,0,1,.965-.423Zm-.96.657a1.457,1.457,0,0,0-.211.576h-.537a1.97,1.97,0,0,1,.373-.957Zm-.2,1.117a1.508,1.508,0,0,0,.238.528l-.379.379a2.07,2.07,0,0,1-.388-.907Zm.627.909a1.437,1.437,0,0,0,.528.222v.537a2.058,2.058,0,0,1-.911-.381Zm1.057.229a1.54,1.54,0,0,0,.55-.211l.381.38a2.01,2.01,0,0,1-.93.366Zm.941-.58a1.393,1.393,0,0,0,.255-.558h.544a2.056,2.056,0,0,1-.419.937Zm.277-1.1a1.461,1.461,0,0,0-.233-.6l.379-.379a1.973,1.973,0,0,1,.389.981Zm.5-2.1a3.042,3.042,0,0,0-1.719-.715v-.481a3.536,3.536,0,0,1,2.059.856Zm-2.257-.7a3.021,3.021,0,0,0-1.675.724l-.352-.338a3.523,3.523,0,0,1,2.038-.881ZM69.012,214.8a3.014,3.014,0,0,0-.671,1.691h-.465a3.463,3.463,0,0,1,.807-2.035Zm-.661,2.232a3.012,3.012,0,0,0,.7,1.644l-.342.336a3.523,3.523,0,0,1-.849-1.98Zm1.087,2.021a3.014,3.014,0,0,0,1.642.682v.479a3.5,3.5,0,0,1-1.982-.821Zm2.179.685a3.021,3.021,0,0,0,1.661-.666l.354.335a3.523,3.523,0,0,1-2,.809Zm2.047-1.041a3,3,0,0,0,.729-1.665h.479a3.5,3.5,0,0,1-.868,2Zm.736-2.206a3,3,0,0,0-.687-1.712l.34-.34a3.491,3.491,0,0,1,.83,2.052Z" transform="translate(-54.433 -174.535)"/>
            <path id="Path_4676" data-name="Path 4676" d="M529.258,193.34a8.494,8.494,0,1,0,8.491,8.493A8.494,8.494,0,0,0,529.258,193.34Zm4.365,13.1c-.426-.425-.976-1.057-1.6-.682a.69.69,0,0,0-.27.759,4.2,4.2,0,0,0,.365.986,6.342,6.342,0,0,1-6.134-.233c.321-.509.791-1.17.3-1.7a.7.7,0,0,0-.8-.1,4.681,4.681,0,0,0-.934.611,6.322,6.322,0,0,1-1.642-4.258,5.567,5.567,0,0,1,.035-.646c.564.078,1.233.136,1.474-.462a.689.689,0,0,0-.241-.766,3.8,3.8,0,0,0-.8-.514,6.37,6.37,0,0,1,4.492-3.81,5.077,5.077,0,0,0,.37,1.133.689.689,0,0,0,.687.419c.77-.113.756-1.057.84-1.661a.1.1,0,0,1,0-.023,6.361,6.361,0,0,1,5.329,3.83,5.109,5.109,0,0,0-1,.627.694.694,0,0,0-.247.766c.284.687,1.124.5,1.723.425a6.3,6.3,0,0,1-1.95,5.285Z" transform="translate(-429.21 -159.785)"/>
            <path id="Path_4677" data-name="Path 4677" d="M529.258,193.34a8.494,8.494,0,1,0,8.491,8.493A8.494,8.494,0,0,0,529.258,193.34Zm0,16.439a7.945,7.945,0,1,1,7.943-7.944A7.945,7.945,0,0,1,529.258,209.779Z" transform="translate(-429.21 -159.785)"/>
            <path id="Path_4678" data-name="Path 4678" d="M542.637,209.59a5.637,5.637,0,1,0,5.637,5.637A5.637,5.637,0,0,0,542.637,209.59Zm.907,4.353a1.534,1.534,0,0,0-.645-.266v-.571a2.114,2.114,0,0,1,1.043.435Zm-1.216-.259a1.556,1.556,0,0,0-.627.278l-.4-.4a2.131,2.131,0,0,1,1.027-.446Zm-1.016.7a1.491,1.491,0,0,0-.225.611h-.564a2.13,2.13,0,0,1,.389-1.016Zm-.208,1.182a1.538,1.538,0,0,0,.254.569l-.4.4a2.089,2.089,0,0,1-.419-.969Zm.662.965a1.543,1.543,0,0,0,.562.234v.569a2.146,2.146,0,0,1-.964-.4Zm1.133.241a1.558,1.558,0,0,0,.578-.224l.4.4a2.133,2.133,0,0,1-.981.388Zm1-.613a1.552,1.552,0,0,0,.273-.594h.571a2.146,2.146,0,0,1-.44,1Zm.292-1.164a1.522,1.522,0,0,0-.247-.639l.4-.4a2.125,2.125,0,0,1,.414,1.043Zm.529-2.223a3.208,3.208,0,0,0-1.818-.756V211.5a3.713,3.713,0,0,1,2.179.9Zm-2.389-.75a3.229,3.229,0,0,0-1.8.772l-.352-.352a3.715,3.715,0,0,1,2.158-.923Zm-2.2,1.182a3.22,3.22,0,0,0-.7,1.792h-.507a3.7,3.7,0,0,1,.853-2.158Zm-.7,2.362a3.208,3.208,0,0,0,.745,1.742l-.352.352a3.715,3.715,0,0,1-.9-2.1Zm1.152,2.142a3.171,3.171,0,0,0,1.74.724v.507a3.724,3.724,0,0,1-2.1-.87Zm2.311.726a3.192,3.192,0,0,0,1.762-.7l.352.352a3.687,3.687,0,0,1-2.114.853Zm2.169-1.1a3.188,3.188,0,0,0,.77-1.762h.507a3.687,3.687,0,0,1-.916,2.126Zm.777-2.339a3.2,3.2,0,0,0-.724-1.816l.352-.363a3.729,3.729,0,0,1,.881,2.179Z" transform="translate(-442.589 -173.054)"/>
            <path id="Path_4679" data-name="Path 4679" d="M506.074,142.7a21.129,21.129,0,0,0-20.942,6.137.292.292,0,0,0,.25.49l2.556-.284a45.682,45.682,0,0,1,4.691-2.982,5.76,5.76,0,0,1,1.291-.368,2.339,2.339,0,0,1,2.449,1.3l3.056,7.948a.458.458,0,0,0,.62.213l.745-.37a.463.463,0,0,0,.222-.594l-2.778-8.32a1.348,1.348,0,0,1,.324-1.09,1.409,1.409,0,0,1,.969-.439,22.822,22.822,0,0,1,4.119.225,1.1,1.1,0,0,0,.817-.2l1.689-1.254a.233.233,0,0,0-.079-.409Z" transform="translate(-399.793 -117.237)"/>
            <path id="Path_4680" data-name="Path 4680" d="M500.962,167.2l-.49.241a.461.461,0,0,1-.622-.211l-3.055-7.952a2.346,2.346,0,0,0-2.447-1.3,5.617,5.617,0,0,0-1.295.37,46.112,46.112,0,0,0-4.689,2.979l-2.558.285a.285.285,0,0,1-.233-.076c-.176.176-.317.328-.442.465a.292.292,0,0,0,.25.49l2.556-.284a45.677,45.677,0,0,1,4.691-2.982,5.76,5.76,0,0,1,1.291-.368,2.339,2.339,0,0,1,2.449,1.3l3.056,7.948a.458.458,0,0,0,.62.213l.745-.37a.463.463,0,0,0,.222-.594Z" transform="translate(-399.793 -130.413)"/>
            <path id="Path_4681" data-name="Path 4681" d="M544.24,142.709a20.522,20.522,0,0,0-12.86.654,20.679,20.679,0,0,1,11.422-.155.233.233,0,0,1,.078.409l-1.256.932.194.025a1.1,1.1,0,0,0,.817-.2l1.689-1.254a.229.229,0,0,0-.085-.405Z" transform="translate(-437.959 -117.191)"/>
            <path id="Path_4682" data-name="Path 4682" d="M395.33,157.963l3.335,2.493,5.993-8-3.331-2.491Z" transform="translate(-325.81 -123.814)"/>
            <path id="Path_4683" data-name="Path 4683" d="M431.348,145.351l-3.629-2.72a.3.3,0,0,0-.416.06l-.738.988a.3.3,0,0,0,.056.416l3.636,2.722a.294.294,0,0,0,.416-.06l.74-.986a.3.3,0,0,0-.065-.419Z" transform="translate(-351.497 -117.685)"/>
            <path id="Path_4684" data-name="Path 4684" d="M399.561,193.789l-3.588-2.688a.123.123,0,0,0-.166.048l-.09.118a.123.123,0,0,0,0,.176l3.585,2.688a.13.13,0,0,0,.176-.048l.086-.118a.122.122,0,0,0,0-.176Z" transform="translate(-326.093 -157.725)"/>
            <path id="Path_4685" data-name="Path 4685" d="M402.064,190.4l-3.585-2.686a.127.127,0,0,0-.176.048l-.09.116a.127.127,0,0,0,0,.176l3.6,2.69a.125.125,0,0,0,.176-.046l.092-.118a.127.127,0,0,0-.014-.18Z" transform="translate(-328.151 -154.928)"/>
            <path id="Path_4686" data-name="Path 4686" d="M404.581,187.018l-3.588-2.683a.12.12,0,0,0-.176.042l-.09.12a.123.123,0,0,0,0,.176l3.59,2.688a.122.122,0,0,0,.166-.046l.09-.118A.129.129,0,0,0,404.581,187.018Z" transform="translate(-330.221 -152.134)"/>
            <path id="Path_4687" data-name="Path 4687" d="M407.126,183.658l-3.59-2.688a.13.13,0,0,0-.176.046l-.086.118a.127.127,0,0,0,0,.176L406.862,184a.123.123,0,0,0,.167-.044l.09-.122a.122.122,0,0,0,.007-.173Z" transform="translate(-332.322 -149.36)"/>
            <path id="Path_4688" data-name="Path 4688" d="M409.682,180.288l-3.59-2.686a.118.118,0,0,0-.164.044l-.092.122a.129.129,0,0,0,0,.176l3.592,2.686a.122.122,0,0,0,.176-.048l.088-.118a.127.127,0,0,0-.011-.176Z" transform="translate(-334.434 -146.581)"/>
            <path id="Path_4689" data-name="Path 4689" d="M412.176,176.917l-3.587-2.686a.132.132,0,0,0-.176.044l-.09.12a.127.127,0,0,0,0,.176l3.588,2.686a.127.127,0,0,0,.176-.044l.088-.118a.125.125,0,0,0,0-.178Z" transform="translate(-336.483 -143.798)"/>
            <path id="Path_4690" data-name="Path 4690" d="M414.715,173.535l-3.588-2.688a.129.129,0,0,0-.176.046l-.086.118a.127.127,0,0,0,0,.176l3.585,2.685a.129.129,0,0,0,.176-.042l.092-.122A.125.125,0,0,0,414.715,173.535Z" transform="translate(-338.577 -141.004)"/>
            <path id="Path_4691" data-name="Path 4691" d="M417.231,170.171l-3.6-2.688a.12.12,0,0,0-.166.046l-.09.118a.125.125,0,0,0,0,.176l3.6,2.688a.129.129,0,0,0,.176-.048l.09-.12a.122.122,0,0,0-.018-.173Z" transform="translate(-340.65 -138.229)"/>
            <path id="Path_4692" data-name="Path 4692" d="M419.792,166.8l-3.588-2.686a.129.129,0,0,0-.167.044l-.09.122a.129.129,0,0,0,0,.176l3.59,2.688a.13.13,0,0,0,.176-.046l.086-.12a.129.129,0,0,0-.007-.178Z" transform="translate(-342.766 -135.448)"/>
            <path id="Path_4693" data-name="Path 4693" d="M422.289,163.416l-3.583-2.685a.127.127,0,0,0-.176.044l-.09.12a.13.13,0,0,0,0,.176l3.594,2.686a.129.129,0,0,0,.176-.046l.092-.118A.13.13,0,0,0,422.289,163.416Z" transform="translate(-344.821 -132.654)"/>
            <path id="Path_4694" data-name="Path 4694" d="M424.81,160.028l-3.59-2.686a.12.12,0,0,0-.176.048l-.086.116a.123.123,0,0,0,0,.176l3.585,2.688a.125.125,0,0,0,.176-.046l.093-.116A.136.136,0,0,0,424.81,160.028Z" transform="translate(-346.894 -129.854)"/>
            <path id="Path_4695" data-name="Path 4695" d="M427.329,156.665l-3.59-2.686a.125.125,0,0,0-.176.044l-.086.12a.123.123,0,0,0,0,.176l3.588,2.688a.129.129,0,0,0,.173-.046l.09-.116a.125.125,0,0,0,0-.18Z" transform="translate(-348.97 -127.079)"/>
            <rect id="Rectangle_4758" data-name="Rectangle 4758" width="9.592" height="1.585" transform="translate(30.501 23.495)"/>
            <rect id="Rectangle_4759" data-name="Rectangle 4759" width="8.103" height="2.021" transform="translate(61.033 28.709)"/>
            <rect id="Rectangle_4760" data-name="Rectangle 4760" width="4.062" height="15.87" transform="translate(66.766 22.485)"/>
            <rect id="Rectangle_4761" data-name="Rectangle 4761" width="5.366" height="4.006" transform="translate(76.369 9.618)"/>
            <path id="Path_4696" data-name="Path 4696" d="M443.629,97.417l-7.5,2.153-.615-2.147,7.5-2.153Z" transform="translate(-358.923 -78.64)"/>
            <rect id="Rectangle_4762" data-name="Rectangle 4762" width="4.06" height="15.87" transform="translate(61.39 22.485)"/>
            <path id="Path_4697" data-name="Path 4697" d="M259.658,151.451H240.746a.842.842,0,0,1-.814-.639L238.6,145.4h21.058Z" transform="translate(-196.651 -120.028)"/>
            <path id="Path_4698" data-name="Path 4698" d="M247.8,185.82h18.833v11.526H247.07v-10.79a.733.733,0,0,1,.733-.736Z" transform="translate(-203.63 -153.429)"/>
            <rect id="Rectangle_4763" data-name="Rectangle 4763" width="8.394" height="0.793" transform="translate(78.187 14.3)"/>
            <rect id="Rectangle_4764" data-name="Rectangle 4764" width="8.394" height="0.791" transform="translate(78.187 15.725)"/>
            <rect id="Rectangle_4765" data-name="Rectangle 4765" width="10.205" height="0.791" transform="translate(64.818 26.498)"/>
            <path id="Path_4699" data-name="Path 4699" d="M219.95,161.634l5.877-10.624.691.381-5.877,10.626Z" transform="translate(-181.27 -124.684)"/>
            <path id="Path_4700" data-name="Path 4700" d="M61.447,199.33a7.439,7.439,0,1,0,7.441,7.44A7.439,7.439,0,0,0,61.447,199.33Zm3.835,11.477c-.377-.373-.854-.921-1.409-.6a.608.608,0,0,0-.243.664,3.862,3.862,0,0,0,.319.867,5.56,5.56,0,0,1-5.369-.2c.28-.444.692-1.025.262-1.487a.613.613,0,0,0-.7-.085,4.121,4.121,0,0,0-.816.528,5.545,5.545,0,0,1-1.439-3.729c0-.19.011-.382.028-.567.5.067,1.078.118,1.295-.4a.6.6,0,0,0-.217-.671,3.171,3.171,0,0,0-.7-.453,5.575,5.575,0,0,1,3.937-3.333,4.554,4.554,0,0,0,.322.99.608.608,0,0,0,.6.368c.673-.1.662-.928.736-1.457v-.019a5.577,5.577,0,0,1,4.67,3.347,4.514,4.514,0,0,0-.881.55.617.617,0,0,0-.217.671c.252.6.983.442,1.51.373a5.151,5.151,0,0,1,.033.6A5.553,5.553,0,0,1,65.282,210.807Z" transform="translate(-44.497 -164.612)"/>
            <path id="Path_4701" data-name="Path 4701" d="M61.447,199.33a7.439,7.439,0,1,0,7.441,7.44A7.439,7.439,0,0,0,61.447,199.33Zm0,14.324a6.884,6.884,0,1,1,6.883-6.884A6.884,6.884,0,0,1,61.447,213.654Z" transform="translate(-44.497 -164.612)"/>
            <path id="Path_4702" data-name="Path 4702" d="M74.406,215.06a4.668,4.668,0,1,0,4.67,4.669A4.668,4.668,0,0,0,74.406,215.06Zm.754,3.608a1.337,1.337,0,0,0-.528-.222v-.47a1.762,1.762,0,0,1,.868.352Zm-1.009-.215a1.313,1.313,0,0,0-.518.231l-.324-.331a1.761,1.761,0,0,1,.851-.372Zm-.842.578a1.27,1.27,0,0,0-.188.507h-.472a1.762,1.762,0,0,1,.329-.842Zm-.176.978a1.307,1.307,0,0,0,.208.47l-.329.333a1.728,1.728,0,0,1-.352-.8Zm.548.8a1.3,1.3,0,0,0,.467.192v.472a1.762,1.762,0,0,1-.8-.331Zm.941.2a1.321,1.321,0,0,0,.479-.187l.336.335a1.761,1.761,0,0,1-.816.321Zm.826-.511a1.262,1.262,0,0,0,.225-.493h.472a1.744,1.744,0,0,1-.365.826Zm.243-.964a1.346,1.346,0,0,0-.2-.528l.333-.333a1.762,1.762,0,0,1,.34.865Zm.437-1.846a2.669,2.669,0,0,0-1.51-.625v-.425a3.1,3.1,0,0,1,1.809.752Zm-1.984-.624a2.671,2.671,0,0,0-1.492.641l-.3-.3a3.077,3.077,0,0,1,1.79-.765Zm-1.814.976a2.669,2.669,0,0,0-.585,1.487h-.423a3.06,3.06,0,0,1,.7-1.786ZM71.752,220a2.642,2.642,0,0,0,.62,1.446l-.3.3a3.067,3.067,0,0,1-.743-1.744Zm.957,1.779a2.672,2.672,0,0,0,1.443.6v.425a3.091,3.091,0,0,1-1.74-.724Zm1.917.6a2.662,2.662,0,0,0,1.457-.583l.3.3a3.079,3.079,0,0,1-1.762.7Zm1.8-.913A2.642,2.642,0,0,0,77.061,220h.426a3.114,3.114,0,0,1-.765,1.762Zm.645-1.938a2.632,2.632,0,0,0-.6-1.51l.3-.294a3.076,3.076,0,0,1,.726,1.8Z" transform="translate(-57.456 -177.555)"/>
            <path id="Path_4703" data-name="Path 4703" d="M202.173,144.825l-2.773-.409,2.72-18.486,2.775.409Z" transform="translate(-164.334 -104.021)"/>
            <path id="Path_4704" data-name="Path 4704" d="M210.055,156.984l-3.268-.481a.375.375,0,0,0-.423.315l-.026.194a.37.37,0,0,0,.312.425l3.266.481a.375.375,0,0,0,.426-.317l.028-.192A.377.377,0,0,0,210.055,156.984Z" transform="translate(-170.047 -129.169)"/>
            <path id="Path_4705" data-name="Path 4705" d="M208.591,166.594l-3.266-.483a.375.375,0,0,0-.425.315l-.028.194a.373.373,0,0,0,.317.423l3.266.481a.37.37,0,0,0,.423-.314l.03-.2a.37.37,0,0,0-.317-.421Z" transform="translate(-168.84 -137.1)"/>
            <path id="Path_4706" data-name="Path 4706" d="M207.216,176.2l-3.266-.481a.375.375,0,0,0-.425.315l-.026.192a.37.37,0,0,0,.315.425l3.268.483a.373.373,0,0,0,.421-.317l.03-.192a.373.373,0,0,0-.317-.425Z" transform="translate(-167.707 -145.032)"/>
            <path id="Path_4707" data-name="Path 4707" d="M205.8,185.81l-3.266-.481a.373.373,0,0,0-.426.314l-.028.194a.375.375,0,0,0,.315.425l3.266.481a.375.375,0,0,0,.425-.315l.028-.194a.368.368,0,0,0-.314-.423Z" transform="translate(-166.54 -152.961)"/>
            <path id="Path_4708" data-name="Path 4708" d="M204.4,195.447l-3.268-.47a.366.366,0,0,0-.423.312l-.028.194a.377.377,0,0,0,.314.426l3.262.477a.372.372,0,0,0,.425-.314l.032-.2A.377.377,0,0,0,204.4,195.447Z" transform="translate(-165.386 -160.923)"/>
            <path id="Path_4709" data-name="Path 4709" d="M202.979,205.006l-3.266-.483a.375.375,0,0,0-.423.317l-.028.2a.373.373,0,0,0,.314.423l3.268.479a.375.375,0,0,0,.421-.312l.028-.2A.377.377,0,0,0,202.979,205.006Z" transform="translate(-164.216 -168.804)"/>
            <path id="Path_4710" data-name="Path 4710" d="M201.55,214.608l-3.266-.481a.375.375,0,0,0-.433.326l-.028.194a.375.375,0,0,0,.317.425l3.264.479a.377.377,0,0,0,.425-.315l.028-.194a.373.373,0,0,0-.307-.433Z" transform="translate(-163.029 -176.729)"/>
            <path id="Path_4711" data-name="Path 4711" d="M485.811,33.89V44.7s-6.735-.456-6.735-6.183C479.076,38.516,478.847,34.073,485.811,33.89Z" transform="translate(-394.824 -27.92)"/>
            <path id="Path_4712" data-name="Path 4712" d="M517.31,33.89s1.511.618,1.742,1.466v7.992A2.347,2.347,0,0,1,517.31,44.7Z" transform="translate(-426.329 -27.92)"/>
            <path id="Path_4713" data-name="Path 4713" d="M485.811,42.18v7.9s-6.735-.335-6.735-4.51C479.076,45.557,478.847,42.314,485.811,42.18Z" transform="translate(-394.824 -34.75)"/>
            <path id="Path_4714" data-name="Path 4714" d="M517.31,43.961h1.742V42.628l-1.742-.668Z" transform="translate(-426.329 -34.568)"/>
            <rect id="Rectangle_4766" data-name="Rectangle 4766" width="1.742" height="0.754" transform="translate(90.981 12.287)"/>
            <path id="Path_4715" data-name="Path 4715" d="M517.31,79.091l1.742-.669V77.09H517.31Z" transform="translate(-426.329 -63.629)"/>
            <path id="Path_4716" data-name="Path 4716" d="M485.811,55.1v3.329s-6.735-.143-6.735-1.906C479.076,56.53,478.847,55.158,485.811,55.1Z" transform="translate(-394.824 -45.481)"/>
            <path id="Path_4717" data-name="Path 4717" d="M218.356,214l-.691,2.907h-1.5v3.733l5.678.488,4.4.684a.513.513,0,0,0,.59-.44l1-7.371Z" transform="translate(-178.158 -176.669)"/>
            <path id="Path_4718" data-name="Path 4718" d="M280.6,230.74l-.916,5.771h14.087l1.2-5.771Z" transform="translate(-230.503 -190.474)"/>
            <path id="Path_4719" data-name="Path 4719" d="M275.3,237.517,254.38,232.9l.349-1.6,20.919,4.617Z" transform="translate(-209.657 -190.939)"/>
            <path id="Path_4720" data-name="Path 4720" d="M218.97,132.582l18.8,6.352,3.863-.639,8.826-6.125Z" transform="translate(-180.481 -109.109)"/>
            <path id="Path_4721" data-name="Path 4721" d="M250.462,132.17l-31.492.412.151.053,27.425,2.25Z" transform="translate(-180.481 -109.093)" opacity="0.15"/>
            <rect id="Rectangle_4767" data-name="Rectangle 4767" width="9.186" height="14.257" transform="translate(65.097 33.946) rotate(9.744)"/>
            <path id="Path_4722" data-name="Path 4722" d="M362.833,267.774l-9.719-1.658a.217.217,0,0,0-.264.153l-.033.208a.215.215,0,0,0,.2.233l9.715,1.658a.222.222,0,0,0,.268-.151l.033-.21a.215.215,0,0,0-.2-.233Z" transform="translate(-290.773 -219.644)"/>
            <path id="Path_4723" data-name="Path 4723" d="M363.815,261.872l-9.71-1.658a.218.218,0,0,0-.268.153l-.039.21a.224.224,0,0,0,.2.233l9.715,1.651a.215.215,0,0,0,.266-.152l.035-.21C364.041,262,363.949,261.895,363.815,261.872Z" transform="translate(-291.583 -214.772)"/>
            <path id="Path_4724" data-name="Path 4724" d="M364.843,255.985l-9.72-1.658a.218.218,0,0,0-.264.151l-.032.21a.217.217,0,0,0,.2.233l9.72,1.658a.217.217,0,0,0,.262-.155l.037-.206a.213.213,0,0,0-.2-.233Z" transform="translate(-292.43 -209.914)"/>
            <path id="Path_4725" data-name="Path 4725" d="M365.853,250.081l-9.715-1.658a.218.218,0,0,0-.268.152l-.033.21a.213.213,0,0,0,.2.231l9.712,1.658a.217.217,0,0,0,.268-.152l.039-.208A.222.222,0,0,0,365.853,250.081Z" transform="translate(-293.262 -205.04)"/>
            <path id="Path_4726" data-name="Path 4726" d="M366.845,244.206l-9.713-1.659a.22.22,0,0,0-.268.153l-.037.208a.215.215,0,0,0,.2.233l9.719,1.659a.213.213,0,0,0,.262-.155l.037-.206a.217.217,0,0,0-.2-.233Z" transform="translate(-294.078 -200.189)"/>
            <path id="Path_4727" data-name="Path 4727" d="M367.856,238.285l-9.715-1.658a.218.218,0,0,0-.266.155l-.035.206a.22.22,0,0,0,.2.227l9.715,1.656a.22.22,0,0,0,.266-.153l.037-.208A.22.22,0,0,0,367.856,238.285Z" transform="translate(-294.913 -195.303)"/>
            <path id="Path_4728" data-name="Path 4728" d="M368.857,232.383l-9.715-1.658a.217.217,0,0,0-.266.155l-.037.206a.222.222,0,0,0,.2.233l9.717,1.658a.224.224,0,0,0,.266-.152l.035-.21A.222.222,0,0,0,368.857,232.383Z" transform="translate(-295.737 -190.432)"/>
            <path id="Path_4729" data-name="Path 4729" d="M369.866,226.491l-9.717-1.656a.22.22,0,0,0-.268.15l-.033.21a.218.218,0,0,0,.2.233l9.715,1.658a.213.213,0,0,0,.264-.153l.039-.21A.22.22,0,0,0,369.866,226.491Z" transform="translate(-296.568 -185.57)"/>
            <path id="Path_4730" data-name="Path 4730" d="M370.865,220.616l-9.712-1.652a.22.22,0,0,0-.27.152l-.035.21a.22.22,0,0,0,.2.231l9.717,1.659a.224.224,0,0,0,.268-.153l.033-.206a.22.22,0,0,0-.2-.24Z" transform="translate(-297.393 -180.724)"/>
            <path id="Path_4731" data-name="Path 4731" d="M371.884,214.694l-9.715-1.658a.222.222,0,0,0-.27.153l-.032.208a.218.218,0,0,0,.2.233l9.715,1.658a.217.217,0,0,0,.266-.155l.035-.206A.22.22,0,0,0,371.884,214.694Z" transform="translate(-298.233 -175.831)"/>
            <path id="Path_4732" data-name="Path 4732" d="M372.883,208.789l-9.713-1.659a.224.224,0,0,0-.268.153l-.035.208a.218.218,0,0,0,.2.234l9.715,1.666a.222.222,0,0,0,.268-.155l.033-.2a.22.22,0,0,0-.2-.243Z" transform="translate(-299.056 -170.957)"/>
            <path id="Path_4733" data-name="Path 4733" d="M373.879,202.894l-9.717-1.658a.217.217,0,0,0-.264.153l-.039.208a.227.227,0,0,0,.2.234l9.715,1.656a.222.222,0,0,0,.27-.153l.033-.206A.224.224,0,0,0,373.879,202.894Z" transform="translate(-299.874 -166.093)"/>
            <path id="Path_4734" data-name="Path 4734" d="M431.285,48.305l-4.629,1.208-.416-1.585,4.629-1.208Z" transform="translate(-351.279 -38.49)"/>
            <path id="Path_4735" data-name="Path 4735" d="M421.79,74.284l-9.58,9.664-1.161-1.156,9.574-9.662Z" transform="translate(-338.767 -60.381)"/>
            <path id="Path_4736" data-name="Path 4736" d="M280.944,127.741,254.7,145.8l-.928-1.348,26.246-18.065Z" transform="translate(-209.16 -104.405)"/>
            <path id="Path_4737" data-name="Path 4737" d="M216.33,146.426l-8.59-19.619,1.5-.657,8.588,19.617Z" transform="translate(-171.21 -104.213)"/>
            <path id="Path_4738" data-name="Path 4738" d="M235.228,139.517l-22.068-7.291.513-1.555,22.071,7.291Z" transform="translate(-175.685 -107.88)"/>
            <path id="Path_4739" data-name="Path 4739" d="M260.327,126.862l-41.357-.005V125.22l41.357,0Z" transform="translate(-180.492 -103.353)"/>
            <path id="Path_4740" data-name="Path 4740" d="M260.327,130.7,218.97,130.7v-.816l41.357,0Z" transform="translate(-180.492 -107.197)" opacity="0.2"/>
            <path id="Path_4741" data-name="Path 4741" d="M69.054,114.9l-.062.846a.793.793,0,0,0,.736.842l23.711,1.568.106-1.637Z" transform="translate(-56.839 -94.84)"/>
            <path id="Path_4742" data-name="Path 4742" d="M421,99.344l-13.381,11.868-1.087-1.226L419.913,98.12Z" transform="translate(-335.047 -81.023)"/>
            <path id="Path_4743" data-name="Path 4743" d="M423.9,107.623l-13.918,12.342-.359-.4,13.917-12.342Z" transform="translate(-337.593 -88.535)"/>
            <path id="Path_4744" data-name="Path 4744" d="M402.26,126.857l-2.177,7.319-1.573-.467,2.179-7.319Z" transform="translate(-328.425 -104.342)"/>
            <path id="Path_4745" data-name="Path 4745" d="M469.736,69.037l-2.516,1.187-.75-1.587,2.517-1.187Z" transform="translate(-384.432 -55.673)"/>
            <path id="Path_4746" data-name="Path 4746" d="M464.252,4.485,463.078,2a.576.576,0,0,0-.765-.262l-4.1,1.938a.578.578,0,0,0-.277.763l1.178,2.484a.565.565,0,0,0,.759.273l4.108-1.938a.573.573,0,0,0,.273-.77Z" transform="translate(-377.356 -1.382)"/>
            <path id="Path_4747" data-name="Path 4747" d="M461.559.814l-5.567,2.628-.382-.814L461.177,0Z" transform="translate(-375.485)"/>
            <path id="Path_4748" data-name="Path 4748" d="M476.889,88.795l-3.1,1.462-1.02-2.169,3.093-1.459Z" transform="translate(-389.625 -71.507)"/>
            <path id="Path_4749" data-name="Path 4749" d="M453.822,38.943l-2.646,1.249-.636-1.351,2.644-1.251Z" transform="translate(-371.304 -30.968)"/>
            <path id="Path_4750" data-name="Path 4750" d="M459.089,45.04l-2.512,1.186L455.76,44.5l2.516-1.189Z" transform="translate(-375.606 -35.681)"/>
            <path id="Path_4751" data-name="Path 4751" d="M492.28,108.283l-1.767.835-4.423-9.363,1.772-.835Z" transform="translate(-400.605 -81.672)"/>
            <path id="Path_4752" data-name="Path 4752" d="M459.492,17.6l-2.9,1.367-.905-1.925,2.891-1.365Z" transform="translate(-375.548 -12.918)"/>
            <path id="Path_4753" data-name="Path 4753" d="M465.7,28.357l-1.959.921-.233-.5,1.955-.921Z" transform="translate(-381.991 -22.952)"/>
            <path id="Path_4754" data-name="Path 4754" d="M512.328,130.817l-.819-1.728a.109.109,0,0,0-.143-.053l-3.277,1.545a.116.116,0,0,0-.053.148l.817,1.726a.107.107,0,0,0,.144.051l3.273-1.547a.107.107,0,0,0,.056-.143Z" transform="translate(-418.682 -106.502)"/>
            <path id="Path_4755" data-name="Path 4755" d="M529.057,163.29l-2.237,1.059,4.238,8.975,2.234-1.057Z" transform="translate(-434.172 -134.817)"/>
            <path id="Path_4756" data-name="Path 4756" d="M527.969,166.22l-1.149.543,4.238,8.975,1.149-.543Z" transform="translate(-434.171 -137.234)" opacity="0.15"/>
            <path id="Path_4757" data-name="Path 4757" d="M517.668,140.63l-2.808,1.326,1.822,3.858,2.81-1.326Z" transform="translate(-424.313 -116.086)"/>
            <path id="Path_4758" data-name="Path 4758" d="M553.393,220.081l.044-.023a1.524,1.524,0,0,0,.731-2.031l-2.149-4.557L549.2,214.8l2.153,4.555a1.526,1.526,0,0,0,2.04.729Z" transform="translate(-452.64 -176.224)"/>
            <path id="Path_4759" data-name="Path 4759" d="M208.064,119.574a2.2,2.2,0,1,1-2.2-2.2,2.2,2.2,0,0,1,2.2,2.2Z" transform="translate(-167.844 -96.883)"/>
            <path id="Path_4760" data-name="Path 4760" d="M210.341,122.465a1.585,1.585,0,1,1-1.585-1.585A1.585,1.585,0,0,1,210.341,122.465Z" transform="translate(-170.736 -99.776)" opacity="0.2"/>
            <path id="Path_4761" data-name="Path 4761" d="M395.12,165.412a1.978,1.978,0,1,1-.578-1.4A1.98,1.98,0,0,1,395.12,165.412Z" transform="translate(-322.368 -134.901)"/>
            <path id="Path_4762" data-name="Path 4762" d="M338.191,158.18h-1.023a.449.449,0,0,0-.447.449v3.465a.449.449,0,0,0,.447.451h1.023a.453.453,0,0,0,.453-.451v-3.465A.451.451,0,0,0,338.191,158.18Z" transform="translate(-277.5 -130.569)"/>
            <path id="Path_4763" data-name="Path 4763" d="M321.721,158.18H320.7a.449.449,0,0,0-.451.449v3.465a.451.451,0,0,0,.451.451h1.02a.451.451,0,0,0,.451-.451v-3.465a.449.449,0,0,0-.451-.449Z" transform="translate(-263.927 -130.569)"/>
            <path id="Path_4764" data-name="Path 4764" d="M289.82,180.992l7.18,1.682,1-4.252-7.182-1.682Z" transform="translate(-238.854 -145.898)"/>
            <path id="Path_4765" data-name="Path 4765" d="M292.86,182.115l7.182,1.682.291-1.235-7.182-1.682Z" transform="translate(-241.359 -149.3)" opacity="0.2"/>
            <path id="Path_4766" data-name="Path 4766" d="M289.82,195.138,297,196.82l.291-1.228-7.184-1.682Z" transform="translate(-238.853 -160.055)" opacity="0.2"/>
            <rect id="Rectangle_4768" data-name="Rectangle 4768" width="0.979" height="3.726" transform="translate(58.242 28.247)"/>
            <path id="Path_4767" data-name="Path 4767" d="M290.75,224.32H286.7a.277.277,0,0,0-.278.277V226.3a.278.278,0,0,0,.278.278h4.052a.277.277,0,0,0,.278-.278V224.6a.275.275,0,0,0-.278-.277Z" transform="translate(-236.049 -185.151)"/>
            <path id="Path_4768" data-name="Path 4768" d="M317.689,224.32h-2.211a.277.277,0,0,0-.278.277V226.3a.278.278,0,0,0,.278.278h2.211a.28.28,0,0,0,.278-.278V224.6A.278.278,0,0,0,317.689,224.32Z" transform="translate(-259.766 -185.151)"/>
            <path id="Path_4769" data-name="Path 4769" d="M224.508,144.975l.314-.264a1.032,1.032,0,0,1,.775-.241l3.823.388-5.8-1.917Z" transform="translate(-184.294 -117.98)"/>
            <path id="Path_4770" data-name="Path 4770" d="M261.77,174.921l-5.94-1.8.969-4.18,6.109,1.046Z" transform="translate(-210.841 -139.459)"/>
            <path id="Path_4771" data-name="Path 4771" d="M474.616,47.956l-2.241,1.055L464.05,31.367l2.234-1.057Z" transform="translate(-382.447 -24.971)"/>
            <rect id="Rectangle_4769" data-name="Rectangle 4769" width="1.237" height="19.513" transform="translate(82.721 5.868) rotate(-25.26)"/>
            <rect id="Rectangle_4770" data-name="Rectangle 4770" width="1.471" height="4.267" transform="translate(92.028 25.179) rotate(-25.24)"/>
            <rect id="Rectangle_4771" data-name="Rectangle 4771" width="25.716" height="3.729" transform="translate(13.645 40.233)"/>
            <rect id="Rectangle_4772" data-name="Rectangle 4772" width="25.716" height="2.086" transform="translate(13.645 41.064)"/>
            <path id="Path_4772" data-name="Path 4772" d="M134.23,209.621H109.55V206.23h23.2Z" transform="translate(-90.292 -170.226)"/>
            <path id="Path_4773" data-name="Path 4773" d="M83.6,219.364l-2.611.972H77.47l5.651-2.167Z" transform="translate(-63.825 -180.075)"/>
            <path id="Path_4774" data-name="Path 4774" d="M541.869,244.224l-6.935,1.869-.213-.794,6.932-1.869Z" transform="translate(-440.711 -200.927)"/>
            <rect id="Rectangle_4773" data-name="Rectangle 4773" width="5.426" height="0.823" transform="matrix(0.958, 0.288, -0.288, 0.958, 94.715, 37.964)"/>
            <path id="Path_4775" data-name="Path 4775" d="M488.075,106.535,480.907,91.13l-.5.231,7.17,15.409a5.417,5.417,0,0,1,.509,2.264v4.339h.548v-4.339A5.97,5.97,0,0,0,488.075,106.535Z" transform="translate(-395.927 -75.293)"/>
            <path id="Path_4776" data-name="Path 4776" d="M455.087,48.925l-2.021.95-5.006-10.6,2.017-.951Z" transform="translate(-369.264 -31.57)"/>
            <path id="Path_4777" data-name="Path 4777" d="M454.076,51.625l-1.009.474L448.06,41.5l1.008-.476Z" transform="translate(-369.263 -33.794)" opacity="0.15"/>
            <path id="Path_4778" data-name="Path 4778" d="M262.2,176.044l-5.949-1.74.823-3.553,6.1,1.1Z" transform="translate(-211.187 -140.95)"/>
            <path id="Path_4779" data-name="Path 4779" d="M262.607,177.155l-5.967-1.677.676-2.928L263.4,173.7Z" transform="translate(-211.508 -142.432)"/>
            <path id="Path_4780" data-name="Path 4780" d="M263.021,178.22,257.04,176.6l.536-2.329,6.076,1.2Z" transform="translate(-211.837 -143.849)"/>
            <path id="Path_4781" data-name="Path 4781" d="M263.465,179.42l-5.995-1.555.382-1.654,6.063,1.256Z" transform="translate(-212.192 -145.446)"/>
            <path id="Path_4782" data-name="Path 4782" d="M263.871,180.523l-6.011-1.5.241-1.036,6.053,1.309Z" transform="translate(-212.513 -146.912)"/>
            <path id="Path_4783" data-name="Path 4783" d="M264.289,181.61l-6.019-1.436.1-.425,6.04,1.36Z" transform="translate(-212.851 -148.362)"/>
            <path id="Path_4784" data-name="Path 4784" d="M281.64,178.232l.4.122,1.092-4.811-.414-.072Z" transform="translate(-232.107 -143.193)"/>
            <path id="Path_4785" data-name="Path 4785" d="M259.44,173.825l.4.123.978-4.316-.412-.072Z" transform="translate(-213.812 -139.963)"/>
            <path id="Path_4786" data-name="Path 4786" d="M292.084,51.275a2.864,2.864,0,0,0-2.195-2.382c-2.84-.352-9.021-.553-9.021-.553-15.012.449-20.755,7.656-21.558,8.952a1.292,1.292,0,0,0-.141.324l-.964,3.576c-.137.7,1.247.7,1.247.7h30.868a2.443,2.443,0,0,0,2.544-2.343Z" transform="translate(-212.816 -39.824)"/>
            <path id="Path_4787" data-name="Path 4787" d="M432.495,96.222a2.334,2.334,0,0,0,2.394-1.614,2.466,2.466,0,0,0,.125-1.068L434.686,90l-3.916,6.225Z" transform="translate(-355.012 -74.295)"/>
            <path id="Path_4788" data-name="Path 4788" d="M285.026,49.959s6.435.2,9.389.553a2.931,2.931,0,0,1,2.228,2.144l-.132-1.381a2.864,2.864,0,0,0-2.195-2.382c-2.84-.352-9.021-.553-9.021-.553-15.012.449-20.755,7.656-21.558,8.952a1.291,1.291,0,0,0-.141.324l-.026.1C265.9,55.233,272.221,50.325,285.026,49.959Z" transform="translate(-217.243 -39.824)"/>
            <path id="Path_4789" data-name="Path 4789" d="M292.012,121.76H258.2c-.009.615,1.256.627,1.256.627h30.868a2.519,2.519,0,0,0,1.688-.551Z" transform="translate(-212.818 -100.494)"/>
            <path id="Path_4790" data-name="Path 4790" d="M259.31,92.885a1.291,1.291,0,0,0-.141.324l-.964,3.576c-.137.7,1.247.7,1.247.7h30.868a2.436,2.436,0,0,0,2.544-2.338l-.34-3.6H260.368a9.856,9.856,0,0,0-1.059,1.335Z" transform="translate(-212.816 -75.574)" opacity="0.15"/>
            <path id="Path_4791" data-name="Path 4791" d="M271.315,74.873s-1.127-.472-.187-1.816a21.141,21.141,0,0,1,14.845-7.27s1.969-.09,2.042,1.7c0,0,.148,3.382-1.5,5.1,0,0-.789,1.087-3.2,1.409C283.315,74,275.782,74.887,271.315,74.873Z" transform="translate(-223.148 -54.313)"/>
            <path id="Path_4792" data-name="Path 4792" d="M291.11,67.49c-.072-1.793-2.042-1.7-2.042-1.7a21.463,21.463,0,0,0-14.558,6.921,21.666,21.666,0,0,1,14.075-6.395s1.973-.09,2.042,1.7c0,0,.134,3.042-1.261,4.821a1.965,1.965,0,0,0,.245-.25C291.258,70.872,291.11,67.49,291.11,67.49Z" transform="translate(-226.243 -54.308)"/>
            <path id="Path_4793" data-name="Path 4793" d="M568.557,208.388a.528.528,0,1,1-.529-.528A.528.528,0,0,1,568.557,208.388Z" transform="translate(-467.716 -171.559)"/>
            <path id="Path_4794" data-name="Path 4794" d="M565.166,237.232a1.108,1.108,0,1,1-1.108-1.112A1.108,1.108,0,0,1,565.166,237.232Z" transform="translate(-463.968 -194.891)"/>
            <path id="Path_4795" data-name="Path 4795" d="M566.306,238.69a.8.8,0,1,1-.233-.565A.8.8,0,0,1,566.306,238.69Z" transform="translate(-465.418 -196.348)"/>
            <path id="Path_4796" data-name="Path 4796" d="M93.016,236.895a.893.893,0,1,1-.262-.634A.893.893,0,0,1,93.016,236.895Z" transform="translate(-75.161 -194.789)"/>
            <path id="Path_4797" data-name="Path 4797" d="M93.969,238.073a.641.641,0,1,1-.189-.456A.645.645,0,0,1,93.969,238.073Z" transform="translate(-76.355 -195.966)"/>
            <path id="Path_4798" data-name="Path 4798" d="M520.512,213.973l-1.545,7.323-3.317-.7,1.543-7.325Z" transform="translate(-424.965 -176.068)"/>
            <path id="Path_4799" data-name="Path 4799" d="M536.49,217.685l1.457.307a.211.211,0,0,0,.247-.162l.227-1.073a.211.211,0,0,0-.164-.25L536.8,216.2Z" transform="translate(-442.169 -178.446)"/>
            <path id="Path_4800" data-name="Path 4800" d="M534.875,232.5a.208.208,0,0,0,.248-.162l.227-1.075a.21.21,0,0,0-.16-.247l-1.457-.308-.314,1.483Z" transform="translate(-439.64 -190.423)"/>
            <path id="Path_4801" data-name="Path 4801" d="M530.939,251.158a.208.208,0,0,0,.245-.16l.227-1.075a.206.206,0,0,0-.162-.247l-1.455-.307-.314,1.482Z" transform="translate(-436.358 -205.824)"/>
            <path id="Path_4802" data-name="Path 4802" d="M518.243,211.443l-.529,2.487a.255.255,0,0,0,.2.3l2.313.484a.254.254,0,0,0,.3-.2l.528-2.487a.25.25,0,0,0-.194-.3l-2.311-.49a.25.25,0,0,0-.308.2Z" transform="translate(-426.659 -174.359)"/>
            <path id="Path_4803" data-name="Path 4803" d="M514.514,234.63l-.722,3.421a.255.255,0,0,0,.2.3l1.962.412a.259.259,0,0,0,.3-.2l.72-3.425a.252.252,0,0,0-.2-.3l-1.962-.414a.252.252,0,0,0-.3.2Z" transform="translate(-423.426 -193.507)"/>
            <rect id="Rectangle_4774" data-name="Rectangle 4774" width="6.939" height="3.144" transform="translate(15.827 33.006) rotate(8.72)"/>
            <path id="Path_4804" data-name="Path 4804" d="M117.925,206.8l-.208,1.365a.19.19,0,0,0,.162.22l1,.153a.194.194,0,0,0,.222-.16l.208-1.363Z" transform="translate(-96.98 -170.688)"/>
            <path id="Path_4805" data-name="Path 4805" d="M104.125,206.141a.187.187,0,0,0,.162.22l1,.155a.192.192,0,0,0,.222-.162l.21-1.351-1.385-.213Z" transform="translate(-85.781 -169.028)"/>
            <path id="Path_4806" data-name="Path 4806" d="M86.669,203.412a.2.2,0,0,0,.162.224l1,.151a.194.194,0,0,0,.222-.162l.213-1.36-1.392-.215Z" transform="translate(-71.401 -166.767)"/>
            <path id="Path_4807" data-name="Path 4807" d="M115.663,189.938l-2.329-.352a.234.234,0,0,0-.27.2l-.335,2.163a.241.241,0,0,0,.2.27l2.334.352a.233.233,0,0,0,.266-.2l.333-2.165a.234.234,0,0,0-.2-.266Z" transform="translate(-92.872 -156.483)"/>
            <path id="Path_4808" data-name="Path 4808" d="M90.235,187.879l-3.208-.493a.233.233,0,0,0-.268.2l-.282,1.844a.234.234,0,0,0,.2.268l3.2.493a.241.241,0,0,0,.273-.2l.28-1.837a.236.236,0,0,0-.2-.275Z" transform="translate(-71.243 -154.667)"/>
            <path id="Path_4809" data-name="Path 4809" d="M174.039,142.957,158.87,124.212l1.274-1.032,15.169,18.747Z" transform="translate(-130.937 -101.756)"/>
            <path id="Path_4810" data-name="Path 4810" d="M180.666,148.581,166.14,130.63l1.115.072L181.3,148.065Z" transform="translate(-136.928 -107.897)"/>
            <path id="Path_4811" data-name="Path 4811" d="M246.258,222.7a2.2,2.2,0,1,1-2.2-2.2A2.2,2.2,0,0,1,246.258,222.7Z" transform="translate(-199.317 -182.012)"/>
            <path id="Path_4812" data-name="Path 4812" d="M498.832,221.494a14.974,14.974,0,0,0,7.489-2l-.312-.312a14.577,14.577,0,0,1-19.86-19.866l-.312-.317a15,15,0,0,0,13,22.494Z" transform="translate(-398.783 -164.447)"/>
            <path id="Path_4813" data-name="Path 4813" d="M443.279,26.667a4.144,4.144,0,0,1,2.024-.352,1.644,1.644,0,0,1,1.261,1.2,2.429,2.429,0,0,1-.585,2.052l-.03,1.223a.38.38,0,0,1-.1.238c-.12.134-.344.384-.641.664l-2.861,2.537a.93.93,0,0,0-.307.775,3.2,3.2,0,0,0,.014.382.685.685,0,0,1-.176.352.2.2,0,0,1-.31-.012,1.548,1.548,0,0,1-.019-1.577l2.819-2.489s.821-1,.528-1.607Z" transform="translate(-363.719 -21.657)"/>
            <path id="Path_4814" data-name="Path 4814" d="M445.564,29.731a2.14,2.14,0,1,1-.634-1.512,2.142,2.142,0,0,1,.634,1.512Z" transform="translate(-363.673 -22.738)"/>
            <path id="Path_4815" data-name="Path 4815" d="M444.89,29.4a1.818,1.818,0,1,0,1.293.527A1.825,1.825,0,0,0,444.89,29.4Zm.014,3.254a1.429,1.429,0,1,1,1.01-.423,1.429,1.429,0,0,1-1.01.423Z" transform="translate(-365.148 -24.221)"/>
            <path id="Path_4816" data-name="Path 4816" d="M422.31,39.007l4.95-3.687a.987.987,0,0,1,1.182.428,1.29,1.29,0,0,1,.09,1.022l-4.422,4.14Z" transform="translate(-348.042 -29.054)"/>
            <path id="Path_4817" data-name="Path 4817" d="M422.861,55.514a1.311,1.311,0,1,1-1.314-1.3A1.311,1.311,0,0,1,422.861,55.514Z" transform="translate(-346.332 -44.745)"/>
            <path id="Path_4818" data-name="Path 4818" d="M423.063,56.06a.985.985,0,1,0,.987.981.985.985,0,0,0-.987-.981Zm0,1.663a.673.673,0,1,1,.005,0Z" transform="translate(-347.848 -46.184)"/>
            <path id="Path_4819" data-name="Path 4819" d="M426.121,59.74a.335.335,0,1,0,.338.331.336.336,0,0,0-.338-.331Z" transform="translate(-350.904 -49.216)"/>
            <path id="Path_4820" data-name="Path 4820" d="M101.978,83.435h0a5.556,5.556,0,0,0-3.069-.044h0a6.331,6.331,0,0,0-3.03-.118h0a6.3,6.3,0,0,0-2.9-.2h0a5.732,5.732,0,0,0-2.819-.3h0a5.67,5.67,0,0,0-2.949-.479h0a7.085,7.085,0,0,0-2.863-.777l-1.323-1.258a2.1,2.1,0,0,0-1.682-.573c-2.533.284-9.21,1.453-12,6.19L96.887,87.7h5.57l1.133-4.267A3.772,3.772,0,0,0,101.978,83.435Z" transform="translate(-57.135 -65.78)"/>
            <path id="Path_4821" data-name="Path 4821" d="M137.231,80.229,138.64,81.8a6.7,6.7,0,0,1,3.048.965h0a5.264,5.264,0,0,1,3.137.6h0a5.28,5.28,0,0,1,2.995.37h0a5.757,5.757,0,0,1,3.083.247h0a5.805,5.805,0,0,1,3.227.15h0a5.079,5.079,0,0,1,3.268.053h0a3.9,3.9,0,0,1,1.388-.1l.176-.652a3.849,3.849,0,0,0-1.612,0h0a5.547,5.547,0,0,0-3.069-.044h0a6.349,6.349,0,0,0-3.033-.118h0a6.3,6.3,0,0,0-2.9-.2h0a5.739,5.739,0,0,0-2.819-.3h0a5.684,5.684,0,0,0-2.954-.479h0a7.076,7.076,0,0,0-2.859-.777l-1.311-1.252a2.114,2.114,0,0,0-1.684-.573l-.153.018A2.186,2.186,0,0,1,137.231,80.229Z" transform="translate(-112.561 -65.774)"/>
            <path id="Path_4822" data-name="Path 4822" d="M102.457,109.007l.275-1.034c-10.746.139-27.393-1.837-32.139-2.433a9.483,9.483,0,0,0-1.244,1.647l27.537,1.82Z" transform="translate(-57.135 -87.115)"/>
            <path id="Path_4823" data-name="Path 4823" d="M480.239,2.986l-.583.275-.386-.816.585-.275Z" transform="translate(-394.978 -1.788)"/>
            <path id="Path_4824" data-name="Path 4824" d="M476.054,5.284l-.439.208-.386-.817.44-.2Z" transform="translate(-391.648 -3.683)"/>
            <rect id="Rectangle_4775" data-name="Rectangle 4775" width="0.803" height="0.9" transform="translate(80.719 2.346) rotate(-25.43)"/>
            <path id="Path_4825" data-name="Path 4825" d="M218.589,239.593l-3.266.264v-.6l-2.509-.692-4.194,1.187v.528l.528.4,1.527-.338,2.114,2.447.176.389,5.709-2.7S219.408,239.826,218.589,239.593Zm-4.464,2.318-.308-1.046,3.391-.412Z" transform="translate(-171.935 -196.929)"/>
            <path id="Path_4826" data-name="Path 4826" d="M210.12,196.058a5.186,5.186,0,0,0-2.29-3.934,6.7,6.7,0,0,0-2.579-.666l-2.447-.148.453,2.195a10.306,10.306,0,0,1,2.729.308,3.15,3.15,0,0,1,1.455,1.585,3.646,3.646,0,0,1-.617,3.81l-4.7,5.845c-2.054,2.669-5.866,2.042-5.866,2.042l-20.535-2.228a9.854,9.854,0,0,1-5.688-2.29l-6.428-6.664a5.379,5.379,0,0,0-2.466-1.663,1.476,1.476,0,0,0-1.705.648c-.608,1.533,1.369,3.257,1.369,3.257l6.033,5.783a9.414,9.414,0,0,0,5.949,3.28s18.849,2.494,22.934,2.78a10.783,10.783,0,0,0,6.261-1.5,3.551,3.551,0,0,0,.893-.777l4.533-5.544C210.351,198.614,210.12,196.058,210.12,196.058Z" transform="translate(-131.335 -158.112)"/>
            <path id="Path_4827" data-name="Path 4827" d="M161.819,208.054a5.3,5.3,0,0,1,2.475,1.661l6.426,6.666a9.906,9.906,0,0,0,5.686,2.29l20.546,2.218a7.827,7.827,0,0,0,3.326-.292,7.769,7.769,0,0,1-2.082.009l-20.544-2.221a9.854,9.854,0,0,1-5.688-2.29l-6.428-6.664a5.379,5.379,0,0,0-2.466-1.663,1.774,1.774,0,0,0-1.409.254Z" transform="translate(-133.251 -171.524)"/>
            <path id="Path_4828" data-name="Path 4828" d="M392.04,196.058a5.186,5.186,0,0,0-2.29-3.934,6.7,6.7,0,0,0-2.579-.666l-2.447-.148.072.352,1.131.069a6.782,6.782,0,0,1,2.581.666,5.187,5.187,0,0,1,2.29,3.935s.231,2.556-2.713,6.111l-4.529,5.547a3.375,3.375,0,0,1-.881.775,10.681,10.681,0,0,1-2.535,1.1,10.762,10.762,0,0,0,3.779-1.383,3.551,3.551,0,0,0,.893-.777l4.517-5.531C392.27,198.614,392.04,196.058,392.04,196.058Z" transform="translate(-313.294 -158.112)"/>
            <path id="Path_4829" data-name="Path 4829" d="M195.387,241.49l-2.447,2.253.294.278,2.468-2.2Z" transform="translate(-159.008 -199.325)"/>
            <path id="Path_4830" data-name="Path 4830" d="M196.66,247.4l.291.28L199.4,245.5l-.315-.329Z" transform="translate(-162.074 -202.362)"/>
            <path id="Path_4831" data-name="Path 4831" d="M260.8,269.45l-.551,2.7.4.051.6-2.7Z" transform="translate(-214.479 -222.405)"/>
            <path id="Path_4832" data-name="Path 4832" d="M265.34,272.718l.4.053.6-2.723L265.9,270Z" transform="translate(-218.674 -222.859)"/>
            <path id="Path_4833" data-name="Path 4833" d="M403.74,265.934l1.822,1.365.254-.31-1.8-1.4Z" transform="translate(-332.733 -219.211)"/>
            <path id="Path_4834" data-name="Path 4834" d="M406.95,261.95l1.823,1.372.255-.312-1.806-1.4Z" transform="translate(-335.379 -215.926)"/>
            <path id="Path_4835" data-name="Path 4835" d="M433.93,219.83a3.159,3.159,0,0,1,.028.446l2.352.056c.019-.157.033-.292.04-.4Z" transform="translate(-357.614 -181.435)"/>
            <path id="Path_4836" data-name="Path 4836" d="M433.46,225.4l2.267.055c.041-.141.078-.278.1-.405l-2.29-.092A2.911,2.911,0,0,1,433.46,225.4Z" transform="translate(-357.227 -185.669)"/>
            <path id="Path_4837" data-name="Path 4837" d="M423.29,195.925c.107.023.164.039.164.039.086.046.167.1.245.144l1.126-2.052c-.123-.048-.255-.093-.391-.136Z" transform="translate(-348.844 -160.059)"/>
            <path id="Path_4838" data-name="Path 4838" d="M419.17,192.7,418,194.743c.176.025.331.053.469.078l1.117-2.036C419.452,192.753,419.307,192.723,419.17,192.7Z" transform="translate(-344.485 -159.052)"/>
            <path id="Path_4839" data-name="Path 4839" d="M164.845,213.237c-.55.627-1.844.389-2.891-.528s-1.455-2.17-.9-2.8,1.843-.389,2.891.528S165.393,212.608,164.845,213.237Z" transform="translate(-132.526 -172.98)"/>
            <path id="Path_4840" data-name="Path 4840" d="M326.12,170.312a21.177,21.177,0,0,1,3.967-3.372,26.828,26.828,0,0,1,7.293,1.684l.5.844,2.23,1.092a20.282,20.282,0,0,1,1.341,4.663,38.107,38.107,0,0,1-3.076,3.819A31,31,0,0,1,327.9,178.1a38.884,38.884,0,0,1-2.184-4.268A10.446,10.446,0,0,1,326.12,170.312Z" transform="translate(-268.434 -137.845)"/>
            <path id="Path_4841" data-name="Path 4841" d="M334.65,224.05c.352.636.62,1.1.62,1.1a30.994,30.994,0,0,0,10.467.942c.46-.5.891-1,1.272-1.464A69.8,69.8,0,0,1,334.65,224.05Z" transform="translate(-275.804 -184.928)"/>
            <path id="Path_4842" data-name="Path 4842" d="M325.72,189.6c.018.048.032.1.051.152l14.736,2.516c.59-.765.941-1.275.941-1.275a8.424,8.424,0,0,0-.3-1.628c-6.166-1.585-15.026-3.284-15.026-3.284a10.447,10.447,0,0,0-.4,3.52Z" transform="translate(-268.433 -153.61)"/>
            <path id="Path_4843" data-name="Path 4843" d="M327.691,186.08c-.028.092-.056.176-.081.273l15.19,3.333c-.025-.1-.048-.192-.074-.289l-.1-.056C336.473,187.754,327.691,186.08,327.691,186.08Z" transform="translate(-270.005 -153.595)"/>
            <path id="Path_4844" data-name="Path 4844" d="M340.768,207.507,325.75,204.93a1.493,1.493,0,0,0,.011.2c.018.048.032.1.051.152l14.736,2.516C340.621,207.694,340.7,207.6,340.768,207.507Z" transform="translate(-268.472 -169.15)"/>
            <path id="Path_4845" data-name="Path 4845" d="M355.012,173.067l2.167.231a28.815,28.815,0,0,0-.96-2.738l-2.23-1.092-.495-.844a26.828,26.828,0,0,0-7.293-1.684,5.333,5.333,0,0,0-.941.6,44.919,44.919,0,0,1,7.275,1.8Z" transform="translate(-284.548 -137.81)"/>
            <path id="Path_4846" data-name="Path 4846" d="M330.709,192.655a1.075,1.075,0,1,1-1.076-1.075A1.075,1.075,0,0,1,330.709,192.655Z" transform="translate(-270.776 -158.127)"/>
            <path id="Path_4847" data-name="Path 4847" d="M331.75,194.072a.772.772,0,1,1-.227-.546.775.775,0,0,1,.227.546Z" transform="translate(-272.127 -159.544)"/>
            <path id="Path_4848" data-name="Path 4848" d="M333.67,194.864a.729.729,0,0,0,.352,0v-1.506a.794.794,0,0,0-.352,0Z" transform="translate(-274.986 -159.575)"/>
            <path id="Path_4849" data-name="Path 4849" d="M389.353,204.378a1.076,1.076,0,1,1-1.078-1.078A1.076,1.076,0,0,1,389.353,204.378Z" transform="translate(-319.102 -167.801)"/>
            <path id="Path_4850" data-name="Path 4850" d="M390.45,205.8a.775.775,0,1,1-.775-.773A.775.775,0,0,1,390.45,205.8Z" transform="translate(-320.503 -169.226)"/>
            <path id="Path_4851" data-name="Path 4851" d="M392.32,206.554a.8.8,0,0,0,.352,0v-1.506a.641.641,0,0,0-.176-.019.635.635,0,0,0-.176.019Z" transform="translate(-323.32 -169.224)"/>
            <path id="Path_4852" data-name="Path 4852" d="M390.235,182.44l-2.209-1.08a25.937,25.937,0,0,1,1.289,5.5,48.36,48.36,0,0,1-2.766,4.156c1.193-.021,1.95-.093,1.95-.093a38.111,38.111,0,0,0,3.076-3.812A19.9,19.9,0,0,0,390.235,182.44Z" transform="translate(-318.569 -149.734)"/>
            <path id="Path_4853" data-name="Path 4853" d="M262.024,245.4a.412.412,0,1,1-.409-.41.412.412,0,0,1,.409.41Z" transform="translate(-215.262 -202.203)"/>
            <path id="Path_4854" data-name="Path 4854" d="M262.455,245.936a.3.3,0,1,1-.3-.3.3.3,0,0,1,.3.3Z" transform="translate(-215.806 -202.738)"/>
            <path id="Path_4855" data-name="Path 4855" d="M231.072,240.739a.509.509,0,1,1-.15-.361A.511.511,0,0,1,231.072,240.739Z" transform="translate(-189.591 -198.275)"/>
            <path id="Path_4856" data-name="Path 4856" d="M231.6,241.509a.37.37,0,1,1-.369-.344A.37.37,0,0,1,231.6,241.509Z" transform="translate(-190.258 -199.045)"/>
            <path id="Path_4857" data-name="Path 4857" d="M248.846,225.931a1.513,1.513,0,1,1-1.51-1.511A1.513,1.513,0,0,1,248.846,225.931Z" transform="translate(-202.588 -185.238)"/>
            <path id="Path_4858" data-name="Path 4858" d="M250.484,228.057A1.057,1.057,0,1,1,249.427,227,1.057,1.057,0,0,1,250.484,228.057Z" transform="translate(-204.689 -187.362)"/>
            <path id="Path_4859" data-name="Path 4859" d="M250.195,230.76l-1.751-1.18a1.057,1.057,0,1,0,1.751,1.18Z" transform="translate(-204.578 -189.489)" opacity="0.2"/>
            <path id="Path_4860" data-name="Path 4860" d="M396.863,167.611a1.511,1.511,0,1,1-1.511-1.511A1.511,1.511,0,0,1,396.863,167.611Z" transform="translate(-324.575 -137.101)"/>
            <path id="Path_4861" data-name="Path 4861" d="M398.5,169.737a1.057,1.057,0,1,1-1.057-1.057A1.057,1.057,0,0,1,398.5,169.737Z" transform="translate(-326.676 -139.226)"/>
            <path id="Path_4862" data-name="Path 4862" d="M398.3,172.48l-1.753-1.18a1.057,1.057,0,1,0,1.753,1.18Z" transform="translate(-326.646 -141.386)" opacity="0.2"/>
            <path id="Path_4863" data-name="Path 4863" d="M388.238,76.75a1,1,0,0,0-1.078,1.133v.824c0,.661.268,1.029.787,1.029a.675.675,0,0,0,.654-.4v.821c0,.433-.141.555-.389.555s-.375-.122-.375-.444v-.16h-.669v.115c0,.722.352,1.134,1.057,1.134.731,0,1.08-.412,1.08-1.171v-2.3A.993.993,0,0,0,388.238,76.75Zm.363,1.9c0,.322-.141.444-.363.444s-.372-.122-.372-.444v-.81c0-.321.144-.437.372-.437s.363.116.363.437Z" transform="translate(-319.069 -63.354)"/>
            <path id="Path_4864" data-name="Path 4864" d="M402.7,76.75a1,1,0,0,0-1.071,1.133v.824c0,.661.262,1.029.782,1.029a.675.675,0,0,0,.657-.4v.821c0,.433-.139.555-.388.555s-.368-.122-.368-.444v-.16h-.671v.115c0,.722.352,1.134,1.057,1.134.735,0,1.082-.412,1.082-1.171v-2.3A1,1,0,0,0,402.7,76.75Zm.368,1.9c0,.322-.139.444-.368.444s-.365-.122-.365-.444v-.81c0-.321.143-.437.365-.437s.368.116.368.437Z" transform="translate(-330.994 -63.354)"/>
            <path id="Path_4865" data-name="Path 4865" d="M381.957,67.28a3.955,3.955,0,1,0,3.953,3.954A3.955,3.955,0,0,0,381.957,67.28Zm0,7.594a3.643,3.643,0,1,1,3.641-3.642A3.643,3.643,0,0,1,381.957,74.874Z" transform="translate(-311.526 -55.544)"/>
            <path id="Path_4866" data-name="Path 4866" d="M328.916,262.523l6.079,3.43.352-.352,2.57-2.577,1.688.5.615-.4.22-.632-4.792-1.635-2.875.574-.048.669-3.648-.56C328.142,261.73,328.916,262.523,328.916,262.523Zm1.647.09,3.78.738-.433,1.152Z" transform="translate(-270.83 -215.41)"/>
            <path id="Path_4867" data-name="Path 4867" d="M365.2,263.187a.509.509,0,1,0,.544-.472A.509.509,0,0,0,365.2,263.187Z" transform="translate(-300.973 -216.832)"/>
            <path id="Path_4868" data-name="Path 4868" d="M366,263.856a.368.368,0,1,0,.391-.34A.368.368,0,0,0,366,263.856Z" transform="translate(-301.625 -217.492)"/>
            <path id="Path_4869" data-name="Path 4869" d="M360.994,281.4a.508.508,0,0,0,1.013.074.5.5,0,0,0-.469-.543A.509.509,0,0,0,360.994,281.4Z" transform="translate(-297.503 -231.947)"/>
            <path id="Path_4870" data-name="Path 4870" d="M361.816,282.066a.366.366,0,1,0,.391-.34A.366.366,0,0,0,361.816,282.066Z" transform="translate(-298.181 -232.6)"/>
            <path id="Path_4871" data-name="Path 4871" d="M381.985,268.24a1.51,1.51,0,1,0,.515-1.042A1.511,1.511,0,0,0,381.985,268.24Z" transform="translate(-314.803 -220.242)"/>
            <path id="Path_4872" data-name="Path 4872" d="M384.517,270.406a1.057,1.057,0,1,0,.362-.724A1.057,1.057,0,0,0,384.517,270.406Z" transform="translate(-316.889 -222.379)"/>
            <path id="Path_4873" data-name="Path 4873" d="M385.29,273.467l1.832-1.057a1.058,1.058,0,0,1-1.832,1.057Z" transform="translate(-317.528 -224.926)" opacity="0.2"/>
          </g>
        </g>
      </g>
      <path id="Path_4893" data-name="Path 4893" d="M18606.316-19007.6c6.1-2.031,85.336-32.508,99.559-44.7s25.4-50.793,67.049-32.508,180.83,66.031,197.086,55.873,50.8-58.922,75.178-37.588,42.668,40.635,65.018,87.367,114.8,44.7,132.068,30.479,60.955-67.049,84.32-85.336,62.986-67.049,79.24-50.795,34.541,55.873,49.779,55.873,93.465-72.127,96.512-68.064,44.7,115.811,57.906,117.844,93.461-34.541,110.732-49.779,4.064-70.1,47.748-42.668,119.875,78.225,128,68.066,144.26-34.541,144.26-34.541l-31.494,213.34-1395.854-41.652Z" transform="translate(-18635 19650)" fill="#282828"/>
      <path id="Path_4894" data-name="Path 4894" d="M18680.479-18861.311c4.064-5.08,40.637-138.164,197.086-102.607s299.693,110.734,351.5,61.971,94.48-154.416,201.15-101.59,252.961,145.273,290.549,95.494-9.145-85.338,88.383-55.875,193.023,22.352,193.023,22.352v65.018Z" transform="translate(-18635 19650)" fill="#403e3e"/>
    </g>
  </g>
</svg>
