<svg xmlns="http://www.w3.org/2000/svg" width="34" height="24" viewBox="0 0 34 24">
  <g id="motorcycle" transform="translate(-4 -10)">
    <g id="Path_2586" data-name="Path 2586" transform="translate(-4.143 -2.143)" fill="#fff" fill-rule="evenodd">
      <path d="M 36.57142639160156 36.04286193847656 C 33.55446624755859 36.04286193847656 31.09999656677246 33.5883903503418 31.09999656677246 30.57143020629883 C 31.09999656677246 27.55447006225586 33.55446624755859 25.10000038146973 36.57142639160156 25.10000038146973 C 39.58838653564453 25.10000038146973 42.0428581237793 27.55447006225586 42.0428581237793 30.57143020629883 C 42.0428581237793 33.5883903503418 39.58838653564453 36.04286193847656 36.57142639160156 36.04286193847656 Z M 36.57142639160156 26.61428070068359 C 34.38945770263672 26.61428070068359 32.61428451538086 28.38945007324219 32.61428451538086 30.57143020629883 C 32.61428451538086 32.75339889526367 34.38945770263672 34.52857208251953 36.57142639160156 34.52857208251953 C 38.75339508056641 34.52857208251953 40.52856826782227 32.75339889526367 40.52856826782227 30.57143020629883 C 40.52856826782227 28.38945007324219 38.75339508056641 26.61428070068359 36.57142639160156 26.61428070068359 Z" stroke="none"/>
      <path d="M 36.57142639160156 35.9428596496582 C 39.53324508666992 35.9428596496582 41.94285583496094 33.53324890136719 41.94285583496094 30.57143020629883 C 41.94285583496094 27.60960960388184 39.53324508666992 25.20000076293945 36.57142639160156 25.20000076293945 C 33.6096076965332 25.20000076293945 31.19999694824219 27.60960960388184 31.19999694824219 30.57143020629883 C 31.19999694824219 33.53324890136719 33.6096076965332 35.9428596496582 36.57142639160156 35.9428596496582 M 36.57142639160156 26.51428031921387 C 38.80853652954102 26.51428031921387 40.62856674194336 28.33431053161621 40.62856674194336 30.57143020629883 C 40.62856674194336 32.80854034423828 38.80853652954102 34.62857055664062 36.57142639160156 34.62857055664062 C 34.33431625366211 34.62857055664062 32.51428604125977 32.80854034423828 32.51428604125977 30.57143020629883 C 32.51428604125977 28.33431053161621 34.33431625366211 26.51428031921387 36.57142639160156 26.51428031921387 M 36.57142639160156 36.14286041259766 C 33.49436569213867 36.14286041259766 30.99999618530273 33.64849090576172 30.99999618530273 30.57143020629883 C 30.99999618530273 27.49436950683594 33.49436569213867 25 36.57142639160156 25 C 39.64848709106445 25 42.14285659790039 27.49436950683594 42.14285659790039 30.57143020629883 C 42.14285659790039 33.64849090576172 39.64848709106445 36.14286041259766 36.57142639160156 36.14286041259766 Z M 36.57142639160156 26.71428108215332 C 34.44117736816406 26.71428108215332 32.71428680419922 28.44116973876953 32.71428680419922 30.57143020629883 C 32.71428680419922 32.70169067382812 34.44117736816406 34.42856979370117 36.57142639160156 34.42856979370117 C 38.70168685913086 34.42856979370117 40.42856597900391 32.70169067382812 40.42856597900391 30.57143020629883 C 40.42856597900391 28.44116973876953 38.70168685913086 26.71428108215332 36.57142639160156 26.71428108215332 Z" stroke="none" fill="#da291c"/>
    </g>
    <g id="Path_2589" data-name="Path 2589" transform="translate(-2.312 -0.857)" fill="#fff" fill-rule="evenodd">
      <path d="M 30.90447616577148 22.75714111328125 L 19.96161651611328 22.75714111328125 L 19.96161651611328 22.00000190734863 L 19.96161651611328 21.92240142822266 L 19.88644790649414 21.90313148498535 L 19.15362358093262 21.71529197692871 C 20.04839515686035 18.40408134460449 23.0502986907959 16.10000228881836 26.48869705200195 16.10000228881836 L 29.10721778869629 16.10000228881836 L 29.10721778869629 17.61429214477539 L 26.48869705200195 17.61429214477539 C 24.14546775817871 17.61429214477539 21.98583793640137 18.98259162902832 20.98677635192871 21.10019111633301 L 20.91946792602539 21.24286079406738 L 21.07721710205078 21.24286079406738 L 30.90447616577148 21.24286079406738 L 30.90447616577148 22.75714111328125 Z" stroke="none"/>
      <path d="M 26.48869705200195 16.20000076293945 C 23.12942504882812 16.20000076293945 20.1923656463623 18.42851448059082 19.27724075317383 21.64374351501465 L 20.06161689758301 21.84480094909668 L 20.06161689758301 22.65714263916016 L 30.80447769165039 22.65714263916016 L 30.80447769165039 21.34286117553711 L 20.76171684265137 21.34286117553711 L 20.89633750915527 21.05752182006836 C 21.91182708740234 18.90509223937988 24.10695648193359 17.51429176330566 26.48869705200195 17.51429176330566 L 29.00721740722656 17.51429176330566 L 29.00721740722656 16.20000076293945 L 26.48869705200195 16.20000076293945 M 26.48869705200195 16.00000190734863 L 29.20721626281738 16.00000190734863 L 29.20721626281738 17.71429252624512 L 26.48869705200195 17.71429252624512 C 24.1414966583252 17.71429252624512 22.05041694641113 19.0800609588623 21.07721710205078 21.14286231994629 L 31.00447654724121 21.14286231994629 L 31.00447654724121 22.85714149475098 L 19.86161804199219 22.85714149475098 L 19.86161804199219 22.00000190734863 L 19.03129768371582 21.78717231750488 C 19.9040470123291 18.38166236877441 22.97304725646973 16.00000190734863 26.48869705200195 16.00000190734863 Z" stroke="none" fill="#da291c"/>
    </g>
    <g id="Path_2590" data-name="Path 2590" transform="translate(-0.286 -0.518)" fill="#fff" fill-rule="evenodd">
      <path d="M 20.15085983276367 29.22635269165039 L 18.12528800964355 25.54445648193359 L 19.43487739562988 24.80984878540039 L 21.46044731140137 28.49174499511719 L 20.15085983276367 29.22635269165039 Z M 17.88309288024902 22.41810035705566 L 6.848793029785156 22.41810035705566 C 6.4359130859375 22.41810035705566 6.100002765655518 22.07845115661621 6.100002765655518 21.66096115112305 L 6.100002765655518 18.23239135742188 C 6.100002765655518 17.81490135192871 6.4359130859375 17.47524070739746 6.848793029785156 17.47524070739746 L 14.36663246154785 17.47524070739746 C 14.56153297424316 17.47524070739746 14.74612331390381 17.55057144165039 14.88638305664062 17.68735122680664 L 18.40285301208496 21.11593055725098 C 18.62398338317871 21.33155059814453 18.69244384765625 21.65694046020508 18.57724380493164 21.94490051269531 C 18.46222305297852 22.23235130310059 18.18975257873535 22.41810035705566 17.88309288024902 22.41810035705566 Z M 7.597582817077637 18.98953056335449 L 7.597582817077637 19.08953094482422 L 7.597582817077637 20.80381011962891 L 7.597582817077637 20.90381050109863 L 7.697582721710205 20.90381050109863 L 15.78198337554932 20.90381050109863 L 16.02778244018555 20.90381050109863 L 15.85179328918457 20.73221015930176 L 14.09361267089844 19.01793098449707 L 14.06448268890381 18.98953056335449 L 14.02380275726318 18.98953056335449 L 7.697582721710205 18.98953056335449 L 7.597582817077637 18.98953056335449 Z M 34.91897964477539 20.85394096374512 L 28.4777717590332 19.85322761535645 L 28.70584487915039 18.35653686523438 L 32.96477127075195 19.0181999206543 L 33.10128402709961 19.03940963745117 L 33.07879257202148 18.90311050415039 L 32.59379196166992 15.96465015411377 L 32.57373428344727 15.84312057495117 L 32.45892333984375 15.88771057128906 L 28.00653457641602 17.61698150634766 L 27.46829986572266 16.20395088195801 L 33.74895095825195 13.76451778411865 L 34.91897964477539 20.85394096374512 Z" stroke="none"/>
      <path d="M 33.67034530639648 13.90231895446777 L 27.59711074829102 16.26119041442871 L 28.06415557861328 17.48732757568359 L 32.6523323059082 15.7053108215332 L 33.22245407104492 19.1594409942627 L 28.78959465026855 18.47075271606445 L 28.59164619445801 19.76971626281738 L 34.79782104492188 20.73391342163086 L 33.67034530639648 13.90231895446777 M 6.848793029785156 17.57524108886719 C 6.491054534912109 17.57524108886719 6.200004577636719 17.87004089355469 6.200004577636719 18.23239135742188 L 6.200004577636719 21.66096115112305 C 6.200004577636719 22.0233097076416 6.491054534912109 22.31809997558594 6.848793029785156 22.31809997558594 L 17.88309288024902 22.31809997558594 C 18.14863204956055 22.31809997558594 18.38466262817383 22.15702056884766 18.48440361022949 21.90776062011719 C 18.58451271057129 21.65750122070312 18.52509307861328 21.37479019165039 18.33304214477539 21.18753051757812 L 14.81657218933105 17.75895118713379 C 14.69508361816406 17.64048004150391 14.53529357910156 17.57524108886719 14.36662292480469 17.57524108886719 L 6.848793029785156 17.57524108886719 M 16.27359199523926 21.00381088256836 L 7.497581481933594 21.00381088256836 L 7.497581481933594 18.88953018188477 L 14.10517311096191 18.88953018188477 L 16.27359199523926 21.00381088256836 M 19.39586639404297 24.94638824462891 L 18.26070404052734 25.58315277099609 L 20.18986892700195 29.08981323242188 L 21.32503318786621 28.45304870605469 L 19.39586639404297 24.94638824462891 M 33.82756423950195 13.62670135498047 L 35.04014205932617 20.97396087646484 L 28.36388397216797 19.93673133850098 L 28.62209320068359 18.24233055114746 L 32.98012161254883 18.91938972473145 L 32.49512481689453 15.98093032836914 L 27.94891357421875 17.74664115905762 L 27.3394832611084 16.14669990539551 L 33.82756423950195 13.62670135498047 Z M 6.848793029785156 17.37524032592773 L 14.36662292480469 17.37524032592773 C 14.58663368225098 17.37524032592773 14.79798316955566 17.46146965026855 14.95620346069336 17.61576080322266 L 18.47266387939453 21.04433059692383 C 18.72161293029785 21.28707122802734 18.79970359802246 21.65804100036621 18.67009353637695 21.98204040527344 C 18.54048347473145 22.30595970153809 18.2291431427002 22.51810073852539 17.88309288024902 22.51810073852539 L 6.848793029785156 22.51810073852539 C 6.380012512207031 22.51810073852539 6.000003814697266 22.13436126708984 6.000003814697266 21.66096115112305 L 6.000003814697266 18.23239135742188 C 6.000003814697266 17.75899124145508 6.380012512207031 17.37524032592773 6.848793029785156 17.37524032592773 Z M 15.781982421875 20.80381011962891 L 14.0238037109375 19.08953094482422 L 7.697582244873047 19.08953094482422 L 7.697582244873047 20.80381011962891 L 15.781982421875 20.80381011962891 Z M 19.47389221191406 24.67329978942871 L 21.59587287902832 28.53044128417969 L 20.11184310913086 29.36289978027344 L 17.9898624420166 25.50576019287109 L 19.47389221191406 24.67329978942871 Z" stroke="none" fill="#da291c"/>
    </g>
    <g id="Path_2591" data-name="Path 2591" transform="translate(-1.837 -1.714)" fill="#fff" fill-rule="evenodd">
      <path d="M 23.71428680419922 27.0428581237793 L 18.57142639160156 27.0428581237793 C 17.20867729187012 27.0428581237793 16.09999656677246 25.93417739868164 16.09999656677246 24.5714282989502 C 16.09999656677246 23.20867919921875 17.20867729187012 22.09999847412109 18.57142639160156 22.09999847412109 L 26.18571662902832 22.09999847412109 L 26.18571662902832 24.5714282989502 C 26.18571662902832 25.93417739868164 25.07703590393066 27.0428581237793 23.71428680419922 27.0428581237793 Z M 18.57142639160156 23.61428833007812 C 18.04365730285645 23.61428833007812 17.61428642272949 24.04365921020508 17.61428642272949 24.5714282989502 C 17.61428642272949 25.09919738769531 18.04365730285645 25.52856826782227 18.57142639160156 25.52856826782227 L 23.71428680419922 25.52856826782227 C 24.24205589294434 25.52856826782227 24.67142677307129 25.09919738769531 24.67142677307129 24.5714282989502 L 24.67142677307129 23.71428871154785 L 24.67142677307129 23.61428833007812 L 24.57142639160156 23.61428833007812 L 18.57142639160156 23.61428833007812 Z" stroke="none"/>
      <path d="M 18.57142639160156 22.19999885559082 C 17.26381683349609 22.19999885559082 16.19999694824219 23.26381874084473 16.19999694824219 24.5714282989502 C 16.19999694824219 25.87903785705566 17.26381683349609 26.94285774230957 18.57142639160156 26.94285774230957 L 23.71428680419922 26.94285774230957 C 25.02189636230469 26.94285774230957 26.08571624755859 25.87903785705566 26.08571624755859 24.5714282989502 L 26.08571624755859 22.19999885559082 L 18.57142639160156 22.19999885559082 M 23.71428680419922 25.62856864929199 L 18.57142639160156 25.62856864929199 C 17.98851585388184 25.62856864929199 17.51428604125977 25.15433883666992 17.51428604125977 24.5714282989502 C 17.51428604125977 23.98851776123047 17.98851585388184 23.5142879486084 18.57142639160156 23.5142879486084 L 24.77142715454102 23.5142879486084 L 24.77142715454102 24.5714282989502 C 24.77142715454102 25.15433883666992 24.29719734191895 25.62856864929199 23.71428680419922 25.62856864929199 M 18.57142639160156 21.99999809265137 L 26.28571701049805 21.99999809265137 L 26.28571701049805 24.5714282989502 C 26.28571701049805 25.99162864685059 25.13448715209961 27.14285850524902 23.71428680419922 27.14285850524902 L 18.57142639160156 27.14285850524902 C 17.15122604370117 27.14285850524902 15.99999618530273 25.99162864685059 15.99999618530273 24.5714282989502 C 15.99999618530273 23.1512279510498 17.15122604370117 21.99999809265137 18.57142639160156 21.99999809265137 Z M 23.71428680419922 25.42856788635254 C 24.18768692016602 25.42856788635254 24.57142639160156 25.04482841491699 24.57142639160156 24.5714282989502 L 24.57142639160156 23.71428871154785 L 18.57142639160156 23.71428871154785 C 18.09802627563477 23.71428871154785 17.71428680419922 24.0980281829834 17.71428680419922 24.5714282989502 C 17.71428680419922 25.04482841491699 18.09802627563477 25.42856788635254 18.57142639160156 25.42856788635254 L 23.71428680419922 25.42856788635254 Z" stroke="none" fill="#da291c"/>
    </g>
    <g id="Path_2588" data-name="Path 2588" transform="translate(-0.786 -1.786)" fill="#fff" fill-rule="evenodd">
      <path d="M 24.07143402099609 30.97142601013184 L 10.35714435577393 30.97142601013184 C 9.939654350280762 30.97142601013184 9.600004196166992 30.63177490234375 9.600004196166992 30.21428489685059 C 9.600004196166992 29.79679489135742 9.939654350280762 29.45713424682617 10.35714435577393 29.45713424682617 L 23.6634349822998 29.45713424682617 L 23.71103477478027 29.45713424682617 L 23.74104499816895 29.42019462585449 L 29.05523490905762 22.87968444824219 C 29.19969367980957 22.70192527770996 29.41408348083496 22.59996604919434 29.64342498779297 22.59996604919434 C 29.81640434265137 22.59996604919434 29.98577499389648 22.66018486022949 30.12030410766602 22.76951599121094 C 30.27726364135742 22.89706611633301 30.37516403198242 23.07809448242188 30.3959846496582 23.27926445007324 C 30.41679382324219 23.48043441772461 30.3580150604248 23.67765426635742 30.2304744720459 23.83458518981934 L 24.65904426574707 30.69173431396484 C 24.51461410522461 30.86948585510254 24.30044364929199 30.97142601013184 24.07143402099609 30.97142601013184 Z" stroke="none"/>
      <path d="M 29.64333343505859 22.69996452331543 L 29.64335441589355 22.69996452331543 C 29.44430541992188 22.69996452331543 29.25822448730469 22.78846549987793 29.13284301757812 22.94274520874023 L 23.75861358642578 29.5571346282959 L 10.35714340209961 29.5571346282959 C 9.994794845581055 29.5571346282959 9.700004577636719 29.8519344329834 9.700004577636719 30.21428489685059 C 9.700004577636719 30.57663536071777 9.994794845581055 30.87142562866211 10.35714340209961 30.87142562866211 L 24.07143402099609 30.87142562866211 C 24.27019500732422 30.87142562866211 24.45608520507812 30.78294563293457 24.58143424987793 30.62867546081543 L 30.15287399291992 23.77152442932129 C 30.26356506347656 23.63531494140625 30.3145751953125 23.46415519714355 30.2965145111084 23.28955459594727 C 30.27844429016113 23.11495590209961 30.19347381591797 22.95782470703125 30.05724334716797 22.84711456298828 C 29.93880462646484 22.7508659362793 29.79567337036133 22.69998550415039 29.64333343505859 22.69996452331543 M 29.6434211730957 22.49996948242188 C 29.83332633972168 22.49998474121094 30.02451133728027 22.56280708312988 30.18337440490723 22.6919059753418 C 30.55074310302734 22.99045562744141 30.60663414001465 23.5302848815918 30.30808448791504 23.89765548706055 L 24.73665428161621 30.75479507446289 C 24.57388305664062 30.95511436462402 24.32951354980469 31.07142448425293 24.07143402099609 31.07142448425293 L 10.35714340209961 31.07142448425293 C 9.883754730224609 31.07142448425293 9.500003814697266 30.68768501281738 9.500003814697266 30.21428489685059 C 9.500003814697266 29.74088478088379 9.883754730224609 29.35713577270508 10.35714340209961 29.35713577270508 L 23.66342353820801 29.35713577270508 L 28.97762298583984 22.81662559509277 C 29.14707183837891 22.60811805725098 29.39416885375977 22.49994850158691 29.6434211730957 22.49996948242188 Z" stroke="none" fill="#da291c"/>
    </g>
    <g id="Path_2587" data-name="Path 2587" fill="#fff" fill-rule="evenodd">
      <path d="M 9.51760196685791 33.90000152587891 C 6.530331611633301 33.90000152587891 4.100001335144043 31.44552993774414 4.100001335144043 28.42856979370117 C 4.100001335144043 25.4116096496582 6.530331611633301 22.95713996887207 9.51760196685791 22.95713996887207 C 12.5048713684082 22.95713996887207 14.93520164489746 25.4116096496582 14.93520164489746 28.42856979370117 C 14.93520164489746 31.44552993774414 12.5048713684082 33.90000152587891 9.51760196685791 33.90000152587891 Z M 9.51760196685791 24.4714298248291 C 7.356171607971191 24.4714298248291 5.597721576690674 26.2465991973877 5.597721576690674 28.42856979370117 C 5.597721576690674 30.61054039001465 7.356171607971191 32.38571166992188 9.51760196685791 32.38571166992188 C 11.67902183532715 32.38571166992188 13.43747138977051 30.61054039001465 13.43747138977051 28.42856979370117 C 13.43747138977051 26.2465991973877 11.67902183532715 24.4714298248291 9.51760196685791 24.4714298248291 Z M 32.43733215332031 29.1859302520752 C 32.43730926513672 29.1859302520752 32.43728637695312 29.1859302520752 32.43725967407227 29.1859302520752 C 32.14013290405273 29.18590927124023 31.87085151672363 29.00822067260742 31.75125122070312 28.73324966430664 L 24.33442115783691 11.67442035675049 L 24.30827140808105 11.61429023742676 L 24.24271202087402 11.61429023742676 L 20.22837066650391 11.61429023742676 L 20.22837066650391 10.10000038146973 L 24.7971019744873 10.10000038146973 C 25.0940113067627 10.10000038146973 25.36313056945801 10.27760028839111 25.48271179199219 10.55245971679688 L 33.12237167358398 28.12387084960938 C 33.28869247436523 28.50643920898438 33.11606979370117 28.95417976379395 32.73758316040039 29.12195014953613 C 32.641845703125 29.16440010070801 32.54083633422852 29.1859302520752 32.43733215332031 29.1859302520752 Z" stroke="none"/>
      <path d="M 20.32836151123047 10.20000076293945 L 20.32836151123047 11.51428985595703 L 24.37384033203125 11.51428985595703 L 31.84295082092285 28.6933708190918 C 31.94668197631836 28.93183898925781 32.17996215820312 29.08592987060547 32.43725204467773 29.08592987060547 C 32.52674102783203 29.08592987060547 32.61414337158203 29.06729125976562 32.69705200195312 29.0305290222168 C 33.0255012512207 28.88494110107422 33.17515182495117 28.49610137939453 33.03066253662109 28.16374015808105 L 25.39102172851562 10.59236145019531 C 25.28731155395508 10.35401153564453 25.05418014526367 10.20000076293945 24.7971019744873 10.20000076293945 L 20.32836151123047 10.20000076293945 M 9.517601013183594 23.0571403503418 C 6.585472106933594 23.0571403503418 4.200000762939453 25.46674919128418 4.200000762939453 28.42856979370117 C 4.200000762939453 31.39039039611816 6.585472106933594 33.79999923706055 9.517601013183594 33.79999923706055 C 12.44973182678223 33.79999923706055 14.83520126342773 31.39039039611816 14.83520126342773 28.42856979370117 C 14.83520126342773 25.46674919128418 12.44973182678223 23.0571403503418 9.517601013183594 23.0571403503418 M 9.517601013183594 32.48571014404297 C 7.301031112670898 32.48571014404297 5.497720718383789 30.66567993164062 5.497720718383789 28.42856979370117 C 5.497720718383789 26.19145965576172 7.301031112670898 24.37142944335938 9.517601013183594 24.37142944335938 C 11.73416137695312 24.37142944335938 13.53747177124023 26.19145965576172 13.53747177124023 28.42856979370117 C 13.53747177124023 30.66567993164062 11.73416137695312 32.48571014404297 9.517601013183594 32.48571014404297 M 20.12836074829102 10 L 24.7971019744873 10 C 25.13401031494141 10 25.43892288208008 10.201171875 25.57441139221191 10.51256942749023 L 33.21407318115234 28.08399963378906 C 33.40252304077148 28.51745986938477 33.20737075805664 29.02309036254883 32.77810287475586 29.21337127685547 C 32.34883117675781 29.40373992919922 31.84809112548828 29.20660018920898 31.6595516204834 28.77313995361328 L 24.24271011352539 11.71429061889648 L 20.12836074829102 11.71429061889648 L 20.12836074829102 10 Z M 9.517601013183594 22.85713958740234 C 12.56492233276367 22.85713958740234 15.03520202636719 25.35150909423828 15.03520202636719 28.42856979370117 C 15.03520202636719 31.50563049316406 12.56492233276367 34 9.517601013183594 34 C 6.470312118530273 34 4 31.50563049316406 4 28.42856979370117 C 4 25.35150909423828 6.470312118530273 22.85713958740234 9.517601013183594 22.85713958740234 Z M 9.517601013183594 32.28570938110352 C 11.62727165222168 32.28570938110352 13.33747100830078 30.55883026123047 13.33747100830078 28.42856979370117 C 13.33747100830078 26.29830932617188 11.62727165222168 24.57143020629883 9.517601013183594 24.57143020629883 C 7.407941818237305 24.57143020629883 5.697721481323242 26.29830932617188 5.697721481323242 28.42856979370117 C 5.697721481323242 30.55883026123047 7.407941818237305 32.28570938110352 9.517601013183594 32.28570938110352 Z" stroke="none" fill="#da291c"/>
    </g>
  </g>
</svg>
