<svg xmlns="http://www.w3.org/2000/svg" width="24" height="24" viewBox="0 0 24 24">
  <g id="suspension" transform="translate(-7.299 -7.349)">
    <path id="Path_2579" data-name="Path 2579" d="M13.337,48.621a1.986,1.986,0,1,1,1.4-.581A1.986,1.986,0,0,1,13.337,48.621Zm0-2.979a.993.993,0,1,0,.7.293A.993.993,0,0,0,13.337,45.643Z" transform="translate(-2.041 -19.273)" fill="#fff"/>
    <path id="Path_2580" data-name="Path 2580" d="M11.214,31.335A3.892,3.892,0,1,1,12.5,23.779a.485.485,0,1,1-.326.915,2.878,2.878,0,0,0-3.039.686,2.929,2.929,0,1,0,4.824,1.085.486.486,0,1,1,.914-.311,3.892,3.892,0,0,1-3.662,5.2Zm9.969-18.2a.489.489,0,0,1-.34-.832l1.386-1.377a.486.486,0,1,1,.686.686l-1.386,1.4A.486.486,0,0,1,21.183,13.139Zm-5.5,5.5a.487.487,0,0,1-.345-.832l1.376-1.387a.488.488,0,1,1,.691.691l-1.376,1.377a.486.486,0,0,1-.345.151Zm-1.376,4.106a.486.486,0,0,1-.34-.141L12.59,21.23a.476.476,0,0,1,0-.686l1.371-1.357a.487.487,0,1,1,.686.691l-1.026,1.031,1.031,1.031a.466.466,0,0,1-.345.808Zm4.129-6.86a.484.484,0,0,1-.345-.827l1.376-1.377a.486.486,0,0,1,.686.686l-1.371,1.377A.486.486,0,0,1,18.436,15.888ZM26,17.956a.489.489,0,0,1-.34-.832l1.376-1.377a.486.486,0,1,1,.686.676L26.343,17.8A.486.486,0,0,1,26,17.956Zm-5.5,5.5a.487.487,0,0,1-.345-.832l1.376-1.377a.492.492,0,1,1,.7.691l-1.376,1.377A.486.486,0,0,1,20.5,23.458Zm-2.752,2.754a.486.486,0,0,1-.34-.146l-1.376-1.372a.486.486,0,1,1,.686-.686l1.031,1.031,1.036-1.031a.486.486,0,1,1,.686.686L18.09,26.071A.486.486,0,0,1,17.745,26.212Zm5.5-5.507a.484.484,0,0,1-.345-.827L24.281,18.5a.486.486,0,0,1,.686.686L23.59,20.563A.486.486,0,0,1,23.25,20.7Zm5.5-5.5a.487.487,0,0,1-.345-.832l1.722-1.717L26,8.522l-1.717,1.722a.488.488,0,0,1-.691-.691l2.067-2.063a.486.486,0,0,1,.686,0l4.814,4.816a.487.487,0,0,1,0,.686L29.1,15.061A.486.486,0,0,1,28.75,15.2Z" transform="translate(0)" fill="#fff"/>
    <path id="Path_2581" data-name="Path 2581" d="M17.2,26.168a.5.5,0,0,1-.348-.849l1.986-1.986a.5.5,0,1,1,.7.7l-1.986,1.986A.5.5,0,0,1,17.2,26.168Zm2.1,2.1a.494.494,0,0,1-.352-.844l1.986-1.986a.5.5,0,0,1,.71.7l-1.986,1.986A.5.5,0,0,1,19.3,28.273Zm6.206-1a1.489,1.489,0,0,1-1.052-.437l-6.32-6.32a1.489,1.489,0,0,1,2.1-2.1l6.32,6.32a1.489,1.489,0,0,1-1.052,2.542Zm-6.32-8.306a.5.5,0,0,0-.352.849l6.32,6.32h0a.5.5,0,0,0,.7-.7l-6.32-6.325A.5.5,0,0,0,19.189,18.97Zm9.13,5.5a1.489,1.489,0,0,1-1.043-.437h0l-6.33-6.33a1.489,1.489,0,0,1,0-2.1,1.529,1.529,0,0,1,2.1,0l6.32,6.33a1.489,1.489,0,0,1-1.052,2.542Zm-.352-1.137a.5.5,0,1,0,.7-.7l-6.315-6.315a.5.5,0,0,0-.7.7Zm3.157-1.658a1.489,1.489,0,0,1-1.052-.432h0L23.757,14.9a1.489,1.489,0,0,1,0-2.11,1.529,1.529,0,0,1,2.1,0l6.32,6.32a1.489,1.489,0,0,1-1.057,2.557Zm-.348-1.137a.495.495,0,0,0,.7-.7L25.157,13.5a.495.495,0,0,0-.7.7l6.32,6.32Zm3.157-1.683a1.489,1.489,0,0,1-1.052-.437l-6.32-6.32a1.489,1.489,0,1,1,2.1-2.1l6.32,6.32a1.489,1.489,0,0,1-1.052,2.542Zm-6.32-8.306a.5.5,0,0,0-.338.849l6.3,6.3h0a.495.495,0,0,0,.7-.7l-6.315-6.31A.5.5,0,0,0,27.614,10.545Z" transform="translate(-5.237 -1.091)" fill="#fff"/>
  </g>
</svg>
