<svg id="noun-bid-2245612" xmlns="http://www.w3.org/2000/svg" width="71.728" height="72.613" viewBox="0 0 71.728 72.613">
  <path id="Path_2684" data-name="Path 2684" d="M80.527,31.025a1.634,1.634,0,0,1,2.282-.331l12.328,9.227a1.628,1.628,0,1,1-1.952,2.607L80.857,33.307a1.634,1.634,0,0,1-.331-2.282Zm23.583-.119,5.676-7.6,1.643,1.23-.954,1.274,29.275,21.9a.963.963,0,0,1,1.35-.2l3.22,2.407a.969.969,0,0,1,.2,1.355l-3.768,5.042a.979.979,0,0,1-1.355.2l-3.22-2.412a.967.967,0,0,1-.2-1.35L106.7,30.857l-.954,1.274ZM84.8,29.485,89.211,23.6l-.851-.64,9.357-12.512.851.64,4.407-5.893,10.935,8.181L109.5,19.26l.851.64-9.363,12.512-.851-.64-4.407,5.893L84.8,29.485ZM103.247.653A1.637,1.637,0,0,1,105.53.328L117.858,9.55a1.632,1.632,0,1,1-1.957,2.613L103.572,2.936a1.632,1.632,0,0,1-.325-2.282ZM75.637,69.672H78.5V67.8a2.733,2.733,0,0,1,2.727-2.727H100.1a2.733,2.733,0,0,1,2.727,2.727v1.876h2.868V72.5H75.637ZM80.57,46.627a1.129,1.129,0,1,1-1.214,1.9l-4.993-3.193a1.129,1.129,0,0,1,1.215-1.9l4.993,3.193ZM79.356,56.5a1.129,1.129,0,1,1,1.214,1.9l-4.993,3.2a1.129,1.129,0,0,1-1.215-1.9l4.993-3.2Zm-5.242-2.852a1.133,1.133,0,1,1,0-2.267h6.017a1.133,1.133,0,0,1,0,2.267ZM103.7,51.495,107,53.75l6.137-8.831,2.32,1.616-6.934,9.981-.8,1.149-1.16-.791L102.1,53.832,103.7,51.5Z" transform="translate(-72.979 -0.005)" fill="#da291c" fill-rule="evenodd"/>
  <g id="Group_14381" data-name="Group 14381" transform="translate(0.002 72.56)">
    <path id="Path_2685" data-name="Path 2685" d="M.032-.138l0,0h0l-.008,0a.015.015,0,0,1,0-.008.008.008,0,0,1,0-.006.011.011,0,0,1,.008,0h0l0,0v0l0,0h0l0,0a.006.006,0,0,0,0,0s0,.005,0,.006H.028l0,0Z" transform="translate(-0.016 0.156)" fill="#da291c"/>
  </g>
  <g id="Group_14382" data-name="Group 14382" transform="translate(0.022 72.564)">
    <path id="Path_2686" data-name="Path 2686" d="M.026-.119a0,0,0,0,0,0,0,0,0,0,0,0,0,0v.01H.016V-.123H.022v0l0,0Z" transform="translate(-0.016 0.125)" fill="#da291c"/>
  </g>
  <g id="Group_14383" data-name="Group 14383" transform="translate(0.035 72.564)">
    <path id="Path_2687" data-name="Path 2687" d="M.03-.117v0H.02v0H.026l0,0v0H.024s-.005,0-.006,0,0,0,0-.006a.006.006,0,0,1,0,0,.006.006,0,0,1,.006,0s0,0,0,0A.01.01,0,0,1,.03-.117Zm0,0a0,0,0,0,0,0,0v0l0,0v0Z" transform="translate(-0.016 0.125)" fill="#da291c"/>
  </g>
  <g id="Group_14384" data-name="Group 14384" transform="translate(0.054 72.564)">
    <path id="Path_2688" data-name="Path 2688" d="M.022-.115h0v0h0a.006.006,0,0,0,0,0Zm.008,0v.008h0v0l0,0H.016V-.117a.009.009,0,0,1,.006,0h0a0,0,0,0,0,0,0h0l0,0v0h0l0,0,.006,0A.011.011,0,0,1,.03-.117Z" transform="translate(-0.016 0.125)" fill="#da291c"/>
  </g>
  <g id="Group_14385" data-name="Group 14385" transform="translate(0.07 72.562)">
    <path id="Path_2689" data-name="Path 2689" d="M.008-.141v0h0v0h0v.008h0v0H0s0,0,0-.006V-.135H0v0H0v0Z" transform="translate(0 0.141)" fill="#da291c"/>
  </g>
  <g id="Group_14386" data-name="Group 14386" transform="translate(0.085 72.564)">
    <path id="Path_2690" data-name="Path 2690" d="M.03-.117v0H.02v0H.026l0,0v0H.024s-.005,0-.006,0,0,0,0-.006a.006.006,0,0,1,0,0,.006.006,0,0,1,.006,0s0,0,0,0A.01.01,0,0,1,.03-.117Zm0,0a0,0,0,0,0,0,0v0l0,0v0Z" transform="translate(-0.016 0.125)" fill="#da291c"/>
  </g>
  <g id="Group_14387" data-name="Group 14387" transform="translate(0.103 72.56)">
    <path id="Path_2691" data-name="Path 2691" d="M.026-.148V-.156h0v.02h0v0a0,0,0,0,1,0,0h0s-.005,0-.006,0v-.01a.006.006,0,0,1,.006,0l0,0A0,0,0,0,1,.026-.148Zm0,.01v0a.006.006,0,0,0,0,0,0,0,0,0,0,0,0v0l0,0V-.14A0,0,0,0,0,.024-.138Z" transform="translate(-0.016 0.156)" fill="#da291c"/>
  </g>
  <g id="Group_14388" data-name="Group 14388" transform="translate(0.132 72.56)">
    <path id="Path_2692" data-name="Path 2692" d="M.024-.138a0,0,0,0,0,0,0V-.146a0,0,0,0,0,0,0,0,0,0,0,0,0,0V-.14S.022-.138.024-.138Zm0-.01v0l0,0s0,0,0,0a.01.01,0,0,1,0,0,.009.009,0,0,1,0,.006l0,0h0v0H.016v-.02H.022Z" transform="translate(-0.016 0.156)" fill="#da291c"/>
  </g>
  <g id="Group_14389" data-name="Group 14389" transform="translate(0.15 72.566)">
    <path id="Path_2693" data-name="Path 2693" d="M0-.109H.006l0,.01,0-.01H.018L.01-.093a0,0,0,0,1,0,0,0,0,0,0,1,0,0H0v0h0v0Z" transform="translate(0 0.109)" fill="#da291c"/>
  </g>
  <g id="Group_14390" data-name="Group 14390" transform="translate(0.178 72.564)">
    <path id="Path_2694" data-name="Path 2694" d="M.022-.111V-.1H.016v-.02H.022v0l0,0s0,0,0,0a.01.01,0,0,1,0,0,.009.009,0,0,1,0,.006l0,0h0Zm0-.01a0,0,0,0,0,0,0v.006s0,0,0,0a0,0,0,0,0,0,0V-.119A0,0,0,0,0,.024-.121Z" transform="translate(-0.016 0.125)" fill="#da291c"/>
  </g>
  <g id="Group_14391" data-name="Group 14391" transform="translate(0.198 72.564)">
    <path id="Path_2695" data-name="Path 2695" d="M.024-.121l0,0v.006a0,0,0,0,0,0,0v0a.006.006,0,0,0,0,0,0,0,0,0,0,0,0Zm0,0s0,0,0,0,0,0,0,0a.006.006,0,0,1,0,.006l0,0s-.005,0-.006,0,0,0,0-.006a.006.006,0,0,1,0,0A.006.006,0,0,1,.024-.125Z" transform="translate(-0.016 0.125)" fill="#da291c"/>
  </g>
  <g id="Group_14392" data-name="Group 14392" transform="translate(0.217 72.564)">
    <path id="Path_2696" data-name="Path 2696" d="M.022-.111V-.1H.016v-.02H.022v0l0,0s0,0,0,0a.01.01,0,0,1,0,0,.009.009,0,0,1,0,.006l0,0h0Zm0-.01a0,0,0,0,0,0,0v.006s0,0,0,0a0,0,0,0,0,0,0V-.119A0,0,0,0,0,.024-.121Z" transform="translate(-0.016 0.125)" fill="#da291c"/>
  </g>
  <g id="Group_14393" data-name="Group 14393" transform="translate(0.236 72.564)">
    <path id="Path_2697" data-name="Path 2697" d="M.028-.123v0h0a0,0,0,0,0,0,0l0,0v.006a0,0,0,0,0,0,0h0l0,0v0h0s-.005,0-.006,0,0,0,0-.006a.006.006,0,0,1,0,0,.006.006,0,0,1,.006,0v0Z" transform="translate(-0.016 0.125)" fill="#da291c"/>
  </g>
  <g id="Group_14394" data-name="Group 14394" transform="translate(0.252 72.564)">
    <path id="Path_2698" data-name="Path 2698" d="M.024-.121l0,0v.006a0,0,0,0,0,0,0v0a.006.006,0,0,0,0,0,0,0,0,0,0,0,0Zm0,0s0,0,0,0,0,0,0,0a.006.006,0,0,1,0,.006l0,0s-.005,0-.006,0,0,0,0-.006a.006.006,0,0,1,0,0A.006.006,0,0,1,.024-.125Z" transform="translate(-0.016 0.125)" fill="#da291c"/>
  </g>
  <g id="Group_14395" data-name="Group 14395" transform="translate(0.271 72.564)">
    <path id="Path_2699" data-name="Path 2699" d="M.026-.119a0,0,0,0,0,0,0,0,0,0,0,0,0,0v.01H.016V-.123H.022v0l0,0Z" transform="translate(-0.016 0.125)" fill="#da291c"/>
  </g>
  <g id="Group_14396" data-name="Group 14396" transform="translate(0.284 72.564)">
    <path id="Path_2700" data-name="Path 2700" d="M.032-.117v.008H.026v-.01h0v0a0,0,0,0,0,0,0v.01H.016V-.123H.022v0l0,0,0,0a.011.011,0,0,1,0,.006Z" transform="translate(-0.016 0.125)" fill="#da291c"/>
  </g>
  <g id="Group_14397" data-name="Group 14397" transform="translate(0.303 72.564)">
    <path id="Path_2701" data-name="Path 2701" d="M.022-.115h0v0h0a.006.006,0,0,0,0,0Zm.008,0v.008h0v0l0,0H.016V-.117a.009.009,0,0,1,.006,0h0a0,0,0,0,0,0,0h0l0,0v0h0l0,0,.006,0A.011.011,0,0,1,.03-.117Z" transform="translate(-0.016 0.125)" fill="#da291c"/>
  </g>
  <g id="Group_14398" data-name="Group 14398" transform="translate(0.322 72.564)">
    <path id="Path_2702" data-name="Path 2702" d="M.026-.119a0,0,0,0,0,0,0,0,0,0,0,0,0,0v.01H.016V-.123H.022v0l0,0Z" transform="translate(-0.016 0.125)" fill="#da291c"/>
  </g>
  <g id="Group_14399" data-name="Group 14399" transform="translate(0.333 72.562)">
    <path id="Path_2703" data-name="Path 2703" d="M.008-.141v0h0v0h0v.008h0v0H0s0,0,0-.006V-.135H0v0H0v0Z" transform="translate(0 0.141)" fill="#da291c"/>
  </g>
  <g id="Group_14400" data-name="Group 14400" transform="translate(0.348 72.564)">
    <path id="Path_2704" data-name="Path 2704" d="M.028-.123v0l0,0h0v0h0s0,0,0,0a0,0,0,0,1,0,0,.006.006,0,0,1,0,0H.016v0l0,0h0l0,0v0H.016V-.123a.009.009,0,0,1,.006,0,0,0,0,0,1,0,0Z" transform="translate(-0.016 0.125)" fill="#da291c"/>
  </g>
  <g id="Group_14401" data-name="Group 14401" transform="translate(0 72.587)">
    <path id="Path_2705" data-name="Path 2705" d="M.012-.156v0h0a0,0,0,0,0,0,0v0h0v0h0v.012H0V-.148H0v0H0v0a0,0,0,0,1,0,0l0,0Z" transform="translate(0 0.156)" fill="#da291c"/>
  </g>
  <g id="Group_14402" data-name="Group 14402" transform="translate(0.014 72.591)">
    <path id="Path_2706" data-name="Path 2706" d="M.026-.119a0,0,0,0,0,0,0,0,0,0,0,0,0,0v.01H.016V-.123H.022v0l0,0Z" transform="translate(-0.016 0.125)" fill="#da291c"/>
  </g>
  <g id="Group_14403" data-name="Group 14403" transform="translate(0.027 72.591)">
    <path id="Path_2707" data-name="Path 2707" d="M.024-.121l0,0v.006a0,0,0,0,0,0,0v0a.006.006,0,0,0,0,0,0,0,0,0,0,0,0Zm0,0s0,0,0,0,0,0,0,0a.006.006,0,0,1,0,.006l0,0s-.005,0-.006,0,0,0,0-.006a.006.006,0,0,1,0,0A.006.006,0,0,1,.024-.125Z" transform="translate(-0.016 0.125)" fill="#da291c"/>
  </g>
  <g id="Group_14404" data-name="Group 14404" transform="translate(0.046 72.591)">
    <path id="Path_2708" data-name="Path 2708" d="M.03-.121a0,0,0,0,1,0,0l0,0s0,0,0,0a.011.011,0,0,1,0,.006v.008H.034V-.121l0,0v.01h0V-.117a0,0,0,0,0,0,0v0a0,0,0,0,0,0,0v.01H.016V-.123H.022v0l0,0,0,0a0,0,0,0,1,0,0Z" transform="translate(-0.016 0.125)" fill="#da291c"/>
  </g>
  <g id="Group_14405" data-name="Group 14405" transform="translate(0.081 72.589)">
    <path id="Path_2709" data-name="Path 2709" d="M.008-.141v0h0v0h0v.008h0v0H0s0,0,0-.006V-.135H0v0H0v0Z" transform="translate(0 0.141)" fill="#da291c"/>
  </g>
  <g id="Group_14406" data-name="Group 14406" transform="translate(0.097 72.587)">
    <path id="Path_2710" data-name="Path 2710" d="M.032-.144v.008H.026v-.01h0v0a0,0,0,0,0,0,0v.01H.016v-.02H.022V-.15l0,0,0,0A.011.011,0,0,1,.032-.144Z" transform="translate(-0.016 0.156)" fill="#da291c"/>
  </g>
  <g id="Group_14407" data-name="Group 14407" transform="translate(0.116 72.591)">
    <path id="Path_2711" data-name="Path 2711" d="M.03-.117v0H.02v0H.026l0,0v0H.024s-.005,0-.006,0,0,0,0-.006a.006.006,0,0,1,0,0,.006.006,0,0,1,.006,0s0,0,0,0A.01.01,0,0,1,.03-.117Zm0,0a0,0,0,0,0,0,0v0l0,0v0Z" transform="translate(-0.016 0.125)" fill="#da291c"/>
  </g>
  <g id="Group_14408" data-name="Group 14408" transform="translate(0.144 72.587)">
    <path id="Path_2712" data-name="Path 2712" d="M.016-.156H.022L.03-.142V-.156h0v.02H.028L.022-.15v.014H.016Z" transform="translate(-0.016 0.156)" fill="#da291c"/>
  </g>
  <g id="Group_14409" data-name="Group 14409" transform="translate(0.166 72.591)">
    <path id="Path_2713" data-name="Path 2713" d="M.024-.121l0,0v.006a0,0,0,0,0,0,0v0a.006.006,0,0,0,0,0,0,0,0,0,0,0,0Zm0,0s0,0,0,0,0,0,0,0a.006.006,0,0,1,0,.006l0,0s-.005,0-.006,0,0,0,0-.006a.006.006,0,0,1,0,0A.006.006,0,0,1,.024-.125Z" transform="translate(-0.016 0.125)" fill="#da291c"/>
  </g>
  <g id="Group_14410" data-name="Group 14410" transform="translate(0.185 72.593)">
    <path id="Path_2714" data-name="Path 2714" d="M.016-.1V-.109h0V-.1h0a.006.006,0,0,0,0,0V-.109h0V-.1h0v0l0,0H.016V-.1Z" transform="translate(-0.016 0.109)" fill="#da291c"/>
  </g>
  <g id="Group_14411" data-name="Group 14411" transform="translate(0.204 72.591)">
    <path id="Path_2715" data-name="Path 2715" d="M.032-.117v.008H.026v-.01h0v0a0,0,0,0,0,0,0v.01H.016V-.123H.022v0l0,0,0,0a.011.011,0,0,1,0,.006Z" transform="translate(-0.016 0.125)" fill="#da291c"/>
  </g>
  <g id="Group_14412" data-name="Group 14412" transform="translate(0.233 72.587)">
    <path id="Path_2716" data-name="Path 2716" d="M.016-.156H.024l.006,0a.011.011,0,0,1,0,.006.006.006,0,0,1,0,0,.008.008,0,0,1-.006,0h0v.006H.016Zm.006,0v.006h0l0,0a0,0,0,0,0,0,0,0,0,0,0,0,0,0Z" transform="translate(-0.016 0.156)" fill="#da291c"/>
  </g>
  <g id="Group_14413" data-name="Group 14413" transform="translate(0.253 72.591)">
    <path id="Path_2717" data-name="Path 2717" d="M.026-.119a0,0,0,0,0,0,0,0,0,0,0,0,0,0v.01H.016V-.123H.022v0l0,0Z" transform="translate(-0.016 0.125)" fill="#da291c"/>
  </g>
  <g id="Group_14414" data-name="Group 14414" transform="translate(0.266 72.591)">
    <path id="Path_2718" data-name="Path 2718" d="M.024-.121l0,0v.006a0,0,0,0,0,0,0v0a.006.006,0,0,0,0,0,0,0,0,0,0,0,0Zm0,0s0,0,0,0,0,0,0,0a.006.006,0,0,1,0,.006l0,0s-.005,0-.006,0,0,0,0-.006a.006.006,0,0,1,0,0A.006.006,0,0,1,.024-.125Z" transform="translate(-0.016 0.125)" fill="#da291c"/>
  </g>
  <g id="Group_14415" data-name="Group 14415" transform="translate(0.283 72.587)">
    <path id="Path_2719" data-name="Path 2719" d="M0-.15H.008v.014a.01.01,0,0,1,0,0l0,0H0v0H0V-.15ZM0-.156H.008v0H0Z" transform="translate(0 0.156)" fill="#da291c"/>
  </g>
  <g id="Group_14416" data-name="Group 14416" transform="translate(0.294 72.591)">
    <path id="Path_2720" data-name="Path 2720" d="M.03-.117v0H.02v0H.026l0,0v0H.024s-.005,0-.006,0,0,0,0-.006a.006.006,0,0,1,0,0,.006.006,0,0,1,.006,0s0,0,0,0A.01.01,0,0,1,.03-.117Zm0,0a0,0,0,0,0,0,0v0l0,0v0Z" transform="translate(-0.016 0.125)" fill="#da291c"/>
  </g>
  <g id="Group_14417" data-name="Group 14417" transform="translate(0.313 72.591)">
    <path id="Path_2721" data-name="Path 2721" d="M.028-.123v0h0a0,0,0,0,0,0,0l0,0v.006a0,0,0,0,0,0,0h0l0,0v0h0s-.005,0-.006,0,0,0,0-.006a.006.006,0,0,1,0,0,.006.006,0,0,1,.006,0v0Z" transform="translate(-0.016 0.125)" fill="#da291c"/>
  </g>
  <g id="Group_14418" data-name="Group 14418" transform="translate(0.327 72.589)">
    <path id="Path_2722" data-name="Path 2722" d="M.008-.141v0h0v0h0v.008h0v0H0s0,0,0-.006V-.135H0v0H0v0Z" transform="translate(0 0.141)" fill="#da291c"/>
  </g>
</svg>
