<svg xmlns="http://www.w3.org/2000/svg" xmlns:xlink="http://www.w3.org/1999/xlink" width="24" height="24" viewBox="0 0 24 24">
  <defs>
    <clipPath id="clip-path">
      <rect id="Rectangle_4592" data-name="Rectangle 4592" width="24" height="24" transform="translate(0.196 0)" fill="#fff"/>
    </clipPath>
  </defs>
  <g id="Mask_Group_31" data-name="Mask Group 31" transform="translate(-0.196 0)" clip-path="url(#clip-path)">
    <path id="bike" d="M52.344-1.037a3.118,3.118,0,1,0,3.118,3.118A3.122,3.122,0,0,0,52.344-1.037Zm0,5.5a2.379,2.379,0,1,1,2.379-2.379A2.382,2.382,0,0,1,52.344,4.461ZM49.476.1c1.243-1.817,4.087-2.115,4.116-2.118a.369.369,0,0,0,.255-.139.37.37,0,0,0,.076-.28A6.707,6.707,0,0,0,50.6-6.929a.37.37,0,0,0-.436.065c-.285.285-.642.627-.741.7a.369.369,0,0,0-.195.369l.127,1.106A22.937,22.937,0,0,0,45.282-5.6c-1.1,0-2.109,1.381-2.388,1.8a1.93,1.93,0,0,1-.4.032A8.832,8.832,0,0,1,41.155-3.9a1.822,1.822,0,0,1-1.673-1.378.372.372,0,0,0-.156-.254.367.367,0,0,0-.292-.057,28.294,28.294,0,0,1-3.246.183.37.37,0,0,0-.27.123A.368.368,0,0,0,35.425-5c.033.344.336.664.926,1.047a.361.361,0,0,0-.136.028,12.577,12.577,0,0,1-1.717.144.369.369,0,0,0-.369.369.369.369,0,0,0,.369.369c.137,0,.278,0,.419-.011a2.787,2.787,0,0,0-.873,1.347.37.37,0,0,0,.273.446.369.369,0,0,0,.087.01.37.37,0,0,0,.359-.283c.188-.781,1.19-1.436,1.66-1.676.421-.063.76-.127.937-.163.428.228.929.483,1.507.773s1.2.6,1.8.924A4.584,4.584,0,0,1,42.088-.6l-1.976.367h0L39.6-.14a3.118,3.118,0,1,0,.761,3.234l1,.87a.37.37,0,0,0,.242.09h7.157a.37.37,0,0,0,.356-.47A4.025,4.025,0,0,1,49.476.1ZM41.015-2.328c-.608-.324-1.228-.636-1.817-.932A28.335,28.335,0,0,1,36.58-4.684c.691-.018,1.665-.055,2.269-.129a2.6,2.6,0,0,0,2.188,1.641c1.3.209,2.106.189,2.365-.072a.374.374,0,0,0,.051-.064c.254-.4,1.134-1.552,1.828-1.552a20.557,20.557,0,0,1,3.532.784l-3.944,2.1-2.06,1.1A4.988,4.988,0,0,0,41.015-2.328Zm-3.6,6.789A2.378,2.378,0,1,1,39.446.848l.009.015a2.349,2.349,0,0,1,.18.368l.009.025a2.372,2.372,0,0,1,.109.386c0,.011,0,.023.005.034a2.365,2.365,0,0,1,.037.406,2.384,2.384,0,0,1-.02.288h0A2.381,2.381,0,0,1,37.415,4.461Zm3.112-2.2c0-.059.006-.119.006-.179a3.1,3.1,0,0,0-.025-.378c0-.031-.009-.061-.014-.092-.016-.1-.035-.2-.06-.3-.007-.025-.012-.05-.019-.075a3.116,3.116,0,0,0-.269-.662l3.665,2.737H41.746Zm7.765,1.054H45.046L41.061.34,42.6.054a.372.372,0,0,0,.106-.037L49.96-3.849a.356.356,0,0,0,.088-.066.377.377,0,0,0,.029-.039A.34.34,0,0,0,50.112-4a.38.38,0,0,0,.018-.051.358.358,0,0,0,.018-.051.358.358,0,0,0,0-.056.342.342,0,0,0,0-.051.009.009,0,0,0,0,0,.012.012,0,0,0,0,0l-.168-1.455c.109-.094.265-.239.5-.466A6.065,6.065,0,0,1,53.123-2.7,6.637,6.637,0,0,0,48.868-.321,4.534,4.534,0,0,0,48.292,3.315ZM52.344.25a1.831,1.831,0,1,0,1.831,1.831A1.833,1.833,0,0,0,52.344.25Zm0,2.924a1.092,1.092,0,1,1,1.092-1.092A1.093,1.093,0,0,1,52.344,3.174ZM37.415.25a1.831,1.831,0,1,0,1.831,1.831A1.834,1.834,0,0,0,37.415.25Zm0,2.924a1.092,1.092,0,1,1,1.092-1.092A1.094,1.094,0,0,1,37.415,3.174ZM51-3.522v-1.3a.369.369,0,0,1,.369-.369.369.369,0,0,1,.369.369v1.3a.369.369,0,0,1-.369.369A.369.369,0,0,1,51-3.522ZM45.053-.881a1.5,1.5,0,1,0,1.5,1.5A1.5,1.5,0,0,0,45.053-.881Zm0,2.263A.762.762,0,1,1,45.815.62.763.763,0,0,1,45.053,1.382ZM21.807.449a2.622,2.622,0,1,0,2.622,2.622A2.625,2.625,0,0,0,21.807.449Zm0,4.505a1.883,1.883,0,1,1,1.883-1.883A1.885,1.885,0,0,1,21.807,4.954Zm0-2.988a1.105,1.105,0,1,0,1.105,1.105A1.107,1.107,0,0,0,21.807,1.966Zm0,1.472a.366.366,0,1,1,.366-.366A.367.367,0,0,1,21.807,3.438ZM20.59-.518a.37.37,0,0,0-.023-.376c-.284-.42-1.137-1.845-1.822-2.991-.286-.478-.546-.912-.738-1.229a8.362,8.362,0,0,0-.625-.962.37.37,0,0,0-.519-.064.369.369,0,0,0-.063.519s.031.04.077.1l-.664.995a.369.369,0,0,0,.1.512.37.37,0,0,0,.2.062.369.369,0,0,0,.308-.164l.484-.725a6.624,6.624,0,0,1,1,3.757c-.205,2.1-1.056,3.028-1.57,3.27H13.157c-.949,0-1.123-.689-1.123-2.047,0-.389.394-.7.811-1.034.488-.388,1.041-.828,1.041-1.517a.737.737,0,0,0-.263-.562c-.739-.653-3.27-.442-4.178-.341l-.2-.287a.366.366,0,0,0-.344-.16c-1.277.133-2.623,1.667-2.9,2A6.307,6.307,0,0,0,3,2.5a.37.37,0,0,0,.365.429H4.543c0,.047-.008.095-.008.142A2.621,2.621,0,0,0,9.574,4.085h3.394a.369.369,0,0,0,0-.739h-3.2a2.584,2.584,0,0,0,.015-.274c0-.047-.006-.094-.008-.142h7.051a.369.369,0,0,0,.134-.025,3.551,3.551,0,0,0,1.8-2.378c0-.006.007-.01.009-.017.27-.781,1.5-.827,1.511-.828A.371.371,0,0,0,20.59-.518ZM9.039,3.071a1.883,1.883,0,0,1-3.765,0c0-.047,0-.094.006-.142h.785a1.126,1.126,0,0,0-.014.142,1.105,1.105,0,0,0,2.211,0,1.126,1.126,0,0,0-.014-.142h.785C9.038,2.977,9.039,3.024,9.039,3.071Zm-1.516,0a.366.366,0,0,1-.733,0,.362.362,0,0,1,.029-.142h.675A.362.362,0,0,1,7.523,3.071Zm1.825-.88H4.889A5.559,5.559,0,0,1,9.265-1.074a.889.889,0,0,1,.794.343c.463.669.116,2.164-.131,2.922Zm2.337,0H10.7c.246-.824.6-2.425-.035-3.342a1.6,1.6,0,0,0-1.4-.662c-2.079,0-4.792,2.183-5.132,4H3.84A5.455,5.455,0,0,1,6.411-1.134a.366.366,0,0,0,.119-.1,5.7,5.7,0,0,1,2.244-1.75l.185.273a.371.371,0,0,0,.351.159c1.831-.227,3.661-.154,3.836.144,0,.332-.37.627-.762.938A2.175,2.175,0,0,0,11.295.144,4.012,4.012,0,0,0,11.685,2.191ZM19.019-.752c.011-.085.023-.168.031-.256a5.237,5.237,0,0,0,.005-.925c.219.363.422.7.587.962A3.073,3.073,0,0,0,19.019-.752ZM18.958-5a.369.369,0,0,0,.369-.369V-7.1a.369.369,0,0,0-.369-.369,1.232,1.232,0,0,0-1.231,1.231A1.232,1.232,0,0,0,18.958-5Zm-.369-1.555v.649a.49.49,0,0,1-.122-.324A.49.49,0,0,1,18.588-6.559ZM9.237,1.5a.369.369,0,0,1-.369.369H6.4a.369.369,0,0,1,0-.739H8.868A.369.369,0,0,1,9.237,1.5ZM17.694.73V-2.445a.369.369,0,0,0-.369-.369.369.369,0,0,0-.369.369V.73a.369.369,0,1,0,.739,0ZM21.483.285h.647A.369.369,0,0,0,22.5-.085a.369.369,0,0,0-.369-.369h-.647a.369.369,0,0,0-.369.369A.369.369,0,0,0,21.483.285Zm92.888-31.762a3.132,3.132,0,0,0-1.024.174l-.927-1.93.766.085.041,0a.369.369,0,0,0,.367-.327l.2-1.679a.369.369,0,0,0-.288-.4l-.562-.123-.659-.891a.351.351,0,0,0-.307-.15.368.368,0,0,0-.3.166l-.535.808-.175-.3-.836-1.827.176-.2a.37.37,0,0,0-.036-.521.37.37,0,0,0-.521.036l-.665.763a.37.37,0,0,0,.036.521.368.368,0,0,0,.243.091.363.363,0,0,0,.229-.09l.5,1.1-.728.091a.369.369,0,0,0-.321.412.369.369,0,0,0,.366.324.327.327,0,0,0,.046,0l.986-.123.347.589h0l.676,1.375,0,0,1.211,2.524a3.157,3.157,0,0,0-1.471,2.666,3.164,3.164,0,0,0,3.161,3.16,3.164,3.164,0,0,0,3.16-3.16A3.163,3.163,0,0,0,114.371-31.478ZM112-35.706l.427.578a.37.37,0,0,0,.218.142l.371.081-.115.982-.859-.095-.487-1.015Zm2.37,9.81a2.424,2.424,0,0,1-2.422-2.421,2.419,2.419,0,0,1,1.054-2l.249.519a1.852,1.852,0,0,0-.742,1.477,1.863,1.863,0,0,0,1.861,1.861,1.863,1.863,0,0,0,1.86-1.861,1.863,1.863,0,0,0-1.86-1.861,1.844,1.844,0,0,0-.454.062l-.249-.518a2.413,2.413,0,0,1,.7-.1,2.424,2.424,0,0,1,2.421,2.421A2.423,2.423,0,0,1,114.371-25.9Zm-.333-2.261a.369.369,0,0,0,.333.209.363.363,0,0,0,.16-.037.369.369,0,0,0,.173-.493l-.456-.95a1.135,1.135,0,0,1,.123-.013,1.123,1.123,0,0,1,1.121,1.122,1.123,1.123,0,0,1-1.121,1.122,1.123,1.123,0,0,1-1.122-1.122,1.118,1.118,0,0,1,.331-.794Zm-14.775-3.32a3.164,3.164,0,0,0-3.16,3.16,3.164,3.164,0,0,0,3.16,3.16,3.164,3.164,0,0,0,3.16-3.16A3.164,3.164,0,0,0,99.263-31.478Zm0,5.581a2.424,2.424,0,0,1-2.421-2.421,2.424,2.424,0,0,1,2.421-2.421,2.423,2.423,0,0,1,2.421,2.421A2.424,2.424,0,0,1,99.263-25.9Zm0-4.282A1.863,1.863,0,0,0,97.4-28.317a1.863,1.863,0,0,0,1.861,1.861,1.863,1.863,0,0,0,1.861-1.861A1.863,1.863,0,0,0,99.262-30.178Zm0,2.982a1.123,1.123,0,0,1-1.122-1.122,1.123,1.123,0,0,1,1.122-1.122,1.123,1.123,0,0,1,1.122,1.122A1.123,1.123,0,0,1,99.262-27.2Zm-2.556-4.282a.368.368,0,0,0,.191.053.369.369,0,0,0,.316-.178,2.9,2.9,0,0,1,1.225-1.077c.009,0,.017.007.027.008l3.156.436a.384.384,0,0,0,.051,0h.006c.071,0,7.072-.109,8.04-.109a1.179,1.179,0,0,0,.972-.391,1.087,1.087,0,0,0,.193-.874,2.294,2.294,0,0,0-2.255-1.7,6.184,6.184,0,0,0-3.232,1.209c-.3.023-.612.035-.943.035a19.939,19.939,0,0,1-3.5-.348l-2.594-.327a.364.364,0,0,0-.311.109.368.368,0,0,0-.1.313l.147.971a3.654,3.654,0,0,0-1.515,1.355A.37.37,0,0,0,96.706-31.477Zm4.129-2.2a20.127,20.127,0,0,0,3.618.358c.391,0,.765-.016,1.112-.047a.367.367,0,0,0,.192-.076,5.667,5.667,0,0,1,2.87-1.122,1.563,1.563,0,0,1,1.534,1.121.356.356,0,0,1-.049.251.528.528,0,0,1-.395.113c-.941,0-7.533.1-8.023.109l-2.854-.395-.087-.574Zm10.151,1.922-1.554,4.309a.369.369,0,0,1-.331.244l-4.273.182h-.016a.37.37,0,0,1-.328-.2l-1.46-2.812a.37.37,0,0,1,.158-.5.37.37,0,0,1,.5.158l1.352,2.6,3.791-.161,1.47-4.076a.37.37,0,0,1,.473-.222A.37.37,0,0,1,110.986-31.756Zm-1.641.346a.37.37,0,0,0-.369-.361h-.008l-5.846.13-4.211-.842a.369.369,0,0,0-.435.29.37.37,0,0,0,.29.435l4.251.85a.368.368,0,0,0,.072.007h.008l5.887-.131A.37.37,0,0,0,109.345-31.41Zm-2.549.9H105.71a1.117,1.117,0,0,0-1.115,1.115,1.116,1.116,0,0,0,1.115,1.115H106.8a1.342,1.342,0,0,0,.754.235,1.352,1.352,0,0,0,1.35-1.35,1.352,1.352,0,0,0-1.35-1.35A1.337,1.337,0,0,0,106.8-30.513Zm1.366,1.115a.612.612,0,0,1-.611.611.607.607,0,0,1-.392-.148.371.371,0,0,0-.239-.087H105.71a.377.377,0,0,1-.376-.376.377.377,0,0,1,.376-.376h1.209a.368.368,0,0,0,.238-.087.607.607,0,0,1,.393-.148A.613.613,0,0,1,108.162-29.4ZM83.305-32.384a3.135,3.135,0,0,0-1.369.317l-.106-.167a3.327,3.327,0,0,1,1.475-.347,3.326,3.326,0,0,1,1.983.649.369.369,0,0,0,.516-.079.37.37,0,0,0-.079-.516,4.061,4.061,0,0,0-2.42-.792,4.058,4.058,0,0,0-1.874.459L80.02-35.076c.04-.159.113-.546.29-1.623a.367.367,0,0,0-.081-.3l-.534-.637a.37.37,0,0,0-.521-.046.37.37,0,0,0-.046.521l.425.507c-.052.309-.105.623-.15.877l-.1-.1a.369.369,0,0,0-.522,0,.369.369,0,0,0,0,.522l.514.514,1.514,2.377a4.08,4.08,0,0,0-1.593,3.232,4.049,4.049,0,0,0,.412,1.79.369.369,0,0,0,.332.208.37.37,0,0,0,.162-.037.37.37,0,0,0,.17-.494,3.32,3.32,0,0,1-.337-1.466,3.344,3.344,0,0,1,1.252-2.608l.106.166a3.149,3.149,0,0,0-1.161,2.441,3.158,3.158,0,0,0,3.154,3.154,3.157,3.157,0,0,0,3.154-3.154A3.158,3.158,0,0,0,83.305-32.384Zm0,5.568A2.418,2.418,0,0,1,80.89-29.23a2.406,2.406,0,0,1,.824-1.811l.719,1.129a1.1,1.1,0,0,0-.241.683,1.115,1.115,0,0,0,1.114,1.114,1.115,1.115,0,0,0,1.114-1.114,1.115,1.115,0,0,0-1.114-1.114,1.109,1.109,0,0,0-.252.031l-.718-1.128a2.4,2.4,0,0,1,.969-.2A2.417,2.417,0,0,1,85.72-29.23,2.418,2.418,0,0,1,83.305-26.815Zm.375-2.415a.355.355,0,0,1-.014.068.366.366,0,0,0,0-.12A.393.393,0,0,1,83.68-29.23Zm-.061-.191a.354.354,0,0,1,.046.119A.367.367,0,0,0,83.619-29.421Zm.042.28a.368.368,0,0,1-.049.112A.365.365,0,0,0,83.662-29.141Zm-.059.127a.362.362,0,0,1-.093.09A.369.369,0,0,0,83.6-29.014Zm-.108.1a.361.361,0,0,1-.084.038A.344.344,0,0,0,83.5-28.915Zm-.106.042a.352.352,0,0,1-.084.017.343.343,0,0,1-.066-.014.367.367,0,0,0,.066.008A.342.342,0,0,0,83.389-28.872Zm-.184,0a.345.345,0,0,1-.074-.029A.334.334,0,0,0,83.2-28.876Zm-.08-.033a.368.368,0,0,1-.119-.109A.374.374,0,0,0,83.124-28.908Zm-1.448-5a.37.37,0,0,0,.146.03.377.377,0,0,0,.124-.021,1.272,1.272,0,0,0,.813-1.2,1.3,1.3,0,0,0-.8-1.264.371.371,0,0,0-.381.061l-1.068.912a.371.371,0,0,0-.129.264.368.368,0,0,0,.1.275A5.183,5.183,0,0,0,81.677-33.907Zm.18-1.656a.627.627,0,0,1,.164.448.609.609,0,0,1-.2.448,4.605,4.605,0,0,1-.522-.424ZM69.05-33.746l3.208,1.223a.372.372,0,0,0,.132.024h7.023a.445.445,0,0,0,.377-.2.535.535,0,0,0,.083-.3c0-.567-.84-2.012-1.895-2.012h-.041a20.742,20.742,0,0,0-3.212.622c-.22.012-.422.018-.608.018h0c-1.449,0-1.765-.344-1.8-.387a.37.37,0,0,0-.351-.253H69.182a.369.369,0,0,0-.369.369v.551A.369.369,0,0,0,69.05-33.746Zm2.705-.527c.241.287.845.641,2.362.641h0q.313,0,.687-.021a.358.358,0,0,0,.074-.012,21.12,21.12,0,0,1,3.1-.608c.434,0,.907.641,1.084,1.035h-6.6l-2.715-1.035h2.012Zm-6.312,5.088a.369.369,0,0,1-.336-.4,4.114,4.114,0,0,1,2.817-3.529v-.659H66.279a.369.369,0,0,1-.369-.369.369.369,0,0,1,.369-.369h1.645v-.62a.369.369,0,0,1,.369-.369.369.369,0,0,1,.369.369v1.851a4.025,4.025,0,0,1,.519-.038A4.114,4.114,0,0,1,72.868-31a.37.37,0,0,1-.173.493.369.369,0,0,1-.493-.173,3.37,3.37,0,0,0-3.02-1.9,3.37,3.37,0,0,0-3.339,3.059.369.369,0,0,1-.368.338Zm.329-2.831a.372.372,0,0,0,.372-.372.372.372,0,0,0-.372-.372.372.372,0,0,0-.372.372A.372.372,0,0,0,65.772-32.016Zm8.476-.306-1.151.763a.37.37,0,0,0-.1.512.369.369,0,0,0,.309.166.368.368,0,0,0,.2-.062l1.151-.763a.37.37,0,0,0,.1-.512A.369.369,0,0,0,74.248-32.322Zm3.9,1.514c-.01-.044-.025-.085-.039-.127L79.4-31.7a.369.369,0,0,0,.13-.506.369.369,0,0,0-.506-.13l-1.315.777a1.435,1.435,0,0,0-.969-.381c-1.144,0-3.245.788-3.245,2.077a1,1,0,0,0,1,1h.091c.077,0,.184,0,.312,0h0a7.259,7.259,0,0,0,1.9-.211A1.937,1.937,0,0,0,78-29.842a1.244,1.244,0,0,1,.167.817c-.069.263-.361.4-.85.4l-5.006-.239a3.1,3.1,0,0,0,.023-.363,3.157,3.157,0,0,0-3.153-3.154,3.158,3.158,0,0,0-3.154,3.154c0,.021,0,.042,0,.063l-.241-.011a.371.371,0,0,0-.387.351.369.369,0,0,0,.351.387l.382.018a3.157,3.157,0,0,0,3.045,2.346,3.156,3.156,0,0,0,2.954-2.06l5.165.246a1.816,1.816,0,0,0,1.23-.373,1.2,1.2,0,0,0,.4-.928A2.2,2.2,0,0,0,78.144-30.808Zm-1.55,1.03a6.535,6.535,0,0,1-1.7.184c-.122,0-.224,0-.3,0h-.1a.262.262,0,0,1-.262-.262c0-.633,1.494-1.338,2.506-1.338a.707.707,0,0,1,.706.706C77.442-30.374,77.442-30.014,76.594-29.778Zm-9.828.548a2.418,2.418,0,0,1,2.415-2.415A2.417,2.417,0,0,1,71.6-29.23a2.4,2.4,0,0,1-.025.328l-1.312-.063a1.1,1.1,0,0,0,.035-.265,1.115,1.115,0,0,0-1.113-1.114,1.115,1.115,0,0,0-1.114,1.114,1.107,1.107,0,0,0,.016.161l-1.313-.062C66.77-29.165,66.766-29.2,66.766-29.23Zm2.106.2a.36.36,0,0,1-.065-.2.375.375,0,0,1,.375-.375.375.375,0,0,1,.374.375.368.368,0,0,1-.085.227Zm.31,2.216a2.416,2.416,0,0,1-2.26-1.569l1.638.078a1.108,1.108,0,0,0,.622.19,1.1,1.1,0,0,0,.521-.136l1.646.078A2.416,2.416,0,0,1,69.182-26.815ZM52.263-32.879a3.183,3.183,0,0,0-1.112.2l-.1-.189a3.394,3.394,0,0,1,.988-.219.37.37,0,0,0,.345-.392A.371.371,0,0,0,52-33.822a4.133,4.133,0,0,0-1.278.3l-.2-.389a1.372,1.372,0,0,0,.592-1.108,1.408,1.408,0,0,0-.3-.951,1.851,1.851,0,0,0-.2-1.208.37.37,0,0,0-.507-.129.37.37,0,0,0-.129.507,1.028,1.028,0,0,1,.121.582c-.009.005-.02.006-.029.012l-.529.364-.116-.228a.369.369,0,0,0-.5-.161.369.369,0,0,0-.161.5l.316.619c.044.088.347.691.6,1.183l.376.739a4.154,4.154,0,0,0-1.389,1.44.37.37,0,0,0,.135.505.369.369,0,0,0,.185.05.37.37,0,0,0,.32-.184A3.415,3.415,0,0,1,50.4-32.532l.1.19a3.2,3.2,0,0,0-1.428,2.662,3.2,3.2,0,0,0,3.2,3.2,3.2,3.2,0,0,0,3.2-3.2A3.2,3.2,0,0,0,52.263-32.879Zm-1.986-2.579a.752.752,0,0,1,.1.409.664.664,0,0,1-.194.465l-.3-.6Zm1.986,8.239A2.464,2.464,0,0,1,49.8-29.679a2.457,2.457,0,0,1,1.028-2l.43.843a1.527,1.527,0,0,0-.533,1.154,1.537,1.537,0,0,0,1.536,1.535A1.537,1.537,0,0,0,53.8-29.679a1.537,1.537,0,0,0-1.535-1.535,1.508,1.508,0,0,0-.346.043l-.429-.841a2.445,2.445,0,0,1,.775-.127,2.463,2.463,0,0,1,2.461,2.46A2.463,2.463,0,0,1,52.263-27.219Zm-.649-2.92.32.627a.369.369,0,0,0,.33.2.368.368,0,0,0,.167-.04.369.369,0,0,0,.161-.5l-.32-.628a.8.8,0,0,1,.788.8.8.8,0,0,1-.8.8.8.8,0,0,1-.8-.8A.791.791,0,0,1,51.614-30.139ZM37.409-31.462A1.61,1.61,0,0,0,35.8-29.854a1.61,1.61,0,0,0,1.608,1.608,1.609,1.609,0,0,0,1.607-1.608A1.609,1.609,0,0,0,37.409-31.462Zm0,2.476a.87.87,0,0,1-.869-.869.87.87,0,0,1,.869-.869.87.87,0,0,1,.869.869A.87.87,0,0,1,37.409-28.986Zm-2.137-3.67a.369.369,0,0,0,.292-.142,3.063,3.063,0,0,1,2.56-1,7.768,7.768,0,0,1,1.5.16l1.63,3.342a.325.325,0,0,0,.03.044,1.279,1.279,0,0,0,1.03.87.389.389,0,0,0,.052.011c2.872.395,2.892.395,2.926.395a.37.37,0,0,0,.361-.29,1.134,1.134,0,0,0-.307-.95,5.991,5.991,0,0,0-2.84-1.724,1.28,1.28,0,0,0-1,.481l-.95-1.947a.375.375,0,0,0,.05.008h6.869a.367.367,0,0,0,.113-.018,1.856,1.856,0,0,0,1-1.105,1.166,1.166,0,0,0-.057-1.036c-.175-.275-.541-.4-1.187-.4a16.748,16.748,0,0,0-2.3.249c-.246.038-.462.072-.624.092a1.8,1.8,0,0,0-1.22.572c-.456-.017-1.558-.057-2.3-.057h-.176l-.235-.074a6.73,6.73,0,0,0-2.047-.408c-1.409,0-2.552.774-3.494,2.365a.369.369,0,0,0,.11.494A.366.366,0,0,0,35.272-32.656ZM42.5-31.2a6,6,0,0,1,2.242,1.409l-2.214-.3a.377.377,0,0,0-.071-.014.546.546,0,0,1-.5-.543A.549.549,0,0,1,42.5-31.2Zm-4.05-3.639a6.152,6.152,0,0,1,1.824.374l.3.092a.369.369,0,0,0,.113.016h.226c.938,0,2.464.064,2.479.064a.342.342,0,0,0,.356-.226c.006-.011.144-.282.776-.359.168-.021.392-.055.648-.095a16.248,16.248,0,0,1,2.182-.24,2.109,2.109,0,0,1,.565.058.478.478,0,0,1-.016.386,1.331,1.331,0,0,1-.487.635H40.672a9.048,9.048,0,0,0-2.548-.4,5.69,5.69,0,0,0-1.1.1A2.614,2.614,0,0,1,38.449-34.84Zm5.508,1.923a.37.37,0,0,1,.369.369.37.37,0,0,1-.369.369h-1.63a.37.37,0,0,1-.369-.369.37.37,0,0,1,.369-.369Zm5.172-.6a.37.37,0,0,0-.2-.483.369.369,0,0,0-.483.2l-.633,1.527a3.282,3.282,0,0,0-1-.216,1.251,1.251,0,0,0-1.106-.675,1.256,1.256,0,0,0-1.255,1.255A1.256,1.256,0,0,0,45.7-30.652a1.253,1.253,0,0,0,1.237-1.08,1.448,1.448,0,0,1,.8.272c.013.016.025.031.012.085-.188.815-1.021,2.518-1.666,2.706a21.132,21.132,0,0,1-3.7-.44c-.552-.09-1.11-.18-1.642-.26a3.329,3.329,0,0,0,.039-.485,3.378,3.378,0,0,0-3.374-3.374,3.378,3.378,0,0,0-3.375,3.374,3.378,3.378,0,0,0,3.375,3.375,3.377,3.377,0,0,0,3.148-2.171c.552.083,1.135.177,1.711.27a29.217,29.217,0,0,0,3.587.466,1.652,1.652,0,0,0,.439-.045c1.091-.317,1.989-2.424,2.179-3.249a.822.822,0,0,0-.064-.567Zm-11.721,6.3a2.639,2.639,0,0,1-2.636-2.636,2.638,2.638,0,0,1,2.636-2.635,2.638,2.638,0,0,1,2.635,2.635A2.638,2.638,0,0,1,37.409-27.219Zm8.3-4.173a.516.516,0,0,1-.516-.516.516.516,0,0,1,.516-.516.516.516,0,0,1,.516.516A.516.516,0,0,1,45.705-31.391ZM20.987-33.037a3.428,3.428,0,0,0-1.026.156l-1.783-4.1a.366.366,0,0,0-.149-.169l-.814-.488a.365.365,0,0,0-.232-.05l-2,.23a.37.37,0,0,0-.325.409.371.371,0,0,0,.409.325l1.873-.216.6.362,1.737,3.992A3.441,3.441,0,0,0,17.545-29.6a3.446,3.446,0,0,0,3.442,3.442A3.445,3.445,0,0,0,24.429-29.6,3.446,3.446,0,0,0,20.987-33.037Zm0,6.144a2.706,2.706,0,0,1-2.7-2.7,2.7,2.7,0,0,1,1.3-2.3l.433,1a1.629,1.629,0,0,0-.664,1.308,1.638,1.638,0,0,0,1.636,1.636A1.637,1.637,0,0,0,22.622-29.6a1.637,1.637,0,0,0-1.635-1.635,1.63,1.63,0,0,0-.3.03l-.433-.995a2.694,2.694,0,0,1,.729-.1,2.705,2.705,0,0,1,2.7,2.7A2.706,2.706,0,0,1,20.987-26.893Zm-.664-3.3.324.746a.37.37,0,0,0,.339.222.37.37,0,0,0,.147-.031.37.37,0,0,0,.191-.486L21-30.49a.9.9,0,0,1,.883.9.9.9,0,0,1-.9.9.9.9,0,0,1-.9-.9A.891.891,0,0,1,20.323-30.194Zm-8.917.568a.37.37,0,0,1-.089.515.368.368,0,0,1-.212.067.37.37,0,0,1-.3-.157,3.017,3.017,0,0,1-.381-1.5v-1.717a.37.37,0,0,1,.369-.369.37.37,0,0,1,.369.369V-30.7A2.3,2.3,0,0,0,11.407-29.625Zm5.779-2.649a4.057,4.057,0,0,0,.465-2.84s0,0,0-.008,0-.022-.009-.033a1.37,1.37,0,0,0-1.487-.93,6.585,6.585,0,0,0-.746.051c-.767.088-2.867.5-3.488,1.3-.654-.041-2.515-.16-3.038-.206-.078-.007-.191-.021-.329-.038a13.585,13.585,0,0,0-1.66-.133,2.1,2.1,0,0,0-1.656.485.9.9,0,0,0-.2.748.369.369,0,0,0,.3.308l1.354.224v.322c-.084-.006-.168-.013-.253-.013A3.446,3.446,0,0,0,3-29.6a3.446,3.446,0,0,0,3.442,3.442,3.442,3.442,0,0,0,3.067-1.888,14.461,14.461,0,0,0,1.505.076c.132,0,.245,0,.334.005h.015c.515.02,1.078.035,1.636.035a10.353,10.353,0,0,0,2.928-.283.369.369,0,0,0,.183-.148,12.931,12.931,0,0,0,1.363-3.212.733.733,0,0,0-.187-.625A.787.787,0,0,0,17.186-32.274Zm-10.3-2.1a13.027,13.027,0,0,1,1.567.127c.15.019.273.034.357.042.643.056,3.177.215,3.285.222a.374.374,0,0,0,.377-.264c.092-.313,1.6-.891,3.013-1.054,1.138-.131,1.3-.006,1.461.415.067.171-.408.7-.962,1.088H8.5l-2.595-.429A2.307,2.307,0,0,1,6.888-34.372Zm2.623,3.3H7.433v-1.986H9.512v1.986ZM7.919-29.6a1.479,1.479,0,0,1-1.477,1.478A1.479,1.479,0,0,1,4.964-29.6a1.479,1.479,0,0,1,1.478-1.477,1.325,1.325,0,0,1,.253.025v.346a.37.37,0,0,0,.369.369h.652A1.448,1.448,0,0,1,7.919-29.6Zm-1.477,2.7a2.706,2.706,0,0,1-2.7-2.7,2.706,2.706,0,0,1,2.7-2.7c.084,0,.169,0,.253.012v.494a2.2,2.2,0,0,0-2.469,2.2,2.219,2.219,0,0,0,2.217,2.217A2.219,2.219,0,0,0,8.658-29.6a2.161,2.161,0,0,0-.132-.737h.514a2.659,2.659,0,0,1,.1.737A2.706,2.706,0,0,1,6.442-26.893ZM9.828-29l.04.033.289.239c-.123-.007-.249-.015-.382-.027C9.8-28.835,9.814-28.917,9.828-29Zm5.726.136a16.987,16.987,0,0,1-4.1.167,8.5,8.5,0,0,1-1.112-.839c-.166-.138-.324-.267-.473-.386a3.379,3.379,0,0,0-.068-.412h.082a.37.37,0,0,0,.369-.369v-2.356H16.1a.37.37,0,0,0,.2-.06,5.5,5.5,0,0,0,.6-.457,5.67,5.67,0,0,1-.4,1.024,4.066,4.066,0,0,0-.861-.049,1.535,1.535,0,0,0-1.017-.391,1.549,1.549,0,0,0-1.547,1.516,1.129,1.129,0,0,1-.437.183,1.216,1.216,0,0,0-.444.1v-.86h.2a.37.37,0,0,0,.369-.369.37.37,0,0,0-.369-.369h-.57a.37.37,0,0,0-.369.369v2.352a1.225,1.225,0,0,0,1.224,1.224h1.943a1.225,1.225,0,0,0,1.224-1.224,1.214,1.214,0,0,0-.057-.365,1.527,1.527,0,0,0,.38-1.01,1.524,1.524,0,0,0-.062-.411,1.093,1.093,0,0,1,.638.171A12.624,12.624,0,0,1,15.554-28.863Zm-.524-1.459a.476.476,0,0,1,.075.255.486.486,0,0,1-.485.485H12.678a.486.486,0,0,1-.485-.485.486.486,0,0,1,.485-.485.386.386,0,0,0,.068-.006c.178-.034,1.067-.234,1.067-.884a.809.809,0,0,1,.808-.808.809.809,0,0,1,.808.808.8.8,0,0,1-.314.633A.369.369,0,0,0,15.031-30.322Zm99.445-26.222a3.058,3.058,0,0,1-3.055-3.055,3.056,3.056,0,0,1,1.547-2.656l-.079-.19a3.265,3.265,0,0,0-1.013.886.37.37,0,0,1-.517.072.369.369,0,0,1-.072-.517,4,4,0,0,1,1.316-1.127l-1.316-3.154-1.013-.608a.369.369,0,0,1-.127-.507.369.369,0,0,1,.507-.127l1.116.67a.368.368,0,0,1,.151.175l1.363,3.267a4.068,4.068,0,0,1,2.707.119.369.369,0,0,1,.2.482.369.369,0,0,1-.482.2,3.315,3.315,0,0,0-2.14-.116l.079.188a3.037,3.037,0,0,1,.826-.114A3.058,3.058,0,0,1,117.53-59.6,3.058,3.058,0,0,1,114.476-56.544Zm-1.221-5.022a2.316,2.316,0,0,0-1.1,1.967,2.319,2.319,0,0,0,2.316,2.316,2.318,2.318,0,0,0,2.315-2.316,2.318,2.318,0,0,0-2.316-2.316,2.34,2.34,0,0,0-.539.063l.112.268a2.042,2.042,0,0,1,.427-.045,2.032,2.032,0,0,1,2.029,2.029,2.032,2.032,0,0,1-2.029,2.03,2.032,2.032,0,0,1-2.029-2.03,2.029,2.029,0,0,1,.92-1.7Zm.4.969a1.288,1.288,0,0,0-.474,1,1.292,1.292,0,0,0,1.291,1.291,1.292,1.292,0,0,0,1.291-1.291,1.292,1.292,0,0,0-1.291-1.291,1.253,1.253,0,0,0-.135.007l.476,1.141a.369.369,0,0,1-.2.483.37.37,0,0,1-.483-.2ZM99.19-56.544A3.058,3.058,0,0,1,96.135-59.6a3.058,3.058,0,0,1,3.055-3.055,3.047,3.047,0,0,1,1.006.17l.7-1.414H99.731a7.2,7.2,0,0,0-1.309.105.413.413,0,0,1-.064.011,2.455,2.455,0,0,0-1.578.756.37.37,0,0,1-.512.1.37.37,0,0,1-.1-.512,2.329,2.329,0,0,1,1.142-.826l-.693-.358a.37.37,0,0,1-.159-.5.369.369,0,0,1,.5-.159l1.428.737c.163-.026.32-.045.467-.06l-.472-.442a.369.369,0,0,1-.027-.511c.1-.112.957-1.1,1.815-1.039a1.047,1.047,0,0,1,.824.505c.406.613,2.612.689,4.139.549,1.017-1.053,3.134-1.254,4.5-1.168a1.571,1.571,0,0,1,1.183.585,2.7,2.7,0,0,1,.355,1.92.369.369,0,0,1-.363.3h-9.083l-.856,1.741a3.072,3.072,0,0,1,1.185,1.467l2.157,1.173c.481.016,2.828.089,4.154.089,1.2,0,1.811-2.28,1.868-2.892a.792.792,0,0,0,0-.316,3.1,3.1,0,0,0-.727-.048L108-60.093a.384.384,0,0,1-.64,0l-1.765-3.056a.369.369,0,0,1,0-.369.369.369,0,0,1,.32-.185h3.529a.369.369,0,0,1,.32.185.354.354,0,0,1,.04.1,1.279,1.279,0,0,1,.972.3,1.086,1.086,0,0,1,.184.871c-.066.707-.737,3.562-2.6,3.562-1.487,0-4.238-.092-4.266-.092a.368.368,0,0,1-.164-.045l-1.683-.916c0,.047,0,.094,0,.141A3.059,3.059,0,0,1,99.19-56.544Zm0-5.371A2.319,2.319,0,0,0,96.874-59.6a2.319,2.319,0,0,0,2.316,2.316,2.319,2.319,0,0,0,2.316-2.316,2.314,2.314,0,0,0-.976-1.888l-.294.6a1.658,1.658,0,0,1,.615,1.289,1.663,1.663,0,0,1-1.66,1.661A1.662,1.662,0,0,1,97.53-59.6a1.662,1.662,0,0,1,1.66-1.66,1.674,1.674,0,0,1,.382.044l.294-.6A2.315,2.315,0,0,0,99.19-61.915Zm0,1.394a.923.923,0,0,0-.921.921.923.923,0,0,0,.921.922.923.923,0,0,0,.921-.922.918.918,0,0,0-.218-.594l-.372.757a.369.369,0,0,1-.495.169.37.37,0,0,1-.168-.494l.372-.758Zm7.364-2.443,1.125,1.948,1.125-1.948Zm-1.074-1.673h4.985a1.66,1.66,0,0,0-.243-1.03.834.834,0,0,0-.646-.3c-1.317-.083-3.187.143-3.951.99Zm-3.988,0h3.119q.017-.063.037-.123c-1.268.073-3.626.068-4.278-.917a.318.318,0,0,0-.255-.175,1.653,1.653,0,0,0-.96.532l.731.684h1.607Zm4.206,4.829a.9.9,0,0,1-.9-.9.9.9,0,0,1,.9-.9.9.9,0,0,1,.9.9A.9.9,0,0,1,105.7-59.808Zm0-1.058a.16.16,0,0,0-.16.16.16.16,0,0,0,.16.16.16.16,0,0,0,.16-.16A.16.16,0,0,0,105.7-60.866Zm-1.99,0c-1.248,0-1.581-1.551-1.581-2.468a.369.369,0,0,1,.369-.369h2.423a.369.369,0,0,1,.369.369C105.289-62.417,104.956-60.866,103.709-60.866Zm-.815-2.1c.058.508.241,1.359.815,1.359s.757-.851.815-1.359Zm11.061-1.366a1.189,1.189,0,0,1-1.187-1.187,1.189,1.189,0,0,1,1.187-1.187.369.369,0,0,1,.369.369V-64.7A.369.369,0,0,1,113.955-64.33Zm-.369-1.442a.446.446,0,0,0-.079.254.447.447,0,0,0,.079.254Zm-1.115-.454a.367.367,0,0,1-.272-.119.369.369,0,0,1,.021-.522l.666-.614a.369.369,0,0,1,.522.021.369.369,0,0,1-.021.522l-.666.614A.369.369,0,0,1,112.471-66.226ZM83.438-63.837a3.041,3.041,0,0,0-1.178.236L79.881-67.79a.369.369,0,0,0-.321-.187H79a.369.369,0,0,0-.369.369.369.369,0,0,0,.369.369h.348l2.275,4.006a3.053,3.053,0,0,0-1.241,2.454,3.063,3.063,0,0,0,3.059,3.059A3.063,3.063,0,0,0,86.5-60.778,3.062,3.062,0,0,0,83.438-63.837Zm0,5.379a2.323,2.323,0,0,1-2.32-2.32,2.314,2.314,0,0,1,.869-1.807l.333.586a1.654,1.654,0,0,0-.544,1.222,1.665,1.665,0,0,0,1.663,1.663A1.665,1.665,0,0,0,85.1-60.778a1.665,1.665,0,0,0-1.663-1.663,1.636,1.636,0,0,0-.475.078l-.333-.587a2.3,2.3,0,0,1,.808-.148,2.322,2.322,0,0,1,2.32,2.32A2.323,2.323,0,0,1,83.438-58.458ZM82.7-61.329l.416.733a.368.368,0,0,0,.321.187.37.37,0,0,0,.182-.048.37.37,0,0,0,.139-.5l-.416-.732a.892.892,0,0,1,.095-.01.925.925,0,0,1,.924.924.925.925,0,0,1-.924.924.925.925,0,0,1-.924-.924A.915.915,0,0,1,82.7-61.329Zm-.627-4.409a.369.369,0,0,0,.369-.369v-1.714a.369.369,0,0,0-.369-.369,1.228,1.228,0,0,0-1.226,1.226A1.228,1.228,0,0,0,82.074-65.738ZM81.7-67.282v.635a.485.485,0,0,1-.118-.318A.485.485,0,0,1,81.7-67.282Zm-3.173.235h-4.5a1.02,1.02,0,0,0-.758.325,2.22,2.22,0,0,0-.463,1.339c-.777-.055-2.605-.191-4.012-.3l-.159-.689a.37.37,0,0,0-.32-.284l-1.566-.171a.366.366,0,0,0-.3.107.37.37,0,0,0-.1.3,2.316,2.316,0,0,1-.833,1.981.369.369,0,0,0-.074.517.368.368,0,0,0,.3.148.368.368,0,0,0,.221-.074,2.928,2.928,0,0,0,1.13-2.2l.893.1.161.7a.369.369,0,0,0,.332.285l1.183.089-.563,1.194a3.043,3.043,0,0,0-.961-.157,3.063,3.063,0,0,0-3.059,3.059,3.063,3.063,0,0,0,3.059,3.059,3.063,3.063,0,0,0,2.984-2.4c.607.018,2.012.054,3.429.054,1.043,0,2.09-.02,2.823-.081,1.773-.148,2.118-3.4,2.184-4.513a.367.367,0,0,0,.218-.335.38.38,0,0,0-.011-.09C79.714-65.639,79.329-67.047,78.531-67.047Zm-4.724.832a.278.278,0,0,1,.221-.093l4.479,0a1.891,1.891,0,0,1,.461.954H73.545A1.542,1.542,0,0,1,73.808-66.215Zm-5.68,7.757a2.323,2.323,0,0,1-2.32-2.32,2.323,2.323,0,0,1,2.32-2.32,2.309,2.309,0,0,1,.643.092l-.367.777a1.478,1.478,0,0,0-.276-.028,1.479,1.479,0,0,0-1.478,1.478A1.479,1.479,0,0,0,68.127-59.3a1.479,1.479,0,0,0,1.478-1.478,1.469,1.469,0,0,0-.536-1.129l.369-.783a2.319,2.319,0,0,1,1.009,1.912A2.322,2.322,0,0,1,68.127-58.458Zm.739-2.32a.74.74,0,0,1-.739.739.74.74,0,0,1-.739-.739.737.737,0,0,1,.676-.733l-.271.575a.369.369,0,0,0,.177.492.369.369,0,0,0,.157.035.369.369,0,0,0,.334-.212l.273-.577A.735.735,0,0,1,68.866-60.778Zm8.435-.1c-1.641.137-5.022.057-6.119.026a3.057,3.057,0,0,0-1.426-2.511l.685-1.452c1.314.1,2.652.2,2.731.2H78.8C78.716-63.375,78.337-60.964,77.3-60.877Zm.868-3.285a.37.37,0,0,0-.323-.191H74.214a.369.369,0,0,0-.369.369v.549a1.206,1.206,0,0,0-.474.278,7.319,7.319,0,0,0-.977-.055c-.118,0-.22,0-.3,0H72a.925.925,0,0,0-.924.924.925.925,0,0,0,.924.924h.093l.262,0a7.573,7.573,0,0,0,1.015-.058,1.211,1.211,0,0,0,.847.345,1.215,1.215,0,0,0,1.214-1.214,1.211,1.211,0,0,0-.844-1.15v-.18h.994l.33.528a1.212,1.212,0,0,0-.307.8,1.215,1.215,0,0,0,1.214,1.214,1.215,1.215,0,0,0,1.214-1.214,1.211,1.211,0,0,0-.307-.8l.439-.7A.37.37,0,0,0,78.17-64.163Zm-3.956,2.353a.475.475,0,0,1-.394-.21.369.369,0,0,0-.306-.163.376.376,0,0,0-.07.007,5.975,5.975,0,0,1-1.091.08L72-62.1a.185.185,0,0,1-.185-.185A.185.185,0,0,1,72-62.469h.113c.073,0,.171,0,.284,0a5.814,5.814,0,0,1,1.053.077.369.369,0,0,0,.375-.155.475.475,0,0,1,.393-.208.475.475,0,0,1,.475.475A.477.477,0,0,1,74.214-61.809Zm2.6,0a.475.475,0,0,1-.475-.475.47.47,0,0,1,.238-.408.371.371,0,0,0,.172-.231.369.369,0,0,0-.045-.284l-.255-.408h.731l-.255.408a.368.368,0,0,0-.045.284.369.369,0,0,0,.173.231.469.469,0,0,1,.238.407A.477.477,0,0,1,76.814-61.809ZM52.4-64.3a3.035,3.035,0,0,0-1.325.306l-2.09-3.263a.369.369,0,0,0-.174-.144l-.771-.308a.37.37,0,0,0-.48.206.369.369,0,0,0,.206.48l.661.265,2.025,3.161a3.054,3.054,0,0,0-1.111,2.356A3.062,3.062,0,0,0,52.4-58.179a3.063,3.063,0,0,0,3.059-3.059A3.063,3.063,0,0,0,52.4-64.3Zm0,5.379a2.323,2.323,0,0,1-2.32-2.32,2.312,2.312,0,0,1,.775-1.726l.464.725a1.468,1.468,0,0,0-.4,1A1.479,1.479,0,0,0,52.4-59.759a1.479,1.479,0,0,0,1.478-1.478A1.479,1.479,0,0,0,52.4-62.715a1.453,1.453,0,0,0-.457.08l-.467-.729a2.308,2.308,0,0,1,.924-.193,2.323,2.323,0,0,1,2.32,2.32A2.323,2.323,0,0,1,52.4-58.917Zm-.654-2.657.343.536a.369.369,0,0,0,.311.17.368.368,0,0,0,.2-.058.369.369,0,0,0,.112-.51l-.344-.536c.011,0,.021,0,.033,0a.74.74,0,0,1,.739.739.74.74,0,0,1-.739.739.74.74,0,0,1-.739-.739A.733.733,0,0,1,51.749-61.574Zm-1.758-4.821a1.066,1.066,0,0,1,1.065-1.065.37.37,0,0,1,.369.369V-65.7a.37.37,0,0,1-.369.369A1.066,1.066,0,0,1,49.991-66.395Zm-8.6,2.779a7.852,7.852,0,0,0,2.534-.615l3.333-.159a.37.37,0,0,0,.352-.369v-1.8a.37.37,0,0,0-.369-.369A5.047,5.047,0,0,0,43.617-64.9c-1.206.477-2.459.7-2.663.463a.37.37,0,0,0-.521-.037.37.37,0,0,0-.037.521A1.28,1.28,0,0,0,41.392-63.616Zm5.48-2.549v1.054l-2.16.1A4.088,4.088,0,0,1,46.873-66.165Zm1.842.362a.369.369,0,0,0-.467.233l-.731,2.193-.707-.563a.367.367,0,0,0-.274-.077c-.006,0-.01,0-.015,0H44.28a.361.361,0,0,0-.059.012.351.351,0,0,0-.058.007l-3.353,1.126A4.068,4.068,0,0,0,37.092-65.3a.37.37,0,0,0-.369.369.37.37,0,0,0,.369.369A3.327,3.327,0,0,1,40.1-62.637l-.254.085A3.06,3.06,0,0,0,37.092-64.3a3.062,3.062,0,0,0-3.059,3.059,3.062,3.062,0,0,0,3.059,3.059,3.057,3.057,0,0,0,2.576-1.415l.856.41a.373.373,0,0,0,.16.036h5.935a.369.369,0,0,0,.351-.253l1.979-5.935A.369.369,0,0,0,48.714-65.8ZM46.14-63.281l.011.748H46.14a.37.37,0,0,0-.369.369v.823h-.739v-.823a.37.37,0,0,0-.369-.369l-.011-.748ZM43.91-61.34a.935.935,0,0,0-.721-.552l-.332-.89,1.055-.354v.974a.37.37,0,0,0,.369.369l.006.454Zm-.858.173a.2.2,0,0,1,.2.2.2.2,0,0,1-.2.2.2.2,0,0,1-.2-.2A.2.2,0,0,1,43.051-61.167Zm-5.958,2.25a2.323,2.323,0,0,1-2.32-2.32,2.323,2.323,0,0,1,2.32-2.32,2.322,2.322,0,0,1,2.052,1.241l-.462.155a1.841,1.841,0,0,0-1.59-.924,1.849,1.849,0,0,0-1.847,1.847,1.849,1.849,0,0,0,1.847,1.847,1.839,1.839,0,0,0,1.466-.736l.439.21A2.319,2.319,0,0,1,37.093-58.917Zm2.32-2.321a2.306,2.306,0,0,1-.1.656l-.438-.21a1.817,1.817,0,0,0,.061-.446,1.842,1.842,0,0,0-.023-.223l.462-.155A2.31,2.31,0,0,1,39.413-61.238Zm-2.48.333.942.451a1.1,1.1,0,0,1-.782.324,1.11,1.11,0,0,1-1.108-1.108,1.11,1.11,0,0,1,1.108-1.108,1.1,1.1,0,0,1,.868.427l-.985.331a.37.37,0,0,0-.251.328A.369.369,0,0,0,36.934-60.9Zm1.141-.273.126-.042c0,.033-.007.065-.01.1Zm8.278,1.291H40.768l-.779-.373a3.042,3.042,0,0,0,.163-.978,3.053,3.053,0,0,0-.062-.616l.253-.085a3.32,3.32,0,0,1,.076.7.37.37,0,0,0,.369.369.37.37,0,0,0,.369-.369,4.037,4.037,0,0,0-.113-.937l1.111-.373.316.848a.929.929,0,0,0-.355.728.936.936,0,0,0,.935.935.936.936,0,0,0,.858-.566h2.23a.37.37,0,0,0,.369-.369v-.823h.011a.37.37,0,0,0,.369-.369v-.767l.377.3ZM21.369-62.654a3.041,3.041,0,0,0-1.748.552l-1.467-1.639L16.123-67.4l-.4-1.209a.368.368,0,0,0-.209-.224.369.369,0,0,0-.307.011l-1.655.828a.37.37,0,0,0-.165.5.369.369,0,0,0,.5.165l1.274-.637.279.838a.349.349,0,0,0,.028.062l2.069,3.724a.367.367,0,0,0,.048.067l1.5,1.671A3.042,3.042,0,0,0,18.31-59.6a3.062,3.062,0,0,0,3.059,3.059A3.063,3.063,0,0,0,24.428-59.6,3.062,3.062,0,0,0,21.369-62.654Zm0,5.379a2.323,2.323,0,0,1-2.32-2.32,2.31,2.31,0,0,1,.519-1.459l.483.539a1.6,1.6,0,0,0-.292.92,1.613,1.613,0,0,0,1.611,1.611A1.613,1.613,0,0,0,22.98-59.6a1.612,1.612,0,0,0-1.611-1.61,1.592,1.592,0,0,0-.765.2l-.485-.542a2.3,2.3,0,0,1,1.25-.369,2.323,2.323,0,0,1,2.32,2.32A2.322,2.322,0,0,1,21.369-57.275Zm-.275-2.074a.368.368,0,0,0,.276.123.369.369,0,0,0,.246-.094.369.369,0,0,0,.029-.522l-.524-.585a.862.862,0,0,1,.248-.04.873.873,0,0,1,.872.872.873.873,0,0,1-.872.872A.873.873,0,0,1,20.5-59.6a.866.866,0,0,1,.07-.342Zm-2.93-5.359h.944a.37.37,0,0,0,.369-.369v-1.485a.37.37,0,0,0-.369-.369h-.951a.369.369,0,0,0-.262.109.372.372,0,0,0-.108.262l.006,1.485A.37.37,0,0,0,18.164-64.708Zm.575-1.485v.746h-.207l0-.746Zm-1.507,5.369-1.071-.655a1.457,1.457,0,0,0-1.43-1.194,1.426,1.426,0,0,0-.6.136l-.035.013L9.16-60.471a.37.37,0,0,0-.22.414.369.369,0,0,0,.362.3h5.429c.021,0,.041,0,.042,0a.362.362,0,0,0,.067-.006,1.452,1.452,0,0,0,1.238-.9l.591.362v1.047l-2.345,1.23H8.892L8.5-58.34c.023-.059.046-.118.066-.179h5.706a.37.37,0,0,0,.369-.369.37.37,0,0,0-.369-.369H8.7c0-.044.007-.086.007-.131a2.855,2.855,0,0,0-2.852-2.852c-.085,0-.168.006-.251.013L4.99-67.812a.371.371,0,0,0-.063-.169l-.848-1.232a.369.369,0,0,0-.514-.095.37.37,0,0,0-.095.514l.8,1.155.611,5.575A2.854,2.854,0,0,0,3-59.388a2.855,2.855,0,0,0,2.852,2.852,2.847,2.847,0,0,0,2.283-1.15l.395.318a.368.368,0,0,0,.232.082h5.654a.369.369,0,0,0,.171-.042L17.211-58.7a.37.37,0,0,0,.2-.327v-1.478A.37.37,0,0,0,17.232-60.825Zm-2.474.322-.032,0H11.151l3.17-1.32a.368.368,0,0,0,.084-.031.716.716,0,0,1,1.044.634A.715.715,0,0,1,14.758-60.5ZM5.852-57.275a2.116,2.116,0,0,1-2.113-2.113A2.116,2.116,0,0,1,5.852-61.5a2.116,2.116,0,0,1,2.113,2.113,2.11,2.11,0,0,1-.076.554l-.228-.184a1.854,1.854,0,0,0,.038-.371,1.849,1.849,0,0,0-1.847-1.847A1.849,1.849,0,0,0,4-59.388a1.849,1.849,0,0,0,1.847,1.847,1.843,1.843,0,0,0,1.5-.777l.209.168A2.11,2.11,0,0,1,5.852-57.275Zm-.14-2.366,1.066.86a1.107,1.107,0,0,1-.925.5,1.11,1.11,0,0,1-1.108-1.108A1.11,1.11,0,0,1,5.852-60.5a1.109,1.109,0,0,1,1.087.9l-.763-.616a.37.37,0,0,0-.519.055A.37.37,0,0,0,5.712-59.642Zm.453-3.087a2.776,2.776,0,0,1,1.487.507,2.812,2.812,0,0,0,1.793.586,6.322,6.322,0,0,0,2.913-.887l3.543-.916a.369.369,0,0,0,.266-.27,2.277,2.277,0,0,0-.188-1.7.976.976,0,0,0-.8-.369,1.586,1.586,0,0,0-.281.027c-1.316.238-2.643,2.148-2.943,2.6-.389.224-2.536,1.376-3.841.341a3.487,3.487,0,0,0-1.879-.664.368.368,0,0,0-.4.334A.371.371,0,0,0,6.165-62.729Zm8.861-2.29a.86.86,0,0,1,.15-.015.247.247,0,0,1,.222.086,1.332,1.332,0,0,1,.091.853l-2.372.613A4.171,4.171,0,0,1,15.026-65.019Z" transform="translate(-1.714 43.689)" fill="#fff"/>
  </g>
</svg>
