<svg id="Group_14177" data-name="Group 14177" xmlns="http://www.w3.org/2000/svg" width="24" height="24" viewBox="0 0 24 24">
  <path id="Path_2562" data-name="Path 2562" d="M0,0H24V24H0Z" fill="none"/>
  <path id="calendar_today-3" d="M18.364,2.818h-.909V1H15.636V2.818H6.545V1H4.727V2.818H3.818A1.824,1.824,0,0,0,2,4.636V19.182A1.824,1.824,0,0,0,3.818,21H18.364a1.824,1.824,0,0,0,1.818-1.818V4.636A1.824,1.824,0,0,0,18.364,2.818Zm0,16.364H3.818v-10H18.364Zm0-11.818H3.818V4.636H18.364Z" transform="translate(1 1)" fill="#fff"/>
</svg>
