<svg id="Group_14450" data-name="Group 14450" xmlns="http://www.w3.org/2000/svg" width="20" height="20" viewBox="0 0 20 20">
  <path id="Path_2724" data-name="Path 2724" d="M0,0H20V20H0Z" fill="none"/>
  <path id="Path_2725" data-name="Path 2725" d="M3,10v5" transform="translate(-0.5 -1.667)" fill="none" stroke="#cbc6c6" stroke-linecap="round" stroke-linejoin="round" stroke-width="1"/>
  <path id="Path_2726" data-name="Path 2726" d="M12,5V7.5" transform="translate(-2 -0.833)" fill="none" stroke="#cbc6c6" stroke-linecap="round" stroke-linejoin="round" stroke-width="1"/>
  <path id="Path_2727" data-name="Path 2727" d="M10,5h3.333" transform="translate(-1.667 -0.833)" fill="none" stroke="#cbc6c6" stroke-linecap="round" stroke-linejoin="round" stroke-width="1"/>
  <path id="Path_2728" data-name="Path 2728" d="M4.667,13H3" transform="translate(-0.5 -2.167)" fill="none" stroke="#cbc6c6" stroke-linecap="round" stroke-linejoin="round" stroke-width="1"/>
  <path id="Path_2729" data-name="Path 2729" d="M6,9.667H7.667L9.333,8h2.818a.833.833,0,0,1,.745.461L14.1,10.872a.833.833,0,0,0,.745.461H16V9.667h1.667a.833.833,0,0,1,.833.833v5a.833.833,0,0,1-.833.833H16V14.667H13.5v1.667a.833.833,0,0,1-.833.833H9.779a.833.833,0,0,1-.693-.371L7.667,14.667H6Z" transform="translate(-1 -1.333)" fill="none" stroke="#cbc6c6" stroke-linecap="round" stroke-linejoin="round" stroke-width="1"/>
</svg>
