<svg xmlns="http://www.w3.org/2000/svg" width="12.463" height="16.358" viewBox="0 0 12.463 16.358">
  <path id="Icon_material-lock" data-name="Icon material-lock" d="M16.905,6.953h-.779V5.395a3.895,3.895,0,0,0-7.789,0V6.953H7.558A1.562,1.562,0,0,0,6,8.51V16.3a1.562,1.562,0,0,0,1.558,1.558h9.347A1.562,1.562,0,0,0,18.463,16.3V8.51A1.562,1.562,0,0,0,16.905,6.953Zm-4.674,7.01a1.558,1.558,0,1,1,1.558-1.558A1.562,1.562,0,0,1,12.231,13.963Zm2.415-7.01H9.817V5.395a2.415,2.415,0,0,1,4.829,0Z" transform="translate(-6 -1.5)" fill="#da291c"/>
</svg>
